<?xml version="1.0" standalone="yes"?>

<svg version="1.1" viewBox="0.0 0.0 960.0 540.0" fill="none" stroke="none" stroke-linecap="square" stroke-miterlimit="10" xmlns="http://www.w3.org/2000/svg" xmlns:xlink="http://www.w3.org/1999/xlink"><clipPath id="gc6f8badac_0_68.0"><path d="m0 0l960.0 0l0 540.0l-960.0 0l0 -540.0z" clip-rule="nonzero"></path></clipPath><g clip-path="url(#gc6f8badac_0_68.0)"><g id="gc6f8badac_0_68"><path fill="#ffffff" d="m0 0l960.0 0l0 540.0l-960.0 0l0 -540.0z" fill-rule="nonzero"></path><path fill="#ffffff" d="m0 0l960.0 0l0 540.0l-960.0 0z" fill-rule="nonzero"></path><path fill="#000000" fill-opacity="0.0" d="m-3.2204723 0l960.00024 0l0 540.0002l-960.00024 0z" fill-rule="nonzero"></path><g transform="matrix(0.46875012014794537 0.0 0.0 0.46874075070245025 -3.220472440944882 -55.94401825127727)"><clipPath id="gc6f8badac_0_68.1"><path d="m0 119.349594l2048.0 0l0 1152.0231l-2048.0 0z" clip-rule="nonzero"></path></clipPath><defs><filter id="gc6f8badac_0_68.2" filterUnits="objectBoundingBox" primitiveUnits="objectBoundingBox" x="0%" y="0%" width="100%" height="100%"><feColorMatrix type="matrix" values="0.2126 0.7152 0.0722 0.0 0.0 0.2126 0.7152 0.0722 0.0 0.0 0.2126 0.7152 0.0722 0.0 0.0 0.0 0.0 0.0 1.0 0.0" in="SourceGraphic" result="result-0" color-interpolation-filters="sRGB"></feColorMatrix><feComponentTransfer in="result-0" result="result-1" color-interpolation-filters="sRGB"><feFuncR type="table" tableValues="0.0 0.001713626656304325 0.00342725331260865 0.005140879968912974 0.0068545066252173 0.008568133281521624 0.010281759937825949 0.011995386594130273 0.0137090132504346 0.015422639906738924 0.017136266563043248 0.018849893219347574 0.020563519875651897 0.022277146531956223 0.023990773188260546 0.02570439984456487 0.0274180265008692 0.02913165315717352 0.030845279813477847 0.03255890646978218 0.034272533126086496 0.03598615978239082 0.03769978643869515 0.039413413094999475 0.041127039751303794 0.04284066640760812 0.04455429306391245 0.04626791972021677 0.04798154637652109 0.04969517303282542 0.05140879968912974 0.05312242634543407 0.0548360530017384 0.05654967965804272 0.05826330631434704 0.059976932970651375 0.061690559626955695 0.06340418628326003 0.06511781293956435 0.06683143959586868 0.06854506625217299 0.07025869290847732 0.07197231956478164 0.07368594622108597 0.0753995728773903 0.07711319953369462 0.07882682618999895 0.08054045284630328 0.08225407950260759 0.08396770615891191 0.08568133281521624 0.08739495947152058 0.0891085861278249 0.09082221278412922 0.09253583944043355 0.09424946609673787 0.09596309275304218 0.09767671940934652 0.09939034606565084 0.10110397272195516 0.10281759937825947 0.10453122603456383 0.10624485269086814 0.10795847934717247 0.1096721060034768 0.1113857326597811 0.11309935931608545 0.11481298597238976 0.11652661262869408 0.1182402392849984 0.11995386594130275 0.12166749259760706 0.12338111925391139 0.12509474591021572 0.12680837256652006 0.12852199922282437 0.1302356258791287 0.13194925253543302 0.13366287919173736 0.13537650584804167 0.13709013250434599 0.1388037591606503 0.14051738581695464 0.14223101247325898 0.1439446391295633 0.1456582657858676 0.14737189244217194 0.14908551909847628 0.1507991457547806 0.1525127724110849 0.15422639906738925 0.15594002572369356 0.1576536523799979 0.1593672790363022 0.16108090569260655 0.16279453234891086 0.16450815900521518 0.1662217856615195 0.16793541231782383 0.16964903897412817 0.17136266563043248 0.1730762922867368 0.17478991894304116 0.17650354559934547 0.1782171722556498 0.17993079891195407 0.18164442556825844 0.18335805222456278 0.1850716788808671 0.1867853055371714 0.18849893219347574 0.19021255884978006 0.19192618550608437 0.1936398121623887 0.19535343881869305 0.19706706547499736 0.19878069213130167 0.20049431878760599 0.20220794544391033 0.20392157210021464 0.20563519875651895 0.2073488254128233 0.20906245206912766 0.21077607872543197 0.21248970538173628 0.2142033320380406 0.21591695869434493 0.21763058535064925 0.2193442120069536 0.2210578386632579 0.2227714653195622 0.22448509197586652 0.2261987186321709 0.2279123452884752 0.22962597194477952 0.23133959860108383 0.23305322525738817 0.23476685191369248 0.2364804785699968 0.2381941052263011 0.2399077318826055 0.24162135853890981 0.24333498519521413 0.24504861185151847 0.24676223850782278 0.2484758651641271 0.25018949182043143 0.2519031184767357 0.2536167451330401 0.2553303717893444 0.25704399844564874 0.25875762510195305 0.2604712517582574 0.2621848784145617 0.26389850507086604 0.2656121317271703 0.2673257583834747 0.269039385039779 0.27075301169608335 0.27246663835238766 0.27418026500869197 0.2758938916649963 0.2776075183213006 0.2793211449776049 0.2810347716339093 0.2827483982902136 0.28446202494651796 0.28617565160282227 0.2878892782591266 0.28960290491543084 0.2913165315717352 0.2930301582280395 0.2947437848843439 0.2964574115406482 0.29817103819695256 0.2998846648532568 0.3015982915095612 0.30331191816586545 0.3050255448221698 0.31041909699010284 0.3194925299244438 0.32856596285878453 0.3376393957931252 0.34671282872746595 0.35578626166180666 0.36485969459614737 0.37393312753048813 0.38300656046482884 0.39207999339916977 0.40115342633351053 0.41022685926785124 0.41930029220219195 0.4283737251365327 0.43744715807087337 0.4465205910052141 0.45559402393955484 0.4646674568738958 0.47374088980823653 0.48281432274257724 0.49188775567691795 0.5009611886112587 0.5100346215455994 0.5191080544799401 0.5281814874142808 0.5372549203486219 0.5463283532829626 0.5554017862173033 0.564475219151644 0.5735486520859846 0.5826220850203254 0.591695517954666 0.6007689508890068 0.6098423838233479 0.6189158167576885 0.6279892496920293 0.63706268262637 0.6461361155607107 0.6552095484950515 0.664282981429392 0.6733564143637328 0.6824298472980739 0.6915032802324145 0.7005767131667553 0.7096501461010959 0.7187235790354367 0.7277970119697774 0.7368704449041181 0.745943877838459 0.7550173107727999 0.7640907437071405 0.7731641766414813 0.7822376095758219 0.7913110425101627 0.8003844754445033 0.8094579083788441 0.818531341313185 0.8276047742475259 0.8366782071818666 0.8457516401162074 0.8548250730505479 0.8638985059848887 0.8729719389192294 0.8820453718535701 0.8911188047879108 0.9001922377222518 0.9092656706565926 0.9183391035909333 0.927412536525274 0.9364859694596148 0.9455594023939554 0.9546328353282961 0.9637062682626368 0.9727797011969778 0.9818531341313186 0.9909265670656593 1.0"></feFuncR><feFuncG type="table" tableValues="0.0 0.001713626656304325 0.00342725331260865 0.005140879968912974 0.0068545066252173 0.008568133281521624 0.010281759937825949 0.011995386594130273 0.0137090132504346 0.015422639906738924 0.017136266563043248 0.018849893219347574 0.020563519875651897 0.022277146531956223 0.023990773188260546 0.02570439984456487 0.0274180265008692 0.02913165315717352 0.030845279813477847 0.03255890646978218 0.034272533126086496 0.03598615978239082 0.03769978643869515 0.039413413094999475 0.041127039751303794 0.04284066640760812 0.04455429306391245 0.04626791972021677 0.04798154637652109 0.04969517303282542 0.05140879968912974 0.05312242634543407 0.0548360530017384 0.05654967965804272 0.05826330631434704 0.059976932970651375 0.061690559626955695 0.06340418628326003 0.06511781293956435 0.06683143959586868 0.06854506625217299 0.07025869290847732 0.07197231956478164 0.07368594622108597 0.0753995728773903 0.07711319953369462 0.07882682618999895 0.08054045284630328 0.08225407950260759 0.08396770615891191 0.08568133281521624 0.08739495947152058 0.0891085861278249 0.09082221278412922 0.09253583944043355 0.09424946609673787 0.09596309275304218 0.09767671940934652 0.09939034606565084 0.10110397272195516 0.10281759937825947 0.10453122603456383 0.10624485269086814 0.10795847934717247 0.1096721060034768 0.1113857326597811 0.11309935931608545 0.11481298597238976 0.11652661262869408 0.1182402392849984 0.11995386594130275 0.12166749259760706 0.12338111925391139 0.12509474591021572 0.12680837256652006 0.12852199922282437 0.1302356258791287 0.13194925253543302 0.13366287919173736 0.13537650584804167 0.13709013250434599 0.1388037591606503 0.14051738581695464 0.14223101247325898 0.1439446391295633 0.1456582657858676 0.14737189244217194 0.14908551909847628 0.1507991457547806 0.1525127724110849 0.15422639906738925 0.15594002572369356 0.1576536523799979 0.1593672790363022 0.16108090569260655 0.16279453234891086 0.16450815900521518 0.1662217856615195 0.16793541231782383 0.16964903897412817 0.17136266563043248 0.1730762922867368 0.17478991894304116 0.17650354559934547 0.1782171722556498 0.17993079891195407 0.18164442556825844 0.18335805222456278 0.1850716788808671 0.1867853055371714 0.18849893219347574 0.19021255884978006 0.19192618550608437 0.1936398121623887 0.19535343881869305 0.19706706547499736 0.19878069213130167 0.20049431878760599 0.20220794544391033 0.20392157210021464 0.20563519875651895 0.2073488254128233 0.20906245206912766 0.21077607872543197 0.21248970538173628 0.2142033320380406 0.21591695869434493 0.21763058535064925 0.2193442120069536 0.2210578386632579 0.2227714653195622 0.22448509197586652 0.2261987186321709 0.2279123452884752 0.22962597194477952 0.23133959860108383 0.23305322525738817 0.23476685191369248 0.2364804785699968 0.2381941052263011 0.2399077318826055 0.24162135853890981 0.24333498519521413 0.24504861185151847 0.24676223850782278 0.2484758651641271 0.25018949182043143 0.2519031184767357 0.2536167451330401 0.2553303717893444 0.25704399844564874 0.25875762510195305 0.2604712517582574 0.2621848784145617 0.26389850507086604 0.2656121317271703 0.2673257583834747 0.269039385039779 0.27075301169608335 0.27246663835238766 0.27418026500869197 0.2758938916649963 0.2776075183213006 0.2793211449776049 0.2810347716339093 0.2827483982902136 0.28446202494651796 0.28617565160282227 0.2878892782591266 0.28960290491543084 0.2913165315717352 0.2930301582280395 0.2947437848843439 0.2964574115406482 0.29817103819695256 0.2998846648532568 0.3015982915095612 0.30331191816586545 0.3050255448221698 0.31041909699010284 0.3194925299244438 0.32856596285878453 0.3376393957931252 0.34671282872746595 0.35578626166180666 0.36485969459614737 0.37393312753048813 0.38300656046482884 0.39207999339916977 0.40115342633351053 0.41022685926785124 0.41930029220219195 0.4283737251365327 0.43744715807087337 0.4465205910052141 0.45559402393955484 0.4646674568738958 0.47374088980823653 0.48281432274257724 0.49188775567691795 0.5009611886112587 0.5100346215455994 0.5191080544799401 0.5281814874142808 0.5372549203486219 0.5463283532829626 0.5554017862173033 0.564475219151644 0.5735486520859846 0.5826220850203254 0.591695517954666 0.6007689508890068 0.6098423838233479 0.6189158167576885 0.6279892496920293 0.63706268262637 0.6461361155607107 0.6552095484950515 0.664282981429392 0.6733564143637328 0.6824298472980739 0.6915032802324145 0.7005767131667553 0.7096501461010959 0.7187235790354367 0.7277970119697774 0.7368704449041181 0.745943877838459 0.7550173107727999 0.7640907437071405 0.7731641766414813 0.7822376095758219 0.7913110425101627 0.8003844754445033 0.8094579083788441 0.818531341313185 0.8276047742475259 0.8366782071818666 0.8457516401162074 0.8548250730505479 0.8638985059848887 0.8729719389192294 0.8820453718535701 0.8911188047879108 0.9001922377222518 0.9092656706565926 0.9183391035909333 0.927412536525274 0.9364859694596148 0.9455594023939554 0.9546328353282961 0.9637062682626368 0.9727797011969778 0.9818531341313186 0.9909265670656593 1.0"></feFuncG><feFuncB type="table" tableValues="0.0 0.001713626656304325 0.00342725331260865 0.005140879968912974 0.0068545066252173 0.008568133281521624 0.010281759937825949 0.011995386594130273 0.0137090132504346 0.015422639906738924 0.017136266563043248 0.018849893219347574 0.020563519875651897 0.022277146531956223 0.023990773188260546 0.02570439984456487 0.0274180265008692 0.02913165315717352 0.030845279813477847 0.03255890646978218 0.034272533126086496 0.03598615978239082 0.03769978643869515 0.039413413094999475 0.041127039751303794 0.04284066640760812 0.04455429306391245 0.04626791972021677 0.04798154637652109 0.04969517303282542 0.05140879968912974 0.05312242634543407 0.0548360530017384 0.05654967965804272 0.05826330631434704 0.059976932970651375 0.061690559626955695 0.06340418628326003 0.06511781293956435 0.06683143959586868 0.06854506625217299 0.07025869290847732 0.07197231956478164 0.07368594622108597 0.0753995728773903 0.07711319953369462 0.07882682618999895 0.08054045284630328 0.08225407950260759 0.08396770615891191 0.08568133281521624 0.08739495947152058 0.0891085861278249 0.09082221278412922 0.09253583944043355 0.09424946609673787 0.09596309275304218 0.09767671940934652 0.09939034606565084 0.10110397272195516 0.10281759937825947 0.10453122603456383 0.10624485269086814 0.10795847934717247 0.1096721060034768 0.1113857326597811 0.11309935931608545 0.11481298597238976 0.11652661262869408 0.1182402392849984 0.11995386594130275 0.12166749259760706 0.12338111925391139 0.12509474591021572 0.12680837256652006 0.12852199922282437 0.1302356258791287 0.13194925253543302 0.13366287919173736 0.13537650584804167 0.13709013250434599 0.1388037591606503 0.14051738581695464 0.14223101247325898 0.1439446391295633 0.1456582657858676 0.14737189244217194 0.14908551909847628 0.1507991457547806 0.1525127724110849 0.15422639906738925 0.15594002572369356 0.1576536523799979 0.1593672790363022 0.16108090569260655 0.16279453234891086 0.16450815900521518 0.1662217856615195 0.16793541231782383 0.16964903897412817 0.17136266563043248 0.1730762922867368 0.17478991894304116 0.17650354559934547 0.1782171722556498 0.17993079891195407 0.18164442556825844 0.18335805222456278 0.1850716788808671 0.1867853055371714 0.18849893219347574 0.19021255884978006 0.19192618550608437 0.1936398121623887 0.19535343881869305 0.19706706547499736 0.19878069213130167 0.20049431878760599 0.20220794544391033 0.20392157210021464 0.20563519875651895 0.2073488254128233 0.20906245206912766 0.21077607872543197 0.21248970538173628 0.2142033320380406 0.21591695869434493 0.21763058535064925 0.2193442120069536 0.2210578386632579 0.2227714653195622 0.22448509197586652 0.2261987186321709 0.2279123452884752 0.22962597194477952 0.23133959860108383 0.23305322525738817 0.23476685191369248 0.2364804785699968 0.2381941052263011 0.2399077318826055 0.24162135853890981 0.24333498519521413 0.24504861185151847 0.24676223850782278 0.2484758651641271 0.25018949182043143 0.2519031184767357 0.2536167451330401 0.2553303717893444 0.25704399844564874 0.25875762510195305 0.2604712517582574 0.2621848784145617 0.26389850507086604 0.2656121317271703 0.2673257583834747 0.269039385039779 0.27075301169608335 0.27246663835238766 0.27418026500869197 0.2758938916649963 0.2776075183213006 0.2793211449776049 0.2810347716339093 0.2827483982902136 0.28446202494651796 0.28617565160282227 0.2878892782591266 0.28960290491543084 0.2913165315717352 0.2930301582280395 0.2947437848843439 0.2964574115406482 0.29817103819695256 0.2998846648532568 0.3015982915095612 0.30331191816586545 0.3050255448221698 0.31041909699010284 0.3194925299244438 0.32856596285878453 0.3376393957931252 0.34671282872746595 0.35578626166180666 0.36485969459614737 0.37393312753048813 0.38300656046482884 0.39207999339916977 0.40115342633351053 0.41022685926785124 0.41930029220219195 0.4283737251365327 0.43744715807087337 0.4465205910052141 0.45559402393955484 0.4646674568738958 0.47374088980823653 0.48281432274257724 0.49188775567691795 0.5009611886112587 0.5100346215455994 0.5191080544799401 0.5281814874142808 0.5372549203486219 0.5463283532829626 0.5554017862173033 0.564475219151644 0.5735486520859846 0.5826220850203254 0.591695517954666 0.6007689508890068 0.6098423838233479 0.6189158167576885 0.6279892496920293 0.63706268262637 0.6461361155607107 0.6552095484950515 0.664282981429392 0.6733564143637328 0.6824298472980739 0.6915032802324145 0.7005767131667553 0.7096501461010959 0.7187235790354367 0.7277970119697774 0.7368704449041181 0.745943877838459 0.7550173107727999 0.7640907437071405 0.7731641766414813 0.7822376095758219 0.7913110425101627 0.8003844754445033 0.8094579083788441 0.818531341313185 0.8276047742475259 0.8366782071818666 0.8457516401162074 0.8548250730505479 0.8638985059848887 0.8729719389192294 0.8820453718535701 0.8911188047879108 0.9001922377222518 0.9092656706565926 0.9183391035909333 0.927412536525274 0.9364859694596148 0.9455594023939554 0.9546328353282961 0.9637062682626368 0.9727797011969778 0.9818531341313186 0.9909265670656593 1.0"></feFuncB></feComponentTransfer></filter></defs><image clip-path="url(#gc6f8badac_0_68.1)" filter="url(#gc6f8badac_0_68.2)" fill="#000" width="2048.0" height="1361.0" x="0.0" y="0.0" preserveAspectRatio="none" xlink:href="https://lh5.googleusercontent.com/CCK7kg_2QmPCt4OuYk7so1aPKzFD5z-s5kGgpX41gg9pVOJ6vR4nLIWWzfYPCZQjQ5H3EWmBUpDOTNhld3CDfX57jFMAXfRkmji6_0qHZ88JXyHe-yTzN_j-nTBhm1J-JHE"></image></g><path fill="#000000" fill-opacity="0.0" d="m41.711285 42.32021l469.98428 0l0 56.503933l-469.98428 0z" fill-rule="nonzero"></path><path fill="#ffffff" d="m69.52379 82.040215l-4.703125 -17.21875l-4.703129 17.21875l-2.875 0l-6.078125 -21.343754l2.9375 0l4.734375 17.796879l4.90625 -17.796879l2.2031288 0l4.890625 17.796879l4.703125 -17.796879l2.953125 0l-6.078125 21.343754l-2.890625 0zm22.302933 0l0 -10.171875q0 -1.734375 -0.8125 -2.625q-0.8125 -0.90625 -2.671875 -0.90625q-1.3125 0 -2.546875 0.671875q-1.234375 0.671875 -2.03125 1.734375l0 11.296875l-2.390625 0l0 -21.343754l2.390625 0l0 8.125004q1.03125 -1.1875 2.5 -1.90625q1.46875 -0.71875 3.046875 -0.71875q4.921875 0 4.921875 4.9375l0 10.90625l-2.40625 0zm6.726532 3.875q0.515625 0.25 1.3125 0.25q0.796875 0 1.34375 -0.34375q0.546875 -0.328125 0.953125 -1.28125l1.03125 -2.34375l-6.46875 -15.609375l2.59375 0l5.15625 12.671875l5.109375 -12.671875l2.625 0l-7.734375 18.59375q-1.28125 3.0625 -4.546875 3.125q-0.921875 0 -1.765625 -0.21875l0.390625 -2.171875zm34.8423 -3.875l0 -10.109375q0 -2.046875 -0.953125 -2.8125q-0.9375 -0.78125 -2.5 -0.78125q-1.34375 0 -2.640625 0.734375q-1.296875 0.71875 -1.9375 1.671875l0 11.296875l-2.390625 0l0 -15.453125l2.390625 0l0 2.234375q1.0 -1.15625 2.453125 -1.890625q1.453125 -0.734375 3.046875 -0.734375q4.9375 0 4.9375 5.0l0 10.84375l-2.40625 0zm13.960159 0.390625q-3.359375 0 -5.515625 -2.28125q-2.140625 -2.296875 -2.140625 -5.859375q0 -3.578125 2.140625 -5.828125q2.15625 -2.265625 5.515625 -2.265625q3.359375 0 5.5 2.265625q2.140625 2.25 2.140625 5.828125q0 3.5625 -2.140625 5.859375q-2.140625 2.28125 -5.5 2.28125zm0 -2.15625q2.234375 0 3.671875 -1.671875q1.4375 -1.6875 1.4375 -4.3125q0 -2.59375 -1.4375 -4.265625q-1.4375 -1.6875 -3.671875 -1.6875q-2.25 0 -3.703125 1.671875q-1.453125 1.65625 -1.453125 4.28125q0 2.65625 1.4375 4.328125q1.4375 1.65625 3.71875 1.65625zm24.929031 1.765625l-4.03125 -12.421875l-4.03125 12.421875l-2.40625 0l-4.921875 -15.453125l2.484375 0l3.78125 12.3125l4.0625 -12.3125l2.046875 0l4.0625 12.3125l3.78125 -12.3125l2.5 0l-4.9375 15.453125l-2.390625 0zm14.206802 -5.921875q-1.25 -1.046875 -1.25 -2.59375q0 -1.1875 0.6875 -2.15625q0.6875 -0.96875 2.21875 -2.0q1.546875 -0.984375 2.21875 -1.8125q0.671875 -0.84375 0.671875 -1.828125q0 -1.21875 -0.9375 -2.0937538q-0.921875 -0.890625 -2.84375 -0.890625q-3.109375 0 -5.09375 2.6250038l-1.59375 -1.7343788q2.5 -3.25 6.9375 -3.25q2.78125 0 4.53125 1.390625q1.75 1.390625 1.75 3.5625038q0 2.71875 -3.109375 4.828125q-1.828125 1.25 -2.46875 1.984375q-0.640625 0.734375 -0.640625 1.578125q0 0.890625 0.875 1.5625l-1.953125 0.828125zm0.671875 6.234375q-0.734375 0 -1.25 -0.5q-0.515625 -0.515625 -0.515625 -1.25q0 -0.734375 0.515625 -1.25q0.515625 -0.515625 1.25 -0.515625q0.734375 0 1.234375 0.515625q0.515625 0.515625 0.515625 1.25q0 0.734375 -0.515625 1.25q-0.5 0.5 -1.234375 0.5z" fill-rule="nonzero"></path><path fill="#000000" fill-opacity="0.0" d="m53.879265 118.18898l466.36218 0" fill-rule="nonzero"></path><path stroke="#ffffff" stroke-width="2.0" stroke-linejoin="round" stroke-linecap="butt" stroke-dasharray="2.0,6.0" d="m53.879265 118.18898l466.36218 0" fill-rule="nonzero"></path><path fill="#000000" fill-opacity="0.0" d="m45.391075 137.55643l469.98422 0l0 300.44095l-469.98422 0z" fill-rule="nonzero"></path><path fill="#ffffff" d="m70.9692 183.62892l0 11.375l-4.875 0l0 -11.375l-10.078125 0l0 -4.421875l10.078125 0l0 -10.921875l4.875 0l0 10.921875l10.015625 0l0 4.421875l-10.015625 0zm29.677124 17.359375q-7.5625 0 -11.84375 -5.09375q-4.28125 -5.09375 -4.28125 -14.171875q0 -8.671875 4.640625 -13.984375q4.65625 -5.328125 12.765625 -5.328125q6.5625 0 11.046875 3.859375l-3.59375 6.109375q-1.515625 -1.46875 -3.21875 -2.1875q-1.703125 -0.734375 -4.234375 -0.734375q-4.078125 0 -6.71875 3.0625q-2.625 3.046875 -2.625 7.53125l0.0625 0.78125q1.5625 -2.1875 4.15625 -3.5q2.609375 -1.3125 5.40625 -1.3125q5.546875 0 9.125 3.359375q3.59375 3.359375 3.59375 8.78125q0 5.609375 -4.015625 9.21875q-4.0 3.609375 -10.265625 3.609375zm-0.453125 -7.0625q2.96875 0 4.8125 -1.640625q1.859375 -1.65625 1.859375 -3.84375q0 -2.578125 -1.90625 -4.078125q-1.90625 -1.515625 -5.046875 -1.515625q-4.46875 0 -7.265625 3.53125q0.265625 3.359375 2.21875 5.453125q1.96875 2.09375 5.328125 2.09375zm33.82926 7.0625q-7.1718826 0 -11.312508 -5.484375q-4.140625 -5.484375 -4.140625 -13.828125q0 -5.4375 1.875 -9.890625q1.875 -4.453125 5.34375 -6.90625q3.4687576 -2.46875 8.234383 -2.46875q7.0625 0 11.25 5.40625q4.203125 5.390625 4.203125 13.859375q0 8.390625 -4.171875 13.859375q-4.171875 5.453125 -11.28125 5.453125zm0 -7.0625q3.46875 0 5.40625 -3.15625q1.9375 -3.171875 1.9375 -9.09375q0 -6.0625 -1.96875 -9.140625q-1.953125 -3.078125 -5.375 -3.078125q-3.46875 0 -5.4375 3.078125q-1.9531326 3.078125 -1.9531326 9.140625q0 6.046875 1.9218826 9.15625q1.9375 3.09375 5.46875 3.09375zm28.282501 -12.921875q-4.203125 0 -6.84375 -2.578125q-2.625 -2.578125 -2.625 -6.609375q0 -4.140625 2.625 -6.765625q2.640625 -2.640625 6.84375 -2.640625q4.140625 0 6.828125 2.640625q2.6875 2.625 2.6875 6.765625q0 4.03125 -2.65625 6.609375q-2.65625 2.578125 -6.859375 2.578125zm-3.640625 19.3125l23.859375 -37.359375l4.25 0l-23.90625 37.359375l-4.203125 0zm24.1875 0.671875q-4.3125 0 -6.890625 -2.65625q-2.5625 -2.65625 -2.5625 -6.578125q0 -4.15625 2.625 -6.78125q2.625 -2.625 6.828125 -2.625q4.140625 0 6.828125 2.625q2.6875 2.625 2.6875 6.78125q0 4.03125 -2.625 6.640625q-2.625 2.59375 -6.890625 2.59375zm-20.546875 -24.359375q1.953125 0 3.1875 -1.3125q1.234375 -1.3125 1.234375 -3.5q0 -2.359375 -1.234375 -3.671875q-1.234375 -1.3125 -3.1875 -1.3125q-1.90625 0 -3.171875 1.3125q-1.25 1.3125 -1.25 3.671875q0 2.1875 1.25 3.5q1.265625 1.3125 3.171875 1.3125zm20.546875 19.984375q1.96875 0 3.21875 -1.28125q1.265625 -1.28125 1.265625 -3.578125q0 -2.359375 -1.265625 -3.671875q-1.25 -1.3125 -3.21875 -1.3125q-1.953125 0 -3.1875 1.3125q-1.234375 1.3125 -1.234375 3.671875q0 2.296875 1.234375 3.578125q1.234375 1.28125 3.1875 1.28125zm37.852997 4.375q-7.671875 0 -7.671875 -7.390625l0 -14.109375l-4.46875 0l0 -6.21875l4.46875 0l0 -7.390625l7.171875 0l0 7.390625l5.484375 0l0 6.21875l-5.484375 0l0 12.203125q0 1.28125 0.640625 2.125q0.65625 0.84375 1.828125 0.84375q1.671875 0 2.46875 -0.78125l1.5 5.375q-1.84375 1.734375 -5.9375 1.734375zm22.568619 0q-6.375 0 -10.40625 -3.9375q-4.03125 -3.953125 -4.03125 -10.28125q0 -6.046875 4.0 -10.109375q4.0 -4.0625 10.0 -4.0625q5.984375 0 9.765625 4.125q3.7812347 4.109375 3.7812347 10.765625l0 1.578125l-20.10936 0q0.34375 2.5625 2.328125 4.421875q1.984375 1.84375 5.46875 1.84375q1.671875 0 3.734375 -0.703125q2.078125 -0.703125 3.484375 -1.984375l3.140625 4.59375q-2.015625 1.84375 -4.984375 2.796875q-2.96875 0.953125 -6.171875 0.953125zm6.21875 -16.75q-0.171875 -2.6875 -2.015625 -4.328125q-1.84375 -1.65625 -4.640625 -1.65625q-2.8125 0 -4.609375 1.71875q-1.78125 1.703125 -2.0625 4.265625l13.328125 0zm24.749252 16.75q-6.375 0 -10.40625 -3.9375q-4.03125 -3.953125 -4.03125 -10.28125q0 -6.046875 4.0 -10.109375q4.0 -4.0625 10.0 -4.0625q5.984375 0 9.765625 4.125q3.78125 4.109375 3.78125 10.765625l0 1.578125l-20.109375 0q0.34375 2.5625 2.328125 4.421875q1.984375 1.84375 5.46875 1.84375q1.671875 0 3.734375 -0.703125q2.078125 -0.703125 3.484375 -1.984375l3.140625 4.59375q-2.015625 1.84375 -4.984375 2.796875q-2.96875 0.953125 -6.171875 0.953125zm6.21875 -16.75q-0.171875 -2.6875 -2.015625 -4.328125q-1.84375 -1.65625 -4.640625 -1.65625q-2.8125 0 -4.609375 1.71875q-1.78125 1.703125 -2.0625 4.265625l13.328125 0zm30.296112 16.078125l0 -16.359375q0 -5.03125 -4.984375 -5.03125q-3.859375 0 -6.15625 3.1875l0 18.203125l-7.109375 0l0 -27.046875l7.109375 0l0 3.53125q1.28125 -1.578125 3.6875 -2.890625q2.421875 -1.3125 5.78125 -1.3125q4.46875 0 6.625 2.328125q2.15625 2.3125 2.15625 6.296875l0 19.09375l-7.109375 0zm23.908386 0.671875q-3.515625 0 -6.75 -1.109375q-3.21875 -1.125 -5.34375 -3.09375l3.078125 -4.984375q1.625 1.515625 4.3125 2.609375q2.6875 1.09375 5.046875 1.09375q4.53125 0 4.53125 -2.921875q0 -1.109375 -1.203125 -1.671875q-1.203125 -0.5625 -2.9375 -0.953125l-3.859375 -0.78125q-8.0625 -1.734375 -8.0625 -8.0625q0 -3.75 3.09375 -6.125q3.109375 -2.390625 7.984375 -2.390625q6.328125 0 10.921875 3.6875l-2.859375 4.875q-1.234375 -1.28125 -3.359375 -2.203125q-2.125 -0.921875 -4.640625 -0.921875q-1.96875 0 -3.125 0.78125q-1.140625 0.78125 -1.140625 1.90625q0 1.0 1.171875 1.515625q1.1875 0.5 2.96875 0.859375q1.796875 0.359375 3.875 0.84375q2.078125 0.46875 3.859375 1.421875q1.796875 0.953125 2.96875 2.578125q1.171875 1.625 1.171875 4.359375q0 3.921875 -3.1875 6.3125q-3.1875 2.375 -8.515625 2.375zm55.047974 -0.671875l-5.703125 -18.421875l-5.71875 18.421875l-7.609375 0l-8.234375 -27.046875l7.390625 0l5.046875 18.203125l5.9375 -18.203125l6.328125 0l5.921875 18.203125l5.046875 -18.203125l7.390625 0l-8.234375 27.046875l-7.5625 0zm22.86087 -29.953125q-1.75 0 -3.015625 -1.234375q-1.25 -1.234375 -1.25 -3.03125q0 -1.796875 1.25 -3.0q1.265625 -1.203125 3.015625 -1.203125q1.78125 0 3.015625 1.203125q1.234375 1.203125 1.234375 3.0q0 1.796875 -1.234375 3.03125q-1.234375 1.234375 -3.015625 1.234375zm-3.53125 29.953125l0 -27.046875l7.109375 0l0 27.046875l-7.109375 0zm14.167999 0l0 -37.359375l7.109375 0l0 37.359375l-7.109375 0zm14.167999 0l0 -37.359375l7.109375 0l0 37.359375l-7.109375 0z" fill-rule="nonzero"></path><path fill="#ffffff" d="m57.922325 267.31644l0 -27.04689l7.109375 0l0 3.6875q1.453125 -1.78125 3.78125 -3.0625q2.328125 -1.296875 4.84375 -1.296875l0 6.9375l-1.96875 -0.15625q-1.890625 0 -3.828125 0.890625q-1.9375 0.890625 -2.828125 2.1875l0 17.85939l-7.109375 0zm32.86313 0.671875q-6.375 0 -10.40625 -3.9375q-4.03125 -3.953125 -4.03125 -10.281265q0 -6.046875 4.0 -10.109375q4.0 -4.0625 10.0 -4.0625q5.984375 0 9.765625 4.125q3.78125 4.109375 3.78125 10.765625l0 1.5781403l-20.109375 0q0.34375 2.5625 2.328125 4.421875q1.984375 1.84375 5.46875 1.84375q1.671875 0 3.734375 -0.703125q2.078125 -0.703125 3.484375 -1.984375l3.140625 4.59375q-2.015625 1.84375 -4.984375 2.796875q-2.96875 0.953125 -6.171875 0.953125zm6.21875 -16.750015q-0.171875 -2.6875 -2.015625 -4.328125q-1.84375 -1.65625 -4.640625 -1.65625q-2.8125 0 -4.609375 1.71875q-1.78125 1.703125 -2.0625 4.265625l13.328125 0zm23.124252 27.04689q-3.515625 0 -6.296875 -0.890625q-2.765625 -0.890625 -5.34375 -3.140625l3.1875 -5.140625q3.03125 3.359375 8.453125 3.359375q3.53125 0 5.484375 -1.796875q1.96875 -1.796875 1.96875 -5.046875l0 -2.734375q-3.421875 4.25 -8.34375 4.25q-5.4375 0 -8.6875 -3.71875q-3.234375 -3.71875 -3.234375 -10.04689q0 -6.28125 3.21875 -10.03125q3.21875 -3.75 8.703125 -3.75q5.09375 0 8.34375 4.140625l0 -3.46875l7.1718826 0l0 25.20314q0 6.15625 -3.8125 9.484375q-3.8125076 3.328125 -10.812508 3.328125zm1.34375 -17.46875q1.796875 0 3.5 -0.890625q1.71875 -0.890625 2.609375 -2.1875l0 -8.73439q-0.890625 -1.34375 -2.609375 -2.203125q-1.703125 -0.875 -3.5 -0.875q-3.015625 0 -4.921875 1.96875q-1.90625 1.953125 -1.90625 5.484375q0 3.5156403 1.90625 5.4843903q1.90625 1.953125 4.921875 1.953125zm38.588127 6.5l0 -3.421875q-3.640625 4.09375 -9.515625 4.09375q-4.484375 0 -6.609375 -2.265625q-2.125 -2.265625 -2.125 -6.25l0 -19.20314l7.109375 0l0 16.406265q0 4.984375 4.984375 4.984375q3.640625 0 6.15625 -3.078125l0 -18.312515l7.109375 0l0 27.04689l-7.109375 0zm14.173996 0l0 -37.35939l7.109375 0l0 37.35939l-7.109375 0zm30.402374 0l0 -2.796875q-2.96875 3.46875 -8.5625 3.46875q-3.921875 0 -6.671875 -2.484375q-2.734375 -2.5 -2.734375 -6.46875q0 -3.9843903 2.59375 -6.3593903q2.609375 -2.390625 6.8125 -2.390625q5.828125 0 8.5625 3.3125l0 -3.640625q0 -2.078125 -1.625 -3.296875q-1.625 -1.234375 -4.3125 -1.234375q-4.46875 0 -7.890625 3.1875l-2.6875 -4.765625q4.921875 -4.25 11.8125 -4.25q5.71875 0 8.765625 2.65625q3.046875 2.65625 3.046875 7.59375l0 17.468765l-7.109375 0zm-5.703125 -4.140625q3.90625 0 5.703125 -2.359375l0 -3.359375q-1.796875 -2.3437653 -5.703125 -2.3437653q-2.140625 0 -3.625 1.0625153q-1.484375 1.0625 -1.484375 3.015625q0 1.90625 1.484375 2.953125q1.484375 1.03125 3.625 1.03125zm19.87674 4.140625l0 -27.04689l7.109375 0l0 3.6875q1.453125 -1.78125 3.78125 -3.0625q2.328125 -1.296875 4.84375 -1.296875l0 6.9375l-1.96875 -0.15625q-1.890625 0 -3.828125 0.890625q-1.9375 0.890625 -2.828125 2.1875l0 17.85939l-7.109375 0zm20.160004 0l0 -37.35939l7.109375 0l0 37.35939l-7.109375 0zm14.277374 4.203125q0.890625 0.4375 2.234375 0.4375q2.8593597 0 3.7499847 -1.953125l1.015625 -2.296875l-10.98436 -27.437515l7.6249847 0l7.0625 18.812515l7.046875 -18.812515l7.671875 0l-12.703125 31.468765q-1.515625 3.8125 -4.15625 5.15625q-2.625 1.34375 -6.0937347 1.390625q-1.96875 0 -3.53125 -0.390625l1.0625 -6.375zm66.68898 -4.203125l-5.703125 -18.42189l-5.71875 18.42189l-7.609375 0l-8.234375 -27.04689l7.390625 0l5.046875 18.20314l5.9375 -18.20314l6.328125 0l5.921875 18.20314l5.046875 -18.20314l7.390625 0l-8.234375 27.04689l-7.5625 0zm32.032776 0.671875q-6.375 0 -10.40625 -3.9375q-4.03125 -3.953125 -4.03125 -10.281265q0 -6.046875 4.0 -10.109375q4.0 -4.0625 10.0 -4.0625q5.984375 0 9.765625 4.125q3.78125 4.109375 3.78125 10.765625l0 1.5781403l-20.109375 0q0.34375 2.5625 2.328125 4.421875q1.984375 1.84375 5.46875 1.84375q1.671875 0 3.734375 -0.703125q2.078125 -0.703125 3.484375 -1.984375l3.140625 4.59375q-2.015625 1.84375 -4.984375 2.796875q-2.96875 0.953125 -6.171875 0.953125zm6.21875 -16.750015q-0.171875 -2.6875 -2.015625 -4.328125q-1.84375 -1.65625 -4.640625 -1.65625q-2.8125 0 -4.609375 1.71875q-1.78125 1.703125 -2.0625 4.265625l13.328125 0zm28.280518 16.07814l0 -2.796875q-2.96875 3.46875 -8.5625 3.46875q-3.921875 0 -6.671875 -2.484375q-2.734375 -2.5 -2.734375 -6.46875q0 -3.9843903 2.59375 -6.3593903q2.609375 -2.390625 6.8125 -2.390625q5.828125 0 8.5625 3.3125l0 -3.640625q0 -2.078125 -1.625 -3.296875q-1.625 -1.234375 -4.3125 -1.234375q-4.46875 0 -7.890625 3.1875l-2.6875 -4.765625q4.921875 -4.25 11.8125 -4.25q5.71875 0 8.765625 2.65625q3.046875 2.65625 3.046875 7.59375l0 17.468765l-7.109375 0zm-5.703125 -4.140625q3.90625 0 5.703125 -2.359375l0 -3.359375q-1.796875 -2.3437653 -5.703125 -2.3437653q-2.140625 0 -3.625 1.0625153q-1.484375 1.0625 -1.484375 3.015625q0 1.90625 1.484375 2.953125q1.484375 1.03125 3.625 1.03125zm19.87674 4.140625l0 -27.04689l7.109375 0l0 3.6875q1.453125 -1.78125 3.78125 -3.0625q2.328125 -1.296875 4.84375 -1.296875l0 6.9375l-1.96875 -0.15625q-1.890625 0 -3.828125 0.890625q-1.9375 0.890625 -2.828125 2.1875l0 17.85939l-7.109375 0zm50.730377 0l0 -2.796875q-2.96875 3.46875 -8.5625 3.46875q-3.921875 0 -6.671875 -2.484375q-2.734375 -2.5 -2.734375 -6.46875q0 -3.9843903 2.59375 -6.3593903q2.609375 -2.390625 6.8125 -2.390625q5.828125 0 8.5625 3.3125l0 -3.640625q0 -2.078125 -1.625 -3.296875q-1.625 -1.234375 -4.3125 -1.234375q-4.46875 0 -7.890625 3.1875l-2.6875 -4.765625q4.921875 -4.25 11.8125 -4.25q5.71875 0 8.765625 2.65625q3.046875 2.65625 3.046875 7.59375l0 17.468765l-7.109375 0zm-5.703125 -4.140625q3.90625 0 5.703125 -2.359375l0 -3.359375q-1.796875 -2.3437653 -5.703125 -2.3437653q-2.140625 0 -3.625 1.0625153q-1.484375 1.0625 -1.484375 3.015625q0 1.90625 1.484375 2.953125q1.484375 1.03125 3.625 1.03125z" fill-rule="nonzero"></path><path fill="#ffffff" d="m70.516075 334.9883q-6.375 0 -10.359375 -4.03125q-3.96875 -4.03125 -3.96875 -10.1875q0 -6.109375 3.96875 -10.140625q3.984375 -4.03125 10.359375 -4.03125q4.140625 0 6.75 1.515625q2.609375 1.5 3.953125 3.359375l-4.65625 4.359375q-1.953125 -2.90625 -5.703125 -2.90625q-3.25 0 -5.296875 2.15625q-2.046875 2.15625 -2.046875 5.6875q0 3.515625 2.046875 5.703125q2.046875 2.1875 5.296875 2.1875q3.640625 0 5.703125 -2.90625l4.65625 4.3125q-1.34375 1.890625 -3.953125 3.40625q-2.609375 1.515625 -6.75 1.515625zm27.897125 0q-6.28125 0 -10.28125 -4.03125q-4.0 -4.03125 -4.0 -10.1875q0 -6.171875 4.0 -10.171875q4.0 -4.0 10.28125 -4.0q6.265625 0 10.296875 4.0q4.03125 4.0 4.03125 10.171875q0 6.203125 -4.03125 10.21875q-4.03125 4.0 -10.296875 4.0zm0 -6.328125q3.078125 0 5.0 -2.203125q1.9375 -2.21875 1.9375 -5.6875q0 -3.359375 -1.9375 -5.59375q-1.921875 -2.25 -5.0 -2.25q-2.96875 0 -4.9375 2.15625q-1.953125 2.15625 -1.953125 5.6875q0 3.578125 1.953125 5.734375q1.96875 2.15625 4.9375 2.15625zm37.84713 5.65625l0 -16.359375q0 -5.03125 -4.984375 -5.03125q-3.8593826 0 -6.1562576 3.1875l0 18.203125l-7.109375 0l0 -27.046875l7.109375 0l0 3.53125q1.28125 -1.578125 3.6875076 -2.890625q2.421875 -1.3125 5.78125 -1.3125q4.46875 0 6.625 2.328125q2.15625 2.3125 2.15625 6.296875l0 19.09375l-7.109375 0zm32.423996 0l0 -16.359375q0 -5.03125 -4.984375 -5.03125q-3.859375 0 -6.15625 3.1875l0 18.203125l-7.109375 0l0 -27.046875l7.109375 0l0 3.53125q1.28125 -1.578125 3.6875 -2.890625q2.421875 -1.3125 5.78125 -1.3125q4.46875 0 6.625 2.328125q2.15625 2.3125 2.15625 6.296875l0 19.09375l-7.109375 0zm26.877121 0.671875q-6.375 0 -10.40625 -3.9375q-4.03125 -3.953125 -4.03125 -10.28125q0 -6.046875 4.0 -10.109375q4.0 -4.0625 10.0 -4.0625q5.984375 0 9.765625 4.125q3.78125 4.109375 3.78125 10.765625l0 1.578125l-20.109375 0q0.34375 2.5625 2.328125 4.421875q1.984375 1.84375 5.46875 1.84375q1.671875 0 3.734375 -0.703125q2.078125 -0.703125 3.484375 -1.984375l3.140625 4.59375q-2.015625 1.84375 -4.984375 2.796875q-2.96875 0.953125 -6.171875 0.953125zm6.21875 -16.75q-0.171875 -2.6875 -2.015625 -4.328125q-1.84375 -1.65625 -4.640625 -1.65625q-2.8125 0 -4.609375 1.71875q-1.78125 1.703125 -2.0625 4.265625l13.328125 0zm24.639877 16.75q-6.375 0 -10.359375 -4.03125q-3.96875 -4.03125 -3.96875 -10.1875q0 -6.109375 3.96875 -10.140625q3.984375 -4.03125 10.359375 -4.03125q4.140625 0 6.75 1.515625q2.609375 1.5 3.953125 3.359375l-4.65625 4.359375q-1.953125 -2.90625 -5.703125 -2.90625q-3.25 0 -5.296875 2.15625q-2.046875 2.15625 -2.046875 5.6875q0 3.515625 2.046875 5.703125q2.046875 2.1875 5.296875 2.1875q3.640625 0 5.703125 -2.90625l4.65625 4.3125q-1.34375 1.890625 -3.953125 3.40625q-2.609375 1.515625 -6.75 1.515625zm24.41275 0q-7.671875 0 -7.671875 -7.390625l0 -14.109375l-4.46875 0l0 -6.21875l4.46875 0l0 -7.390625l7.171875 0l0 7.390625l5.484375 0l0 6.21875l-5.484375 0l0 12.203125q0 1.28125 0.640625 2.125q0.65625 0.84375 1.828125 0.84375q1.671875 0 2.46875 -0.78125l1.5 5.375q-1.84375 1.734375 -5.9375 1.734375zm22.568604 0q-6.375 0 -10.40625 -3.9375q-4.03125 -3.953125 -4.03125 -10.28125q0 -6.046875 4.0 -10.109375q4.0 -4.0625 10.0 -4.0625q5.984375 0 9.765625 4.125q3.78125 4.109375 3.78125 10.765625l0 1.578125l-20.109375 0q0.34375 2.5625 2.328125 4.421875q1.984375 1.84375 5.46875 1.84375q1.671875 0 3.734375 -0.703125q2.078125 -0.703125 3.484375 -1.984375l3.140625 4.59375q-2.015625 1.84375 -4.984375 2.796875q-2.96875 0.953125 -6.171875 0.953125zm6.21875 -16.75q-0.171875 -2.6875 -2.015625 -4.328125q-1.84375 -1.65625 -4.640625 -1.65625q-2.8125 0 -4.609375 1.71875q-1.78125 1.703125 -2.0625 4.265625l13.328125 0zm30.639893 16.078125l0 -3.46875q-3.359375 4.140625 -8.34375 4.140625q-5.375 0 -8.6875 -3.859375q-3.296875 -3.875 -3.296875 -10.3125q0 -6.375 3.296875 -10.296875q3.3125 -3.921875 8.6875 -3.921875q5.09375 0 8.34375 4.140625l0 -13.78125l7.15625 0l0 37.359375l-7.15625 0zm-6.171875 -5.65625q1.796875 0 3.53125 -0.859375q1.734375 -0.875 2.640625 -2.21875l0 -9.578125q-0.90625 -1.34375 -2.640625 -2.203125q-1.734375 -0.875 -3.53125 -0.875q-3.015625 0 -4.921875 2.1875q-1.90625 2.171875 -1.90625 5.703125q0 3.421875 1.84375 5.640625q1.859375 2.203125 4.984375 2.203125zm53.323883 5.65625l0 -3.46875q-3.359375 4.140625 -8.34375 4.140625q-5.375 0 -8.6875 -3.859375q-3.296875 -3.875 -3.296875 -10.3125q0 -6.375 3.296875 -10.296875q3.3125 -3.921875 8.6875 -3.921875q5.09375 0 8.34375 4.140625l0 -13.78125l7.15625 0l0 37.359375l-7.15625 0zm-6.171875 -5.65625q1.796875 0 3.53125 -0.859375q1.734375 -0.875 2.640625 -2.21875l0 -9.578125q-0.90625 -1.34375 -2.640625 -2.203125q-1.734375 -0.875 -3.53125 -0.875q-3.015625 0 -4.921875 2.1875q-1.90625 2.171875 -1.90625 5.703125q0 3.421875 1.84375 5.640625q1.859375 2.203125 4.984375 2.203125zm33.09723 6.328125q-6.375 0 -10.40625 -3.9375q-4.03125 -3.953125 -4.03125 -10.28125q0 -6.046875 4.0 -10.109375q4.0 -4.0625 10.0 -4.0625q5.984375 0 9.765625 4.125q3.78125 4.109375 3.78125 10.765625l0 1.578125l-20.109375 0q0.34375 2.5625 2.328125 4.421875q1.984375 1.84375 5.46875 1.84375q1.671875 0 3.734375 -0.703125q2.078125 -0.703125 3.484375 -1.984375l3.140625 4.59375q-2.015625 1.84375 -4.984375 2.796875q-2.96875 0.953125 -6.171875 0.953125zm6.21875 -16.75q-0.171875 -2.6875 -2.015625 -4.328125q-1.84375 -1.65625 -4.640625 -1.65625q-2.8125 0 -4.609375 1.71875q-1.78125 1.703125 -2.0625 4.265625l13.328125 0zm19.046143 16.078125l-10.875 -27.046875l7.625 0l7.0625 18.8125l7.046875 -18.8125l7.671875 0l-10.859375 27.046875l-7.671875 0zm25.259247 -29.953125q-1.75 0 -3.015625 -1.234375q-1.25 -1.234375 -1.25 -3.03125q0 -1.796875 1.25 -3.0q1.265625 -1.203125 3.015625 -1.203125q1.78125 0 3.015625 1.203125q1.234375 1.203125 1.234375 3.0q0 1.796875 -1.234375 3.03125q-1.234375 1.234375 -3.015625 1.234375zm-3.53125 29.953125l0 -27.046875l7.109375 0l0 27.046875l-7.109375 0zm26.76175 0.671875q-6.375 0 -10.359375 -4.03125q-3.96875 -4.03125 -3.96875 -10.1875q0 -6.109375 3.96875 -10.140625q3.984375 -4.03125 10.359375 -4.03125q4.140625 0 6.75 1.515625q2.609375 1.5 3.953125 3.359375l-4.65625 4.359375q-1.953125 -2.90625 -5.703125 -2.90625q-3.25 0 -5.296875 2.15625q-2.046875 2.15625 -2.046875 5.6875q0 3.515625 2.046875 5.703125q2.046875 2.1875 5.296875 2.1875q3.640625 0 5.703125 -2.90625l4.65625 4.3125q-1.34375 1.890625 -3.953125 3.40625q-2.609375 1.515625 -6.75 1.515625zm28.053375 0q-6.375 0 -10.40625 -3.9375q-4.03125 -3.953125 -4.03125 -10.28125q0 -6.046875 4.0 -10.109375q4.0 -4.0625 10.0 -4.0625q5.984375 0 9.765625 4.125q3.78125 4.109375 3.78125 10.765625l0 1.578125l-20.109375 0q0.34375 2.5625 2.328125 4.421875q1.984375 1.84375 5.46875 1.84375q1.671875 0 3.734375 -0.703125q2.078125 -0.703125 3.484375 -1.984375l3.140625 4.59375q-2.015625 1.84375 -4.984375 2.796875q-2.96875 0.953125 -6.171875 0.953125zm6.21875 -16.75q-0.171875 -2.6875 -2.015625 -4.328125q-1.84375 -1.65625 -4.640625 -1.65625q-2.8125 0 -4.609375 1.71875q-1.78125 1.703125 -2.0625 4.265625l13.328125 0z" fill-rule="nonzero"></path><path fill="#ffffff" d="m65.0317 392.62894q0.890625 1.296875 2.625 2.171875q1.75 0.859375 3.484375 0.859375q3.125 0 5.0 -2.15625q1.875 -2.15625 1.875 -5.6875q0 -3.53125 -1.875 -5.703125q-1.875 -2.1875 -5.0 -2.1875q-1.734375 0 -3.484375 0.90625q-1.734375 0.890625 -2.625 2.234375l0 9.5625zm-7.109375 8.6875l0 -37.359375l7.109375 0l0 13.78125q3.25 -4.140625 8.34375 -4.140625q5.375 0 8.671875 3.921875q3.3125 3.921875 3.3125 10.296875q0 6.4375 -3.3125 10.3125q-3.296875 3.859375 -8.671875 3.859375q-4.984375 0 -8.34375 -4.140625l0 3.46875l-7.109375 0zm32.92537 4.203125q0.890625 0.4375 2.234375 0.4375q2.859375 0 3.75 -1.953125l1.015625 -2.296875l-10.984375 -27.4375l7.625 0l7.0625 18.8125l7.046875 -18.8125l7.671875 0l-12.703125 31.46875q-1.515625 3.8125 -4.15625 5.15625q-2.625 1.34375 -6.09375 1.390625q-1.96875 0 -3.53125 -0.390625l1.0625 -6.375zm42.048378 -4.203125l0 -6.21875q13.21875 -9.859375 16.5 -13.296875q3.28125 -3.4375 3.28125 -6.46875q0 -2.1875 -1.6875 -3.53125q-1.671875 -1.34375 -4.359375 -1.34375q-5.828125 0 -10.03125 4.3125l-4.53125 -5.265625q2.734375 -3.1875 6.59375 -4.640625q3.875 -1.453125 7.796875 -1.453125q6.328125 0 10.296875 3.3125q3.984375 3.296875 3.984375 8.609375q0 4.25 -3.390625 8.6875q-3.390625 4.421875 -11.5625 10.296875l15.234375 0l0 7.0l-28.125 0zm48.334366 0.671875q-7.171875 0 -11.3125 -5.484375q-4.140625 -5.484375 -4.140625 -13.828125q0 -5.4375 1.875 -9.890625q1.875 -4.453125 5.34375 -6.90625q3.46875 -2.46875 8.234375 -2.46875q7.0625 0 11.25 5.40625q4.203125 5.390625 4.203125 13.859375q0 8.390625 -4.171875 13.859375q-4.171875 5.453125 -11.28125 5.453125zm0 -7.0625q3.46875 0 5.40625 -3.15625q1.9375 -3.171875 1.9375 -9.09375q0 -6.0625 -1.96875 -9.140625q-1.953125 -3.078125 -5.375 -3.078125q-3.46875 0 -5.4375 3.078125q-1.953125 3.078125 -1.953125 9.140625q0 6.046875 1.921875 9.15625q1.9375 3.09375 5.46875 3.09375zm28.735626 6.390625l0 -27.109375l-6.21875 6.328125l-4.546875 -4.75l11.765625 -11.828125l6.9375 0l0 37.359375l-7.9375 0zm29.672241 0.671875q-7.5625 0 -11.84375 -5.09375q-4.28125 -5.09375 -4.28125 -14.171875q0 -8.671875 4.640625 -13.984375q4.65625 -5.328125 12.765625 -5.328125q6.5625 0 11.046875 3.859375l-3.59375 6.109375q-1.515625 -1.46875 -3.21875 -2.1875q-1.703125 -0.734375 -4.234375 -0.734375q-4.078125 0 -6.71875 3.0625q-2.625 3.046875 -2.625 7.53125l0.0625 0.78125q1.5625 -2.1875 4.15625 -3.5q2.609375 -1.3125 5.40625 -1.3125q5.546875 0 9.125 3.359375q3.59375 3.359375 3.59375 8.78125q0 5.609375 -4.015625 9.21875q-4.0 3.609375 -10.265625 3.609375zm-0.453125 -7.0625q2.96875 0 4.8125 -1.640625q1.859375 -1.65625 1.859375 -3.84375q0 -2.578125 -1.90625 -4.078125q-1.90625 -1.515625 -5.046875 -1.515625q-4.46875 0 -7.265625 3.53125q0.265625 3.359375 2.21875 5.453125q1.96875 2.09375 5.328125 2.09375z" fill-rule="nonzero"></path><path fill="#63d297" d="m563.2329 90.76323l28.724426 0l0 28.724403l-28.724426 0z" fill-rule="nonzero"></path><path fill="#63d297" d="m598.62305 90.76323l28.724365 0l0 28.724403l-28.724365 0z" fill-rule="nonzero"></path><path fill="#63d297" d="m563.2329 126.153175l28.724426 0l0 28.724403l-28.724426 0z" fill-rule="nonzero"></path><path fill="#63d297" d="m598.62305 126.153175l28.724365 0l0 28.724403l-28.724365 0z" fill-rule="nonzero"></path><path fill="#63d297" d="m634.0131 90.76323l28.724426 0l0 28.724403l-28.724426 0z" fill-rule="nonzero"></path><path fill="#63d297" d="m669.40295 90.76323l28.724365 0l0 28.724403l-28.724365 0z" fill-rule="nonzero"></path><path fill="#63d297" d="m634.0131 126.153175l28.724426 0l0 28.724403l-28.724426 0z" fill-rule="nonzero"></path><path fill="#63d297" d="m669.40295 126.153175l28.724365 0l0 28.724403l-28.724365 0z" fill-rule="nonzero"></path><path fill="#63d297" d="m704.79297 90.76323l28.724426 0l0 28.724403l-28.724426 0z" fill-rule="nonzero"></path><path fill="#63d297" d="m740.18304 90.76323l28.724426 0l0 28.724403l-28.724426 0z" fill-rule="nonzero"></path><path fill="#63d297" d="m704.79297 126.153175l28.724426 0l0 28.724403l-28.724426 0z" fill-rule="nonzero"></path><path fill="#63d297" d="m740.18304 126.153175l28.724426 0l0 28.724403l-28.724426 0z" fill-rule="nonzero"></path><path fill="#63d297" d="m775.57294 90.76323l28.724365 0l0 28.724403l-28.724365 0z" fill-rule="nonzero"></path><path fill="#63d297" d="m810.963 90.76323l28.724426 0l0 28.724403l-28.724426 0z" fill-rule="nonzero"></path><path fill="#63d297" d="m775.57294 126.153175l28.724365 0l0 28.724403l-28.724365 0z" fill-rule="nonzero"></path><path fill="#63d297" d="m810.963 126.153175l28.724426 0l0 28.724403l-28.724426 0z" fill-rule="nonzero"></path><path fill="#63d297" d="m846.3531 90.76323l28.724426 0l0 28.724403l-28.724426 0z" fill-rule="nonzero"></path><path fill="#63d297" d="m881.74286 90.76323l28.724426 0l0 28.724403l-28.724426 0z" fill-rule="nonzero"></path><path fill="#63d297" d="m846.3531 126.153175l28.724426 0l0 28.724403l-28.724426 0z" fill-rule="nonzero"></path><path fill="#63d297" d="m881.74286 126.153175l28.724426 0l0 28.724403l-28.724426 0z" fill-rule="nonzero"></path><path fill="#63d297" d="m563.2329 161.54326l28.724426 0l0 28.724411l-28.724426 0z" fill-rule="nonzero"></path><path fill="#63d297" d="m598.62305 161.54326l28.724365 0l0 28.724411l-28.724365 0z" fill-rule="nonzero"></path><path fill="#63d297" d="m563.2329 196.93321l28.724426 0l0 28.724411l-28.724426 0z" fill-rule="nonzero"></path><path fill="#63d297" d="m598.62305 196.93321l28.724365 0l0 28.724411l-28.724365 0z" fill-rule="nonzero"></path><path fill="#63d297" d="m634.0131 161.54326l28.724426 0l0 28.724411l-28.724426 0z" fill-rule="nonzero"></path><path fill="#63d297" d="m669.40295 161.54326l28.724365 0l0 28.724411l-28.724365 0z" fill-rule="nonzero"></path><path fill="#63d297" d="m634.0131 196.93321l28.724426 0l0 28.724411l-28.724426 0z" fill-rule="nonzero"></path><path fill="#63d297" d="m669.40295 196.93321l28.724365 0l0 28.724411l-28.724365 0z" fill-rule="nonzero"></path><path fill="#63d297" d="m704.79297 161.54326l28.724426 0l0 28.724411l-28.724426 0z" fill-rule="nonzero"></path><path fill="#63d297" d="m740.18304 161.54326l28.724426 0l0 28.724411l-28.724426 0z" fill-rule="nonzero"></path><path fill="#63d297" d="m704.79297 196.93321l28.724426 0l0 28.724411l-28.724426 0z" fill-rule="nonzero"></path><path fill="#63d297" d="m740.18304 196.93321l28.724426 0l0 28.724411l-28.724426 0z" fill-rule="nonzero"></path><path fill="#63d297" d="m775.57294 161.54326l28.724365 0l0 28.724411l-28.724365 0z" fill-rule="nonzero"></path><path fill="#63d297" d="m810.963 161.54326l28.724426 0l0 28.724411l-28.724426 0z" fill-rule="nonzero"></path><path fill="#63d297" d="m775.57294 196.93321l28.724365 0l0 28.724411l-28.724365 0z" fill-rule="nonzero"></path><path fill="#63d297" d="m810.963 196.93321l28.724426 0l0 28.724411l-28.724426 0z" fill-rule="nonzero"></path><path fill="#63d297" d="m846.3531 161.54326l28.724426 0l0 28.724411l-28.724426 0z" fill-rule="nonzero"></path><path fill="#63d297" d="m881.74286 161.54326l28.724426 0l0 28.724411l-28.724426 0z" fill-rule="nonzero"></path><path fill="#63d297" d="m846.3531 196.93321l28.724426 0l0 28.724411l-28.724426 0z" fill-rule="nonzero"></path><path fill="#63d297" d="m881.74286 196.93321l28.724426 0l0 28.724411l-28.724426 0z" fill-rule="nonzero"></path><path fill="#63d297" d="m563.2329 232.32317l28.724426 0l0 28.724411l-28.724426 0z" fill-rule="nonzero"></path><path fill="#63d297" d="m598.62305 232.32317l28.724365 0l0 28.724411l-28.724365 0z" fill-rule="nonzero"></path><path fill="#63d297" d="m563.2329 267.71323l28.724426 0l0 28.724426l-28.724426 0z" fill-rule="nonzero"></path><path fill="#63d297" d="m598.62305 267.71323l28.724365 0l0 28.724426l-28.724365 0z" fill-rule="nonzero"></path><path fill="#63d297" d="m634.0131 232.32317l28.724426 0l0 28.724411l-28.724426 0z" fill-rule="nonzero"></path><path fill="#63d297" d="m669.40295 232.32317l28.724365 0l0 28.724411l-28.724365 0z" fill-rule="nonzero"></path><path fill="#63d297" d="m634.0131 267.71323l28.724426 0l0 28.724426l-28.724426 0z" fill-rule="nonzero"></path><path fill="#63d297" d="m669.40295 267.71323l28.724365 0l0 28.724426l-28.724365 0z" fill-rule="nonzero"></path><path fill="#63d297" d="m704.79297 232.32317l28.724426 0l0 28.724411l-28.724426 0z" fill-rule="nonzero"></path><path fill="#63d297" d="m740.18304 232.32317l28.724426 0l0 28.724411l-28.724426 0z" fill-rule="nonzero"></path><path fill="#63d297" d="m704.79297 267.71323l28.724426 0l0 28.724426l-28.724426 0z" fill-rule="nonzero"></path><path fill="#63d297" d="m740.18304 267.71323l28.724426 0l0 28.724426l-28.724426 0z" fill-rule="nonzero"></path><path fill="#63d297" d="m775.57294 232.32317l28.724365 0l0 28.724411l-28.724365 0z" fill-rule="nonzero"></path><path fill="#63d297" d="m810.963 232.32317l28.724426 0l0 28.724411l-28.724426 0z" fill-rule="nonzero"></path><path fill="#63d297" d="m775.57294 267.71323l28.724365 0l0 28.724426l-28.724365 0z" fill-rule="nonzero"></path><path fill="#63d297" d="m810.963 267.71323l28.724426 0l0 28.724426l-28.724426 0z" fill-rule="nonzero"></path><path fill="#63d297" d="m846.3531 232.32317l28.724426 0l0 28.724411l-28.724426 0z" fill-rule="nonzero"></path><path fill="#63d297" d="m881.74286 232.32317l28.724426 0l0 28.724411l-28.724426 0z" fill-rule="nonzero"></path><path fill="#63d297" d="m846.3531 267.71323l28.724426 0l0 28.724426l-28.724426 0z" fill-rule="nonzero"></path><path fill="#63d297" d="m881.74286 267.71323l28.724426 0l0 28.724426l-28.724426 0z" fill-rule="nonzero"></path><path fill="#63d297" d="m563.2329 303.10318l28.724426 0l0 28.724426l-28.724426 0z" fill-rule="nonzero"></path><path fill="#63d297" d="m598.62305 303.10318l28.724365 0l0 28.724426l-28.724365 0z" fill-rule="nonzero"></path><path fill="#63d297" d="m634.0131 303.10318l28.724426 0l0 28.724426l-28.724426 0z" fill-rule="nonzero"></path><path fill="#ffffff" d="m563.2329 338.49313l28.724426 0l0 28.724396l-28.724426 0z" fill-rule="nonzero"></path><path fill="#ffffff" d="m598.62305 338.49313l28.724365 0l0 28.724396l-28.724365 0z" fill-rule="nonzero"></path><path fill="#ffffff" d="m669.40295 303.10318l28.724365 0l0 28.724426l-28.724365 0z" fill-rule="nonzero"></path><path fill="#ffffff" d="m634.0131 338.49313l28.724426 0l0 28.724396l-28.724426 0z" fill-rule="nonzero"></path><path fill="#ffffff" d="m669.40295 338.49313l28.724365 0l0 28.724396l-28.724365 0z" fill-rule="nonzero"></path><path fill="#ffffff" d="m704.79297 303.10318l28.724426 0l0 28.724426l-28.724426 0z" fill-rule="nonzero"></path><path fill="#ffffff" d="m740.18304 303.10318l28.724426 0l0 28.724426l-28.724426 0z" fill-rule="nonzero"></path><path fill="#ffffff" d="m704.79297 338.49313l28.724426 0l0 28.724396l-28.724426 0z" fill-rule="nonzero"></path><path fill="#ffffff" d="m740.18304 338.49313l28.724426 0l0 28.724396l-28.724426 0z" fill-rule="nonzero"></path><path fill="#ffffff" d="m775.57294 303.10318l28.724365 0l0 28.724426l-28.724365 0z" fill-rule="nonzero"></path><path fill="#ffffff" d="m810.963 303.10318l28.724426 0l0 28.724426l-28.724426 0z" fill-rule="nonzero"></path><path fill="#ffffff" d="m775.57294 338.49313l28.724365 0l0 28.724396l-28.724365 0z" fill-rule="nonzero"></path><path fill="#ffffff" d="m810.963 338.49313l28.724426 0l0 28.724396l-28.724426 0z" fill-rule="nonzero"></path><path fill="#ffffff" d="m846.3531 303.10318l28.724426 0l0 28.724426l-28.724426 0z" fill-rule="nonzero"></path><path fill="#ffffff" d="m881.74286 303.10318l28.724426 0l0 28.724426l-28.724426 0z" fill-rule="nonzero"></path><path fill="#ffffff" d="m846.3531 338.49313l28.724426 0l0 28.724396l-28.724426 0z" fill-rule="nonzero"></path><path fill="#ffffff" d="m881.74286 338.49313l28.724426 0l0 28.724396l-28.724426 0z" fill-rule="nonzero"></path><path fill="#ffffff" d="m563.2329 373.8832l28.724426 0l0 28.724396l-28.724426 0z" fill-rule="nonzero"></path><path fill="#ffffff" d="m598.62305 373.8832l28.724365 0l0 28.724396l-28.724365 0z" fill-rule="nonzero"></path><path fill="#ffffff" d="m563.2329 409.27316l28.724426 0l0 28.724426l-28.724426 0z" fill-rule="nonzero"></path><path fill="#ffffff" d="m598.62305 409.27316l28.724365 0l0 28.724426l-28.724365 0z" fill-rule="nonzero"></path><path fill="#ffffff" d="m634.0131 373.8832l28.724426 0l0 28.724396l-28.724426 0z" fill-rule="nonzero"></path><path fill="#ffffff" d="m669.40295 373.8832l28.724365 0l0 28.724396l-28.724365 0z" fill-rule="nonzero"></path><path fill="#ffffff" d="m634.0131 409.27316l28.724426 0l0 28.724426l-28.724426 0z" fill-rule="nonzero"></path><path fill="#ffffff" d="m669.40295 409.27316l28.724365 0l0 28.724426l-28.724365 0z" fill-rule="nonzero"></path><path fill="#ffffff" d="m704.79297 373.8832l28.724426 0l0 28.724396l-28.724426 0z" fill-rule="nonzero"></path><path fill="#ffffff" d="m740.18304 373.8832l28.724426 0l0 28.724396l-28.724426 0z" fill-rule="nonzero"></path><path fill="#ffffff" d="m704.79297 409.27316l28.724426 0l0 28.724426l-28.724426 0z" fill-rule="nonzero"></path><path fill="#ffffff" d="m740.18304 409.27316l28.724426 0l0 28.724426l-28.724426 0z" fill-rule="nonzero"></path><path fill="#ffffff" d="m775.57294 373.8832l28.724365 0l0 28.724396l-28.724365 0z" fill-rule="nonzero"></path><path fill="#ffffff" d="m810.963 373.8832l28.724426 0l0 28.724396l-28.724426 0z" fill-rule="nonzero"></path><path fill="#ffffff" d="m775.57294 409.27316l28.724365 0l0 28.724426l-28.724365 0z" fill-rule="nonzero"></path><path fill="#ffffff" d="m810.963 409.27316l28.724426 0l0 28.724426l-28.724426 0z" fill-rule="nonzero"></path><path fill="#ffffff" d="m846.3531 373.8832l28.724426 0l0 28.724396l-28.724426 0z" fill-rule="nonzero"></path><path fill="#ffffff" d="m881.74286 373.8832l28.724426 0l0 28.724396l-28.724426 0z" fill-rule="nonzero"></path><path fill="#ffffff" d="m846.3531 409.27316l28.724426 0l0 28.724426l-28.724426 0z" fill-rule="nonzero"></path><path fill="#ffffff" d="m881.74286 409.27316l28.724426 0l0 28.724426l-28.724426 0z" fill-rule="nonzero"></path></g></g></svg>

