<?xml version="1.0" standalone="yes"?>

<svg version="1.1" viewBox="0.0 0.0 960.0 540.0" fill="none" stroke="none" stroke-linecap="square" stroke-miterlimit="10" xmlns="http://www.w3.org/2000/svg" xmlns:xlink="http://www.w3.org/1999/xlink"><clipPath id="gc6f8badac_0_20.0"><path d="m0 0l960.0 0l0 540.0l-960.0 0l0 -540.0z" clip-rule="nonzero"></path></clipPath><g clip-path="url(#gc6f8badac_0_20.0)"><g id="gc6f8badac_0_20"><path fill="#ffffff" d="m0 0l960.0 0l0 540.0l-960.0 0l0 -540.0z" fill-rule="nonzero"></path><path fill="#ffffff" d="m0 0l960.0 0l0 540.0l-960.0 0z" fill-rule="nonzero"></path><path fill="#202729" d="m480.0 0.007874016l480.0 0l0 540.0l-480.0 0z" fill-rule="nonzero"></path><path fill="#000000" fill-opacity="0.0" d="m528.04987 471.9685l49.165344 0" fill-rule="nonzero"></path><path stroke="#63d297" stroke-width="2.0" stroke-linejoin="round" stroke-linecap="butt" d="m528.04987 471.9685l49.165344 0" fill-rule="nonzero"></path><path fill="#000000" fill-opacity="0.0" d="m27.874016 126.5958l424.6929 0l0 158.48819l-424.6929 0z" fill-rule="nonzero"></path><path fill="#202729" d="m102.68583 262.844l0 -33.20314l-11.8125 0l0 -4.15625l28.328125 0l0 4.15625l-11.875 0l0 33.20314l-4.640625 0zm40.82624 0l0 -17.812515q0 -3.015625 -1.4375 -4.578125q-1.421875 -1.578125 -4.671875 -1.578125q-2.296875 0 -4.453125 1.1875q-2.15625 1.171875 -3.546875 3.015625l0 19.76564l-4.2031174 0l0 -37.35939l4.2031174 0l0 14.234375q1.78125 -2.078125 4.359375 -3.328125q2.578125 -1.265625 5.328125 -1.265625q8.625 0 8.625 8.625l0 19.093765l-4.203125 0zm24.802628 0.671875q-6.109375 0 -9.953125 -3.96875q-3.828125 -3.9843903 -3.828125 -10.250015q0 -6.0 3.8125 -10.078125q3.8125 -4.09375 9.515625 -4.09375q5.828125 0 9.40625 4.03125q3.59375 4.03125 3.59375 10.46875l0 1.0625l-21.890625 0q0.21875 4.140625 2.984375 6.7500153q2.78125 2.609375 6.75 2.609375q4.9375 0 8.34375 -3.421875l2.015625 2.75q-4.140625 4.140625 -10.75 4.140625zm8.40625 -15.906265q0 -3.75 -2.46875 -6.375q-2.46875 -2.640625 -6.4375 -2.640625q-3.75 0 -6.25 2.640625q-2.484375 2.625 -2.59375 6.375l17.75 0zm33.929123 15.906265q-6.890625 0 -10.921875 -4.25l2.1875 -3.03125q1.34375 1.5625 3.71875 2.71875q2.390625 1.140625 5.1875 1.140625q3.140625 0 4.75 -1.3125q1.625 -1.3125 1.625 -3.3281403q0 -1.796875 -1.765625 -2.828125q-1.75 -1.03125 -6.578125 -2.15625q-4.078125 -0.84375 -6.234375 -2.65625q-2.15625 -1.828125 -2.15625 -4.90625q0 -3.421875 2.734375 -5.59375q2.75 -2.1875 7.34375 -2.1875q6.109375 0 10.03125 3.921875l-1.96875 2.90625q-1.234375 -1.453125 -3.34375 -2.421875q-2.09375 -0.984375 -4.71875 -0.984375q-2.796875 0 -4.40625 1.234375q-1.59375 1.21875 -1.59375 3.015625q0 1.625 1.796875 2.578125q1.796875 0.953125 6.609375 1.953125q4.09375 0.953125 6.21875 2.890625q2.125 1.921875 2.125 5.125q0 3.7500153 -2.921875 5.9687653q-2.90625 2.203125 -7.71875 2.203125zm29.289993 0q-5.875 0 -9.640625 -4.0q-3.75 -4.0156403 -3.75 -10.218765q0 -6.28125 3.75 -10.21875q3.765625 -3.953125 9.640625 -3.953125q5.875 0 9.625 3.953125q3.765625 3.9375 3.765625 10.21875q0 6.203125 -3.765625 10.218765q-3.75 4.0 -9.625 4.0zm0 -3.75q3.921875 0 6.4375 -2.9375q2.515625 -2.9375153 2.515625 -7.5312653q0 -4.546875 -2.515625 -7.484375q-2.515625 -2.9375 -6.4375 -2.9375q-3.921875 0 -6.46875 2.921875q-2.546875 2.90625 -2.546875 7.5q0 4.640625 2.515625 7.5625153q2.53125 2.90625 6.5 2.90625zm20.219513 3.078125l0 -37.35939l4.203125 0l0 37.35939l-4.203125 0zm30.850006 0l0 -3.8125q-1.5625 1.796875 -4.09375 3.140625q-2.515625 1.34375 -5.53125 1.34375q-8.625 0 -8.625 -8.625015l0 -19.09375l4.203125 0l0 17.8125q0 3.1875153 1.453125 4.6718903q1.453125 1.484375 4.59375 1.484375q2.453125 0 4.640625 -1.234375q2.1875 -1.234375 3.359375 -2.8593903l0 -19.875l4.203125 0l0 27.04689l-4.203125 0zm19.434143 0.671875q-5.984375 0 -5.984375 -6.328125l0 -17.70314l-4.484375 0l0 -3.6875l4.484375 0l0 -7.390625l4.1875 0l0 7.390625l5.5 0l0 3.6875l-5.5 0l0 16.812515q0 1.5 0.671875 2.484375q0.671875 0.984375 2.078125 0.984375q1.734375 0 2.859375 -1.125l1.234375 3.140625q-1.734375 1.734375 -5.046875 1.734375zm11.698364 -31.57814q-1.109375 0 -1.953125 -0.8125q-0.84375 -0.8125 -0.84375 -2.0q0 -1.171875 0.84375 -2.0q0.84375 -0.84375 1.953125 -0.84375q1.1875 0 2.015625 0.84375q0.84375 0.828125 0.84375 2.0q0 1.1875 -0.84375 2.0q-0.828125 0.8125 -2.015625 0.8125zm-2.0625 30.906265l0 -27.04689l4.203125 0l0 27.04689l-4.203125 0zm24.412506 0.671875q-5.875 0 -9.640625 -4.0q-3.75 -4.0156403 -3.75 -10.218765q0 -6.28125 3.75 -10.21875q3.765625 -3.953125 9.640625 -3.953125q5.875 0 9.625 3.953125q3.765625 3.9375 3.765625 10.21875q0 6.203125 -3.765625 10.218765q-3.75 4.0 -9.625 4.0zm0 -3.75q3.921875 0 6.4375 -2.9375q2.515625 -2.9375153 2.515625 -7.5312653q0 -4.546875 -2.515625 -7.484375q-2.515625 -2.9375 -6.4375 -2.9375q-3.921875 0 -6.46875 2.921875q-2.546875 2.90625 -2.546875 7.5q0 4.640625 2.515625 7.5625153q2.53125 2.90625 6.5 2.90625zm38.469513 3.078125l0 -17.70314q0 -3.578125 -1.65625 -4.921875q-1.640625 -1.34375 -4.390625 -1.34375q-2.34375 0 -4.625 1.265625q-2.265625 1.25 -3.375 2.9375l0 19.76564l-4.203125 0l0 -27.04689l4.203125 0l0 3.921875q1.734375 -2.015625 4.28125 -3.296875q2.546875 -1.296875 5.34375 -1.296875q8.625 0 8.625 8.734375l0 18.98439l-4.203125 0z" fill-rule="nonzero"></path><path fill="#000000" fill-opacity="0.0" d="m27.874016 290.70877l424.6929 0l0 141.25983l-424.6929 0z" fill-rule="nonzero"></path><path fill="#616161" d="m143.4626 326.58878l0 -15.375l-6.359375 15.375l-0.9375 0l-6.328125 -15.375l0 15.375l-2.328125 0l0 -18.671875l3.328125 0l5.796875 14.046875l5.828125 -14.046875l3.328125 0l0 18.671875l-2.328125 0zm15.073975 0l0 -1.546875q-1.71875 1.890625 -4.484375 1.890625q-2.046875 0 -3.390625 -1.28125q-1.34375 -1.296875 -1.34375 -3.203125q0 -1.96875 1.328125 -3.203125q1.328125 -1.25 3.40625 -1.25q2.90625 0 4.484375 1.84375l0 -2.4375q0 -1.375 -0.96875 -2.109375q-0.96875 -0.75 -2.453125 -0.75q-2.375 0 -4.140625 1.890625l-0.984375 -1.46875q2.15625 -2.234375 5.40625 -2.234375q2.484375 0 3.859375 1.203125q1.375 1.203125 1.375 3.359375l0 9.296875l-2.09375 0zm-3.734375 -1.171875q2.5 0 3.734375 -1.6875l0 -2.546875q-1.234375 -1.671875 -3.734375 -1.671875q-1.484375 0 -2.40625 0.828125q-0.921875 0.8125 -0.921875 2.140625q0 1.28125 0.921875 2.109375q0.921875 0.828125 2.40625 0.828125zm19.240417 1.171875l-4.875 -6.078125l-2.234375 2.21875l0 3.859375l-2.109375 0l0 -18.671875l2.109375 0l0 12.34375l7.109375 -7.203125l2.65625 0l-5.984375 6.140625l6.015625 7.390625l-2.6875 0zm11.282684 0.34375q-3.046875 0 -4.96875 -1.984375q-1.921875 -2.0 -1.921875 -5.140625q0 -2.984375 1.90625 -5.03125q1.90625 -2.046875 4.765625 -2.046875q2.90625 0 4.6875 2.015625q1.796875 2.015625 1.796875 5.234375l0 0.53125l-10.9375 0q0.109375 2.078125 1.484375 3.375q1.390625 1.296875 3.390625 1.296875q2.453125 0 4.171875 -1.703125l1.0 1.375q-2.0625 2.078125 -5.375 2.078125zm4.203125 -7.953125q0 -1.875 -1.234375 -3.1875q-1.234375 -1.328125 -3.21875 -1.328125q-1.875 0 -3.125 1.328125q-1.25 1.3125 -1.296875 3.1875l8.875 0zm13.722473 -7.84375q-0.5625 0 -0.984375 -0.40625q-0.421875 -0.40625 -0.421875 -1.0q0 -0.578125 0.421875 -1.0q0.421875 -0.421875 0.984375 -0.421875q0.578125 0 1.0 0.421875q0.421875 0.421875 0.421875 1.0q0 0.59375 -0.421875 1.0q-0.421875 0.40625 -1.0 0.40625zm-1.046875 15.453125l0 -13.53125l2.109375 0l0 13.53125l-2.109375 0zm9.721924 0.34375q-3.0 0 -3.0 -3.171875l0 -8.84375l-2.234375 0l0 -1.859375l2.234375 0l0 -3.6875l2.109375 0l0 3.6875l2.734375 0l0 1.859375l-2.734375 0l0 8.390625q0 0.765625 0.328125 1.25q0.34375 0.484375 1.03125 0.484375q0.875 0 1.4375 -0.546875l0.609375 1.5625q-0.859375 0.875 -2.515625 0.875zm12.62793 -0.34375l0 -11.671875l-2.234375 0l0 -1.859375l2.234375 0l0 -1.03125q0 -2.09375 1.046875 -3.234375q1.046875 -1.15625 2.875 -1.15625q1.703125 0 2.859375 1.03125l-0.875 1.375q-0.71875 -0.671875 -1.671875 -0.671875q-2.140625 0 -2.140625 2.65625l0 1.03125l2.75 0l0 1.859375l-2.75 0l0 11.671875l-2.09375 0zm15.799042 0l0 -1.546875q-1.71875 1.890625 -4.484375 1.890625q-2.046875 0 -3.390625 -1.28125q-1.34375 -1.296875 -1.34375 -3.203125q0 -1.96875 1.328125 -3.203125q1.328125 -1.25 3.40625 -1.25q2.90625 0 4.484375 1.84375l0 -2.4375q0 -1.375 -0.96875 -2.109375q-0.96875 -0.75 -2.453125 -0.75q-2.375 0 -4.140625 1.890625l-0.984375 -1.46875q2.15625 -2.234375 5.40625 -2.234375q2.484375 0 3.859375 1.203125q1.375 1.203125 1.375 3.359375l0 9.296875l-2.09375 0zm-3.734375 -1.171875q2.5 0 3.734375 -1.6875l0 -2.546875q-1.234375 -1.671875 -3.734375 -1.671875q-1.484375 0 -2.40625 0.828125q-0.921875 0.8125 -0.921875 2.140625q0 1.28125 0.921875 2.109375q0.921875 0.828125 2.40625 0.828125zm19.162292 1.171875l0 -8.84375q0 -1.796875 -0.828125 -2.46875q-0.828125 -0.671875 -2.203125 -0.671875q-1.171875 0 -2.3125 0.640625q-1.125 0.625 -1.6875 1.453125l0 9.890625l-2.109375 0l0 -13.53125l2.109375 0l0 1.96875q0.859375 -1.015625 2.125 -1.65625q1.28125 -0.640625 2.6875 -0.640625q4.3125153 0 4.3125153 4.375l0 9.484375l-2.0937653 0zm5.0374603 -5.859375l0 -1.84375l6.71875 0l0 1.84375l-6.71875 0zm10.243805 5.859375l0 -11.671875l-2.234375 0l0 -1.859375l2.234375 0l0 -1.03125q0 -2.09375 1.046875 -3.234375q1.046875 -1.15625 2.875 -1.15625q1.703125 0 2.859375 1.03125l-0.875 1.375q-0.71875 -0.671875 -1.671875 -0.671875q-2.140625 0 -2.140625 2.65625l0 1.03125l2.75 0l0 1.859375l-2.75 0l0 11.671875l-2.09375 0zm16.470886 0l0 -1.90625q-0.796875 0.890625 -2.0625 1.578125q-1.25 0.671875 -2.765625 0.671875q-4.3125 0 -4.3125 -4.3125l0 -9.5625l2.109375 0l0 8.90625q0 1.59375 0.71875 2.34375q0.734375 0.734375 2.296875 0.734375q1.234375 0 2.328125 -0.609375q1.09375 -0.609375 1.6875 -1.421875l0 -9.953125l2.09375 0l0 13.53125l-2.09375 0zm15.42807 0l0 -8.84375q0 -1.796875 -0.828125 -2.46875q-0.828125 -0.671875 -2.203125 -0.671875q-1.171875 0 -2.3125 0.640625q-1.125 0.625 -1.6875 1.453125l0 9.890625l-2.109375 0l0 -13.53125l2.109375 0l0 1.96875q0.859375 -1.015625 2.125 -1.65625q1.28125 -0.640625 2.6875 -0.640625q4.3125 0 4.3125 4.375l0 9.484375l-2.09375 0zm16.099945 0l0 -2.015625q-0.765625 1.03125 -1.953125 1.703125q-1.1875 0.65625 -2.609375 0.65625q-2.71875 0 -4.375 -1.9375q-1.65625 -1.9375 -1.65625 -5.15625q0 -3.25 1.65625 -5.171875q1.671875 -1.9375 4.375 -1.9375q1.359375 0 2.546875 0.640625q1.203125 0.625 2.015625 1.734375l0 -7.1875l2.09375 0l0 18.671875l-2.09375 0zm-4.0625 -1.546875q1.25 0 2.375 -0.609375q1.125 -0.609375 1.6875 -1.515625l0 -6.125q-0.5625 -0.90625 -1.6875 -1.546875q-1.125 -0.640625 -2.375 -0.640625q-1.96875 0 -3.15625 1.4375q-1.1875 1.421875 -1.1875 3.796875q0 2.328125 1.171875 3.765625q1.1875 1.4375 3.171875 1.4375zm16.459442 1.890625q-3.046875 0 -4.96875 -1.984375q-1.921875 -2.0 -1.921875 -5.140625q0 -2.984375 1.90625 -5.03125q1.90625 -2.046875 4.765625 -2.046875q2.90625 0 4.6875 2.015625q1.796875 2.015625 1.796875 5.234375l0 0.53125l-10.9375 0q0.109375 2.078125 1.484375 3.375q1.390625 1.296875 3.390625 1.296875q2.453125 0 4.171875 -1.703125l1.0 1.375q-2.0625 2.078125 -5.375 2.078125zm4.203125 -7.953125q0 -1.875 -1.234375 -3.1875q-1.234375 -1.328125 -3.21875 -1.328125q-1.875 0 -3.125 1.328125q-1.25 1.3125 -1.296875 3.1875l8.875 0zm15.264069 7.609375l0 -2.015625q-0.765625 1.03125 -1.953125 1.703125q-1.1875 0.65625 -2.609375 0.65625q-2.71875 0 -4.375 -1.9375q-1.65625 -1.9375 -1.65625 -5.15625q0 -3.25 1.65625 -5.171875q1.671875 -1.9375 4.375 -1.9375q1.359375 0 2.546875 0.640625q1.203125 0.625 2.015625 1.734375l0 -7.1875l2.09375 0l0 18.671875l-2.09375 0zm-4.0625 -1.546875q1.25 0 2.375 -0.609375q1.125 -0.609375 1.6875 -1.515625l0 -6.125q-0.5625 -0.90625 -1.6875 -1.546875q-1.125 -0.640625 -2.375 -0.640625q-1.96875 0 -3.15625 1.4375q-1.1875 1.421875 -1.1875 3.796875q0 2.328125 1.171875 3.765625q1.1875 1.4375 3.171875 1.4375z" fill-rule="nonzero"></path><path fill="#000000" fill-opacity="0.0" d="m521.1601 76.031494l402.83466 0l0 387.93698l-402.83466 0z" fill-rule="nonzero"></path><path fill="#ffffff" d="m532.6601 202.22l0 -21.34375l13.984375 0l0 2.375l-11.328125 0l0 6.875l11.09375 0l0 2.359375l-11.09375 0l0 7.359375l11.328125 0l0 2.375l-13.984375 0zm22.239319 0l-6.4375 -15.453125l2.59375 0l5.15625 12.671875l5.109375 -12.671875l2.625 0l-6.421875 15.453125l-2.625 0zm18.523743 0.390625q-3.484375 0 -5.6875 -2.265625q-2.1875 -2.28125 -2.1875 -5.875q0 -3.421875 2.171875 -5.75q2.1875 -2.34375 5.453125 -2.34375q3.328125 0 5.375 2.3125q2.046875 2.296875 2.046875 5.984375l0 0.609375l-12.515625 0q0.125 2.359375 1.703125 3.859375q1.59375 1.484375 3.859375 1.484375q2.828125 0 4.78125 -1.953125l1.140625 1.5625q-2.359375 2.375 -6.140625 2.375zm4.796875 -9.09375q0 -2.140625 -1.40625 -3.640625q-1.40625 -1.515625 -3.671875 -1.515625q-2.15625 0 -3.578125 1.515625q-1.421875 1.5 -1.484375 3.640625l10.140625 0zm16.672302 8.703125l0 -10.109375q0 -2.046875 -0.953125 -2.8125q-0.9375 -0.78125 -2.5 -0.78125q-1.34375 0 -2.640625 0.734375q-1.296875 0.71875 -1.9375 1.671875l0 11.296875l-2.390625 0l0 -15.453125l2.390625 0l0 2.234375q1.0 -1.15625 2.453125 -1.890625q1.453125 -0.734375 3.046875 -0.734375q4.9375 0 4.9375 5.0l0 10.84375l-2.40625 0zm11.100769 0.390625q-3.421875 0 -3.421875 -3.625l0 -10.109375l-2.5625 0l0 -2.109375l2.5625 0l0 -4.234375l2.40625 0l0 4.234375l3.140625 0l0 2.109375l-3.140625 0l0 9.59375q0 0.875 0.375 1.4375q0.390625 0.546875 1.1875 0.546875q1.0 0 1.640625 -0.640625l0.703125 1.796875q-1.0 1.0 -2.890625 1.0zm4.06427 -7.078125l0 -2.109375l7.6875 0l0 2.109375l-7.6875 0zm17.256287 12.953125q-1.984375 0 -3.421875 -0.484375q-1.4375 -0.46875 -2.8125 -1.8125l1.203125 -1.796875q0.96875 1.15625 2.15625 1.625q1.203125 0.484375 2.875 0.484375q2.359375 0 3.65625 -1.234375q1.296875 -1.21875 1.296875 -3.40625l0 -2.203125q-0.828125 1.1875 -2.1875 1.96875q-1.359375 0.78125 -2.984375 0.78125q-3.140625 0 -5.015625 -2.203125q-1.875 -2.203125 -1.875 -5.796875q0 -3.703125 1.90625 -5.859375q1.90625 -2.171875 4.984375 -2.171875q3.1875 0 5.171875 2.71875l0 -2.328125l2.40625 0l0 15.0q0 3.265625 -1.921875 4.984375q-1.921875 1.734375 -5.4375 1.734375zm0.34375 -8.1875q1.3125 0 2.609375 -0.703125q1.296875 -0.703125 2.0 -1.828125l0 -6.75q-0.703125 -1.109375 -2.015625 -1.796875q-1.3125 -0.703125 -2.59375 -0.703125q-2.265625 0 -3.609375 1.640625q-1.34375 1.625 -1.34375 4.25q0 2.65625 1.375 4.28125q1.375 1.609375 3.578125 1.609375zm18.571167 2.3125q-3.359375 0 -5.515625 -2.28125q-2.140625 -2.296875 -2.140625 -5.859375q0 -3.578125 2.140625 -5.828125q2.15625 -2.265625 5.515625 -2.265625q3.359375 0 5.5 2.265625q2.140625 2.25 2.140625 5.828125q0 3.5625 -2.140625 5.859375q-2.140625 2.28125 -5.5 2.28125zm0 -2.15625q2.234375 0 3.671875 -1.671875q1.4375 -1.6875 1.4375 -4.3125q0 -2.59375 -1.4375 -4.265625q-1.4375 -1.6875 -3.671875 -1.6875q-2.25 0 -3.703125 1.671875q-1.453125 1.65625 -1.453125 4.28125q0 2.65625 1.4375 4.328125q1.4375 1.65625 3.71875 1.65625zm18.522766 2.15625q-3.484375 0 -5.6875 -2.265625q-2.1875 -2.28125 -2.1875 -5.875q0 -3.421875 2.171875 -5.75q2.1875 -2.34375 5.453125 -2.34375q3.328125 0 5.375 2.3125q2.046875 2.296875 2.046875 5.984375l0 0.609375l-12.515625 0q0.125 2.359375 1.703125 3.859375q1.59375 1.484375 3.859375 1.484375q2.828125 0 4.78125 -1.953125l1.140625 1.5625q-2.359375 2.375 -6.140625 2.375zm4.796875 -9.09375q0 -2.140625 -1.40625 -3.640625q-1.40625 -1.515625 -3.671875 -1.515625q-2.15625 0 -3.578125 1.515625q-1.421875 1.5 -1.484375 3.640625l10.140625 0zm6.2504272 8.703125l0 -15.453125l2.390625 0l0 2.5q2.140625 -2.828125 5.15625 -2.828125l0 2.46875l-0.96875 -0.09375q-1.078125 0 -2.390625 0.78125q-1.3125 0.78125 -1.796875 1.6875l0 10.9375l-2.390625 0zm15.450684 0.390625q-3.9375 0 -6.234375 -2.4375l1.234375 -1.734375q0.78125 0.90625 2.140625 1.5625q1.359375 0.65625 2.953125 0.65625q1.796875 0 2.71875 -0.75q0.9375 -0.765625 0.9375 -1.90625q0 -1.03125 -1.015625 -1.625q-1.0 -0.59375 -3.765625 -1.234375q-2.328125 -0.46875 -3.5625 -1.5q-1.234375 -1.046875 -1.234375 -2.8125q0 -1.953125 1.5625 -3.203125q1.578125 -1.25 4.203125 -1.25q3.484375 0 5.71875 2.25l-1.109375 1.65625q-0.703125 -0.828125 -1.90625 -1.390625q-1.203125 -0.5625 -2.703125 -0.5625q-1.609375 0 -2.515625 0.703125q-0.90625 0.703125 -0.90625 1.734375q0 0.921875 1.015625 1.46875q1.03125 0.546875 3.78125 1.125q2.328125 0.546875 3.546875 1.65625q1.21875 1.09375 1.21875 2.921875q0 2.140625 -1.671875 3.40625q-1.65625 1.265625 -4.40625 1.265625zm25.854797 0q-3.296875 0 -5.21875 -2.734375l0 8.234375l-2.390625 0l0 -21.34375l2.390625 0l0 2.296875q0.828125 -1.1875 2.203125 -1.9375q1.390625 -0.75 3.015625 -0.75q3.109375 0 4.984375 2.1875q1.890625 2.171875 1.890625 5.90625q0 3.71875 -1.875 5.9375q-1.859375 2.203125 -5.0 2.203125zm-0.609375 -2.15625q2.234375 0 3.59375 -1.625q1.375 -1.640625 1.375 -4.359375q0 -2.65625 -1.34375 -4.296875q-1.34375 -1.65625 -3.625 -1.65625q-1.4375 0 -2.703125 0.734375q-1.265625 0.71875 -1.90625 1.734375l0 6.984375q0.640625 1.015625 1.90625 1.75q1.265625 0.734375 2.703125 0.734375zm21.725891 1.765625l0 -2.171875q-0.890625 1.015625 -2.328125 1.796875q-1.4375 0.765625 -3.171875 0.765625q-4.921875 0 -4.921875 -4.9375l0 -10.90625l2.390625 0l0 10.171875q0 1.828125 0.828125 2.671875q0.84375 0.84375 2.625 0.84375q1.40625 0 2.65625 -0.703125q1.25 -0.703125 1.921875 -1.625l0 -11.359375l2.40625 0l0 15.453125l-2.40625 0zm7.210144 0l0 -15.453125l2.390625 0l0 2.5q2.140625 -2.828125 5.15625 -2.828125l0 2.46875l-0.96875 -0.09375q-1.078125 0 -2.390625 0.78125q-1.3125 0.78125 -1.796875 1.6875l0 10.9375l-2.390625 0zm17.372559 0.390625q-3.390625 0 -5.5625 -2.296875q-2.15625 -2.3125 -2.15625 -5.84375q0 -3.484375 2.15625 -5.78125q2.171875 -2.3125 5.5625 -2.3125q3.578125 0 5.65625 2.6875l-1.59375 1.46875q-1.46875 -2.015625 -3.9375 -2.015625q-2.375 0 -3.859375 1.65625q-1.484375 1.640625 -1.484375 4.296875q0 2.6875 1.46875 4.34375q1.46875 1.640625 3.875 1.640625q2.4375 0 3.9375 -2.015625l1.59375 1.484375q-2.078125 2.6875 -5.65625 2.6875zm19.480652 -0.390625l0 -10.171875q0 -1.734375 -0.8125 -2.625q-0.8125 -0.90625 -2.671875 -0.90625q-1.3125 0 -2.546875 0.671875q-1.234375 0.671875 -2.03125 1.734375l0 11.296875l-2.390625 0l0 -21.34375l2.390625 0l0 8.125q1.03125 -1.1875 2.5 -1.90625q1.46875 -0.71875 3.046875 -0.71875q4.921875 0 4.921875 4.9375l0 10.90625l-2.40625 0zm16.867126 0l0 -1.765625q-1.953125 2.15625 -5.125 2.15625q-2.328125 0 -3.875 -1.46875q-1.53125 -1.484375 -1.53125 -3.65625q0 -2.234375 1.515625 -3.65625q1.53125 -1.4375 3.890625 -1.4375q3.328125 0 5.125 2.109375l0 -2.78125q0 -1.5625 -1.109375 -2.40625q-1.09375 -0.859375 -2.796875 -0.859375q-2.71875 0 -4.734375 2.15625l-1.125 -1.671875q2.46875 -2.5625 6.1875 -2.5625q2.84375 0 4.40625 1.375q1.578125 1.375 1.578125 3.84375l0 10.625l-2.40625 0zm-4.25 -1.34375q2.84375 0 4.25 -1.921875l0 -2.90625q-1.40625 -1.921875 -4.25 -1.921875q-1.703125 0 -2.765625 0.953125q-1.046875 0.9375 -1.046875 2.4375q0 1.46875 1.046875 2.421875q1.0625 0.9375 2.765625 0.9375zm16.348389 1.734375q-3.9375 0 -6.234375 -2.4375l1.234375 -1.734375q0.78125 0.90625 2.140625 1.5625q1.359375 0.65625 2.953125 0.65625q1.796875 0 2.71875 -0.75q0.9375 -0.765625 0.9375 -1.90625q0 -1.03125 -1.015625 -1.625q-1.0 -0.59375 -3.765625 -1.234375q-2.328125 -0.46875 -3.5625 -1.5q-1.234375 -1.046875 -1.234375 -2.8125q0 -1.953125 1.5625 -3.203125q1.578125 -1.25 4.203125 -1.25q3.484375 0 5.71875 2.25l-1.109375 1.65625q-0.703125 -0.828125 -1.90625 -1.390625q-1.203125 -0.5625 -2.703125 -0.5625q-1.609375 0 -2.515625 0.703125q-0.90625 0.703125 -0.90625 1.734375q0 0.921875 1.015625 1.46875q1.03125 0.546875 3.78125 1.125q2.328125 0.546875 3.546875 1.65625q1.21875 1.09375 1.21875 2.921875q0 2.140625 -1.671875 3.40625q-1.65625 1.265625 -4.40625 1.265625zm16.95819 0q-3.484375 0 -5.6875 -2.265625q-2.1875 -2.28125 -2.1875 -5.875q0 -3.421875 2.171875 -5.75q2.1875 -2.34375 5.453125 -2.34375q3.328125 0 5.375 2.3125q2.046875 2.296875 2.046875 5.984375l0 0.609375l-12.515625 0q0.125 2.359375 1.703125 3.859375q1.59375 1.484375 3.859375 1.484375q2.828125 0 4.78125 -1.953125l1.140625 1.5625q-2.359375 2.375 -6.140625 2.375zm4.796875 -9.09375q0 -2.140625 -1.40625 -3.640625q-1.40625 -1.515625 -3.671875 -1.515625q-2.15625 0 -3.578125 1.515625q-1.421875 1.5 -1.484375 3.640625l10.140625 0zm21.256409 9.09375q-3.359375 0 -5.515625 -2.28125q-2.140625 -2.296875 -2.140625 -5.859375q0 -3.578125 2.140625 -5.828125q2.15625 -2.265625 5.515625 -2.265625q3.359375 0 5.5 2.265625q2.140625 2.25 2.140625 5.828125q0 3.5625 -2.140625 5.859375q-2.140625 2.28125 -5.5 2.28125zm0 -2.15625q2.234375 0 3.671875 -1.671875q1.4375 -1.6875 1.4375 -4.3125q0 -2.59375 -1.4375 -4.265625q-1.4375 -1.6875 -3.671875 -1.6875q-2.25 0 -3.703125 1.671875q-1.453125 1.65625 -1.453125 4.28125q0 2.65625 1.4375 4.328125q1.4375 1.65625 3.71875 1.65625zm21.975891 1.765625l0 -2.171875q-0.890625 1.015625 -2.328125 1.796875q-1.4375 0.765625 -3.171875 0.765625q-4.921875 0 -4.921875 -4.9375l0 -10.90625l2.390625 0l0 10.171875q0 1.828125 0.828125 2.671875q0.84375 0.84375 2.625 0.84375q1.40625 0 2.65625 -0.703125q1.25 -0.703125 1.921875 -1.625l0 -11.359375l2.40625 0l0 15.453125l-2.40625 0zm7.210144 0l0 -15.453125l2.390625 0l0 2.5q2.140625 -2.828125 5.15625 -2.828125l0 2.46875l-0.96875 -0.09375q-1.078125 0 -2.390625 0.78125q-1.3125 0.78125 -1.796875 1.6875l0 10.9375l-2.390625 0z" fill-rule="nonzero"></path><path fill="#ffffff" d="m533.2382 246.22l0 -13.34375l-2.5625 0l0 -2.109375l2.5625 0l0 -1.1875q0 -2.40625 1.1875 -3.703125q1.203125 -1.3125 3.28125 -1.3125q1.953125 0 3.265625 1.171875l-0.984375 1.578125q-0.84375 -0.78125 -1.921875 -0.78125q-2.4375 0 -2.4375 3.046875l0 1.1875l3.140625 0l0 2.109375l-3.140625 0l0 13.34375l-2.390625 0zm18.040405 0l0 -1.765625q-1.953125 2.15625 -5.125 2.15625q-2.328125 0 -3.875 -1.46875q-1.53125 -1.484375 -1.53125 -3.65625q0 -2.234375 1.515625 -3.65625q1.53125 -1.4375 3.890625 -1.4375q3.328125 0 5.125 2.109375l0 -2.78125q0 -1.5625 -1.109375 -2.40625q-1.09375 -0.859375 -2.796875 -0.859375q-2.71875 0 -4.734375 2.15625l-1.125 -1.671875q2.46875 -2.5625 6.1875 -2.5625q2.84375 0 4.40625 1.375q1.578125 1.375 1.578125 3.84375l0 10.625l-2.40625 0zm-4.25 -1.34375q2.84375 0 4.25 -1.921875l0 -2.90625q-1.40625 -1.921875 -4.25 -1.921875q-1.703125 0 -2.765625 0.953125q-1.046875 0.9375 -1.046875 2.4375q0 1.46875 1.046875 2.421875q1.0625 0.9375 2.765625 0.9375zm16.348389 1.734375q-3.9375 0 -6.234375 -2.4375l1.234375 -1.734375q0.78125 0.90625 2.140625 1.5625q1.359375 0.65625 2.953125 0.65625q1.796875 0 2.71875 -0.75q0.9375 -0.765625 0.9375 -1.90625q0 -1.03125 -1.015625 -1.625q-1.0 -0.59375 -3.765625 -1.234375q-2.328125 -0.46875 -3.5625 -1.5q-1.234375 -1.046875 -1.234375 -2.8125q0 -1.953125 1.5625 -3.203125q1.578125 -1.25 4.203125 -1.25q3.484375 0 5.71875 2.25l-1.109375 1.65625q-0.703125 -0.828125 -1.90625 -1.390625q-1.203125 -0.5625 -2.703125 -0.5625q-1.609375 0 -2.515625 0.703125q-0.90625 0.703125 -0.90625 1.734375q0 0.921875 1.015625 1.46875q1.03125 0.546875 3.78125 1.125q2.328125 0.546875 3.546875 1.65625q1.21875 1.09375 1.21875 2.921875q0 2.140625 -1.671875 3.40625q-1.65625 1.265625 -4.40625 1.265625zm20.442566 -0.390625l0 -10.171875q0 -1.734375 -0.8125 -2.625q-0.8125 -0.90625 -2.671875 -0.90625q-1.3125 0 -2.546875 0.671875q-1.234375 0.671875 -2.03125 1.734375l0 11.296875l-2.390625 0l0 -21.34375l2.390625 0l0 8.125q1.03125 -1.1875 2.5 -1.90625q1.46875 -0.71875 3.046875 -0.71875q4.921875 0 4.921875 4.9375l0 10.90625l-2.40625 0zm8.382751 -17.65625q-0.640625 0 -1.125 -0.46875q-0.46875 -0.46875 -0.46875 -1.140625q0 -0.671875 0.46875 -1.140625q0.484375 -0.484375 1.125 -0.484375q0.671875 0 1.15625 0.484375q0.484375 0.46875 0.484375 1.140625q0 0.671875 -0.484375 1.140625q-0.484375 0.46875 -1.15625 0.46875zm-1.171875 17.65625l0 -15.453125l2.390625 0l0 15.453125l-2.390625 0zm13.950012 0.390625q-3.359375 0 -5.515625 -2.28125q-2.140625 -2.296875 -2.140625 -5.859375q0 -3.578125 2.140625 -5.828125q2.15625 -2.265625 5.515625 -2.265625q3.359375 0 5.5 2.265625q2.140625 2.25 2.140625 5.828125q0 3.5625 -2.140625 5.859375q-2.140625 2.28125 -5.5 2.28125zm0 -2.15625q2.234375 0 3.671875 -1.671875q1.4375 -1.6875 1.4375 -4.3125q0 -2.59375 -1.4375 -4.265625q-1.4375 -1.6875 -3.671875 -1.6875q-2.25 0 -3.703125 1.671875q-1.453125 1.65625 -1.453125 4.28125q0 2.65625 1.4375 4.328125q1.4375 1.65625 3.71875 1.65625zm21.975891 1.765625l0 -10.109375q0 -2.046875 -0.953125 -2.8125q-0.9375 -0.78125 -2.5 -0.78125q-1.34375 0 -2.640625 0.734375q-1.296875 0.71875 -1.9375 1.671875l0 11.296875l-2.390625 0l0 -15.453125l2.390625 0l0 2.234375q1.0 -1.15625 2.453125 -1.890625q1.453125 -0.734375 3.046875 -0.734375q4.9375 0 4.9375 5.0l0 10.84375l-2.40625 0zm5.75708 -6.6875l0 -2.109375l7.6875 0l0 2.109375l-7.6875 0zm11.724976 6.6875l0 -13.34375l-2.5625 0l0 -2.109375l2.5625 0l0 -1.1875q0 -2.40625 1.1875 -3.703125q1.203125 -1.3125 3.28125 -1.3125q1.953125 0 3.265625 1.171875l-0.984375 1.578125q-0.84375 -0.78125 -1.921875 -0.78125q-2.4375 0 -2.4375 3.046875l0 1.1875l3.140625 0l0 2.109375l-3.140625 0l0 13.34375l-2.390625 0zm15.134155 0.390625q-3.359375 0 -5.515625 -2.28125q-2.140625 -2.296875 -2.140625 -5.859375q0 -3.578125 2.140625 -5.828125q2.15625 -2.265625 5.515625 -2.265625q3.359375 0 5.5 2.265625q2.140625 2.25 2.140625 5.828125q0 3.5625 -2.140625 5.859375q-2.140625 2.28125 -5.5 2.28125zm0 -2.15625q2.234375 0 3.671875 -1.671875q1.4375 -1.6875 1.4375 -4.3125q0 -2.59375 -1.4375 -4.265625q-1.4375 -1.6875 -3.671875 -1.6875q-2.25 0 -3.703125 1.671875q-1.453125 1.65625 -1.453125 4.28125q0 2.65625 1.4375 4.328125q1.4375 1.65625 3.71875 1.65625zm11.554016 1.765625l0 -15.453125l2.390625 0l0 2.5q2.140625 -2.828125 5.15625 -2.828125l0 2.46875l-0.96875 -0.09375q-1.078125 0 -2.390625 0.78125q-1.3125 0.78125 -1.796875 1.6875l0 10.9375l-2.390625 0zm23.935059 0l-4.03125 -12.421875l-4.03125 12.421875l-2.40625 0l-4.921875 -15.453125l2.484375 0l3.78125 12.3125l4.0625 -12.3125l2.046875 0l4.0625 12.3125l3.78125 -12.3125l2.5 0l-4.9375 15.453125l-2.390625 0zm19.769287 0l0 -1.765625q-1.953125 2.15625 -5.125 2.15625q-2.328125 0 -3.875 -1.46875q-1.53125 -1.484375 -1.53125 -3.65625q0 -2.234375 1.515625 -3.65625q1.53125 -1.4375 3.890625 -1.4375q3.328125 0 5.125 2.109375l0 -2.78125q0 -1.5625 -1.109375 -2.40625q-1.09375 -0.859375 -2.796875 -0.859375q-2.71875 0 -4.734375 2.15625l-1.125 -1.671875q2.46875 -2.5625 6.1875 -2.5625q2.84375 0 4.40625 1.375q1.578125 1.375 1.578125 3.84375l0 10.625l-2.40625 0zm-4.25 -1.34375q2.84375 0 4.25 -1.921875l0 -2.90625q-1.40625 -1.921875 -4.25 -1.921875q-1.703125 0 -2.765625 0.953125q-1.046875 0.9375 -1.046875 2.4375q0 1.46875 1.046875 2.421875q1.0625 0.9375 2.765625 0.9375zm11.457764 1.34375l0 -15.453125l2.390625 0l0 2.5q2.140625 -2.828125 5.15625 -2.828125l0 2.46875l-0.96875 -0.09375q-1.078125 0 -2.390625 0.78125q-1.3125 0.78125 -1.796875 1.6875l0 10.9375l-2.390625 0zm21.747559 0l0 -2.296875q-0.859375 1.171875 -2.21875 1.9375q-1.359375 0.75 -2.984375 0.75q-3.109375 0 -5.0 -2.203125q-1.890625 -2.21875 -1.890625 -5.90625q0 -3.703125 1.90625 -5.90625q1.90625 -2.21875 4.984375 -2.21875q1.5625 0 2.921875 0.71875q1.359375 0.71875 2.28125 2.0l0 -8.21875l2.40625 0l0 21.34375l-2.40625 0zm-4.640625 -1.765625q1.453125 0 2.71875 -0.703125q1.28125 -0.703125 1.921875 -1.71875l0 -7.015625q-0.640625 -1.015625 -1.921875 -1.75q-1.265625 -0.75 -2.71875 -0.75q-2.234375 0 -3.59375 1.640625q-1.359375 1.625 -1.359375 4.34375q0 2.65625 1.34375 4.3125q1.34375 1.640625 3.609375 1.640625zm15.071899 1.0q0 1.46875 -0.75 2.75q-0.75 1.28125 -1.859375 2.078125l-1.1875 -0.984375q0.765625 -0.515625 1.375 -1.359375q0.609375 -0.828125 0.703125 -1.625l-0.453125 0.0625q-0.671875 0 -1.109375 -0.4375q-0.421875 -0.453125 -0.421875 -1.1875q0 -0.703125 0.46875 -1.21875q0.484375 -0.515625 1.21875 -0.515625q0.8125 0 1.40625 0.640625q0.609375 0.640625 0.609375 1.796875zm19.209778 1.15625q-3.390625 0 -5.5625 -2.296875q-2.15625 -2.3125 -2.15625 -5.84375q0 -3.484375 2.15625 -5.78125q2.171875 -2.3125 5.5625 -2.3125q3.578125 0 5.65625 2.6875l-1.59375 1.46875q-1.46875 -2.015625 -3.9375 -2.015625q-2.375 0 -3.859375 1.65625q-1.484375 1.640625 -1.484375 4.296875q0 2.6875 1.46875 4.34375q1.46875 1.640625 3.875 1.640625q2.4375 0 3.9375 -2.015625l1.59375 1.484375q-2.078125 2.6875 -5.65625 2.6875zm15.777527 0q-3.359375 0 -5.515625 -2.28125q-2.140625 -2.296875 -2.140625 -5.859375q0 -3.578125 2.140625 -5.828125q2.15625 -2.265625 5.515625 -2.265625q3.359375 0 5.5 2.265625q2.140625 2.25 2.140625 5.828125q0 3.5625 -2.140625 5.859375q-2.140625 2.28125 -5.5 2.28125zm0 -2.15625q2.234375 0 3.671875 -1.671875q1.4375 -1.6875 1.4375 -4.3125q0 -2.59375 -1.4375 -4.265625q-1.4375 -1.6875 -3.671875 -1.6875q-2.25 0 -3.703125 1.671875q-1.453125 1.65625 -1.453125 4.28125q0 2.65625 1.4375 4.328125q1.4375 1.65625 3.71875 1.65625zm21.975891 1.765625l0 -10.109375q0 -2.046875 -0.953125 -2.8125q-0.9375 -0.78125 -2.5 -0.78125q-1.34375 0 -2.640625 0.734375q-1.296875 0.71875 -1.9375 1.671875l0 11.296875l-2.390625 0l0 -15.453125l2.390625 0l0 2.234375q1.0 -1.15625 2.453125 -1.890625q1.453125 -0.734375 3.046875 -0.734375q4.9375 0 4.9375 5.0l0 10.84375l-2.40625 0zm17.632019 0l0 -10.109375q0 -2.046875 -0.953125 -2.8125q-0.9375 -0.78125 -2.5 -0.78125q-1.34375 0 -2.640625 0.734375q-1.296875 0.71875 -1.9375 1.671875l0 11.296875l-2.390625 0l0 -15.453125l2.390625 0l0 2.234375q1.0 -1.15625 2.453125 -1.890625q1.453125 -0.734375 3.046875 -0.734375q4.9375 0 4.9375 5.0l0 10.84375l-2.40625 0zm14.178894 0.390625q-3.484375 0 -5.6875 -2.265625q-2.1875 -2.28125 -2.1875 -5.875q0 -3.421875 2.171875 -5.75q2.1875 -2.34375 5.453125 -2.34375q3.328125 0 5.375 2.3125q2.046875 2.296875 2.046875 5.984375l0 0.609375l-12.515625 0q0.125 2.359375 1.703125 3.859375q1.59375 1.484375 3.859375 1.484375q2.828125 0 4.78125 -1.953125l1.140625 1.5625q-2.359375 2.375 -6.140625 2.375zm4.796875 -9.09375q0 -2.140625 -1.40625 -3.640625q-1.40625 -1.515625 -3.671875 -1.515625q-2.15625 0 -3.578125 1.515625q-1.421875 1.5 -1.484375 3.640625l10.140625 0zm13.062927 9.09375q-3.390625 0 -5.5625 -2.296875q-2.15625 -2.3125 -2.15625 -5.84375q0 -3.484375 2.15625 -5.78125q2.171875 -2.3125 5.5625 -2.3125q3.578125 0 5.65625 2.6875l-1.59375 1.46875q-1.46875 -2.015625 -3.9375 -2.015625q-2.375 0 -3.859375 1.65625q-1.484375 1.640625 -1.484375 4.296875q0 2.6875 1.46875 4.34375q1.46875 1.640625 3.875 1.640625q2.4375 0 3.9375 -2.015625l1.59375 1.484375q-2.078125 2.6875 -5.65625 2.6875zm12.918152 0q-3.421875 0 -3.421875 -3.625l0 -10.109375l-2.5625 0l0 -2.109375l2.5625 0l0 -4.234375l2.40625 0l0 4.234375l3.140625 0l0 2.109375l-3.140625 0l0 9.59375q0 0.875 0.375 1.4375q0.390625 0.546875 1.1875 0.546875q1.0 0 1.640625 -0.640625l0.703125 1.796875q-1.0 1.0 -2.890625 1.0zm12.486145 0q-3.484375 0 -5.6875 -2.265625q-2.1875 -2.28125 -2.1875 -5.875q0 -3.421875 2.171875 -5.75q2.1875 -2.34375 5.453125 -2.34375q3.328125 0 5.375 2.3125q2.046875 2.296875 2.046875 5.984375l0 0.609375l-12.515625 0q0.125 2.359375 1.703125 3.859375q1.59375 1.484375 3.859375 1.484375q2.828125 0 4.78125 -1.953125l1.140625 1.5625q-2.359375 2.375 -6.140625 2.375zm4.796875 -9.09375q0 -2.140625 -1.40625 -3.640625q-1.40625 -1.515625 -3.671875 -1.515625q-2.15625 0 -3.578125 1.515625q-1.421875 1.5 -1.484375 3.640625l10.140625 0zm17.437927 8.703125l0 -2.296875q-0.859375 1.171875 -2.21875 1.9375q-1.359375 0.75 -2.984375 0.75q-3.109375 0 -5.0 -2.203125q-1.890625 -2.21875 -1.890625 -5.90625q0 -3.703125 1.90625 -5.90625q1.90625 -2.21875 4.984375 -2.21875q1.5625 0 2.921875 0.71875q1.359375 0.71875 2.28125 2.0l0 -8.21875l2.40625 0l0 21.34375l-2.40625 0zm-4.640625 -1.765625q1.453125 0 2.71875 -0.703125q1.28125 -0.703125 1.921875 -1.71875l0 -7.015625q-0.640625 -1.015625 -1.921875 -1.75q-1.265625 -0.75 -2.71875 -0.75q-2.234375 0 -3.59375 1.640625q-1.359375 1.625 -1.359375 4.34375q0 2.65625 1.34375 4.3125q1.34375 1.640625 3.609375 1.640625z" fill-rule="nonzero"></path><path fill="#ffffff" d="m542.2226 290.22l0 -1.765625q-1.953125 2.15625 -5.125 2.15625q-2.328125 0 -3.875 -1.46875q-1.53125 -1.484375 -1.53125 -3.65625q0 -2.234375 1.515625 -3.65625q1.53125 -1.4375 3.890625 -1.4375q3.328125 0 5.125 2.109375l0 -2.78125q0 -1.5625 -1.109375 -2.40625q-1.09375 -0.859375 -2.796875 -0.859375q-2.71875 0 -4.734375 2.15625l-1.125 -1.671875q2.46875 -2.5625 6.1875 -2.5625q2.84375 0 4.40625 1.375q1.578125 1.375 1.578125 3.84375l0 10.625l-2.40625 0zm-4.25 -1.34375q2.84375 0 4.25 -1.921875l0 -2.90625q-1.40625 -1.921875 -4.25 -1.921875q-1.703125 0 -2.765625 0.953125q-1.046875 0.9375 -1.046875 2.4375q0 1.46875 1.046875 2.421875q1.0625 0.9375 2.765625 0.9375zm18.270264 1.734375q-3.390625 0 -5.5625 -2.296875q-2.15625 -2.3125 -2.15625 -5.84375q0 -3.484375 2.15625 -5.78125q2.171875 -2.3125 5.5625 -2.3125q3.578125 0 5.65625 2.6875l-1.59375 1.46875q-1.46875 -2.015625 -3.9375 -2.015625q-2.375 0 -3.859375 1.65625q-1.484375 1.640625 -1.484375 4.296875q0 2.6875 1.46875 4.34375q1.46875 1.640625 3.875 1.640625q2.4375 0 3.9375 -2.015625l1.59375 1.484375q-2.078125 2.6875 -5.65625 2.6875zm15.840027 0q-3.390625 0 -5.5625 -2.296875q-2.15625 -2.3125 -2.15625 -5.84375q0 -3.484375 2.15625 -5.78125q2.171875 -2.3125 5.5625 -2.3125q3.578125 0 5.65625 2.6875l-1.59375 1.46875q-1.46875 -2.015625 -3.9375 -2.015625q-2.375 0 -3.859375 1.65625q-1.484375 1.640625 -1.484375 4.296875q0 2.6875 1.46875 4.34375q1.46875 1.640625 3.875 1.640625q2.4375 0 3.9375 -2.015625l1.59375 1.484375q-2.078125 2.6875 -5.65625 2.6875zm15.996277 0q-3.484375 0 -5.6875 -2.265625q-2.1875 -2.28125 -2.1875 -5.875q0 -3.421875 2.171875 -5.75q2.1875 -2.34375 5.453125 -2.34375q3.328125 0 5.375 2.3125q2.046875 2.296875 2.046875 5.984375l0 0.609375l-12.515625 0q0.125 2.359375 1.703125 3.859375q1.59375 1.484375 3.859375 1.484375q2.828125 0 4.78125 -1.953125l1.140625 1.5625q-2.359375 2.375 -6.140625 2.375zm4.796875 -9.09375q0 -2.140625 -1.40625 -3.640625q-1.40625 -1.515625 -3.671875 -1.515625q-2.15625 0 -3.578125 1.515625q-1.421875 1.5 -1.484375 3.640625l10.140625 0zm11.141052 9.09375q-3.9375 0 -6.234375 -2.4375l1.234375 -1.734375q0.78125 0.90625 2.140625 1.5625q1.359375 0.65625 2.953125 0.65625q1.796875 0 2.71875 -0.75q0.9375 -0.765625 0.9375 -1.90625q0 -1.03125 -1.015625 -1.625q-1.0 -0.59375 -3.765625 -1.234375q-2.328125 -0.46875 -3.5625 -1.5q-1.234375 -1.046875 -1.234375 -2.8125q0 -1.953125 1.5625 -3.203125q1.578125 -1.25 4.203125 -1.25q3.484375 0 5.71875 2.25l-1.109375 1.65625q-0.703125 -0.828125 -1.90625 -1.390625q-1.203125 -0.5625 -2.703125 -0.5625q-1.609375 0 -2.515625 0.703125q-0.90625 0.703125 -0.90625 1.734375q0 0.921875 1.015625 1.46875q1.03125 0.546875 3.78125 1.125q2.328125 0.546875 3.546875 1.65625q1.21875 1.09375 1.21875 2.921875q0 2.140625 -1.671875 3.40625q-1.65625 1.265625 -4.40625 1.265625zm14.880066 0q-3.9375 0 -6.234375 -2.4375l1.234375 -1.734375q0.78125 0.90625 2.140625 1.5625q1.359375 0.65625 2.953125 0.65625q1.796875 0 2.71875 -0.75q0.9375 -0.765625 0.9375 -1.90625q0 -1.03125 -1.015625 -1.625q-1.0 -0.59375 -3.765625 -1.234375q-2.328125 -0.46875 -3.5625 -1.5q-1.234375 -1.046875 -1.234375 -2.8125q0 -1.953125 1.5625 -3.203125q1.578125 -1.25 4.203125 -1.25q3.484375 0 5.71875 2.25l-1.109375 1.65625q-0.703125 -0.828125 -1.90625 -1.390625q-1.203125 -0.5625 -2.703125 -0.5625q-1.609375 0 -2.515625 0.703125q-0.90625 0.703125 -0.90625 1.734375q0 0.921875 1.015625 1.46875q1.03125 0.546875 3.78125 1.125q2.328125 0.546875 3.546875 1.65625q1.21875 1.09375 1.21875 2.921875q0 2.140625 -1.671875 3.40625q-1.65625 1.265625 -4.40625 1.265625zm16.73938 0q-3.359375 0 -5.515625 -2.28125q-2.140625 -2.296875 -2.140625 -5.859375q0 -3.578125 2.140625 -5.828125q2.15625 -2.265625 5.515625 -2.265625q3.359375 0 5.5 2.265625q2.140625 2.25 2.140625 5.828125q0 3.5625 -2.140625 5.859375q-2.140625 2.28125 -5.5 2.28125zm0 -2.15625q2.234375 0 3.671875 -1.671875q1.4375 -1.6875 1.4375 -4.3125q0 -2.59375 -1.4375 -4.265625q-1.4375 -1.6875 -3.671875 -1.6875q-2.25 0 -3.703125 1.671875q-1.453125 1.65625 -1.453125 4.28125q0 2.65625 1.4375 4.328125q1.4375 1.65625 3.71875 1.65625zm11.554016 1.765625l0 -15.453125l2.390625 0l0 2.5q2.140625 -2.828125 5.15625 -2.828125l0 2.46875l-0.96875 -0.09375q-1.078125 0 -2.390625 0.78125q-1.3125 0.78125 -1.796875 1.6875l0 10.9375l-2.390625 0zm11.731934 -17.65625q-0.640625 0 -1.125 -0.46875q-0.46875 -0.46875 -0.46875 -1.140625q0 -0.671875 0.46875 -1.140625q0.484375 -0.484375 1.125 -0.484375q0.671875 0 1.15625 0.484375q0.484375 0.46875 0.484375 1.140625q0 0.671875 -0.484375 1.140625q-0.484375 0.46875 -1.15625 0.46875zm-1.171875 17.65625l0 -15.453125l2.390625 0l0 15.453125l-2.390625 0zm14.168762 0.390625q-3.484375 0 -5.6875 -2.265625q-2.1875 -2.28125 -2.1875 -5.875q0 -3.421875 2.171875 -5.75q2.1875 -2.34375 5.453125 -2.34375q3.328125 0 5.375 2.3125q2.046875 2.296875 2.046875 5.984375l0 0.609375l-12.515625 0q0.125 2.359375 1.703125 3.859375q1.59375 1.484375 3.859375 1.484375q2.828125 0 4.78125 -1.953125l1.140625 1.5625q-2.359375 2.375 -6.140625 2.375zm4.796875 -9.09375q0 -2.140625 -1.40625 -3.640625q-1.40625 -1.515625 -3.671875 -1.515625q-2.15625 0 -3.578125 1.515625q-1.421875 1.5 -1.484375 3.640625l10.140625 0zm11.141052 9.09375q-3.9375 0 -6.234375 -2.4375l1.234375 -1.734375q0.78125 0.90625 2.140625 1.5625q1.359375 0.65625 2.953125 0.65625q1.796875 0 2.71875 -0.75q0.9375 -0.765625 0.9375 -1.90625q0 -1.03125 -1.015625 -1.625q-1.0 -0.59375 -3.765625 -1.234375q-2.328125 -0.46875 -3.5625 -1.5q-1.234375 -1.046875 -1.234375 -2.8125q0 -1.953125 1.5625 -3.203125q1.578125 -1.25 4.203125 -1.25q3.484375 0 5.71875 2.25l-1.109375 1.65625q-0.703125 -0.828125 -1.90625 -1.390625q-1.203125 -0.5625 -2.703125 -0.5625q-1.609375 0 -2.515625 0.703125q-0.90625 0.703125 -0.90625 1.734375q0 0.921875 1.015625 1.46875q1.03125 0.546875 3.78125 1.125q2.328125 0.546875 3.546875 1.65625q1.21875 1.09375 1.21875 2.921875q0 2.140625 -1.671875 3.40625q-1.65625 1.265625 -4.40625 1.265625zm22.136047 0q-3.421875 0 -3.421875 -3.625l0 -10.109375l-2.5625 0l0 -2.109375l2.5625 0l0 -4.234375l2.40625 0l0 4.234375l3.140625 0l0 2.109375l-3.140625 0l0 9.59375q0 0.875 0.375 1.4375q0.390625 0.546875 1.1875 0.546875q1.0 0 1.640625 -0.640625l0.703125 1.796875q-1.0 1.0 -2.890625 1.0zm12.267395 0q-3.359375 0 -5.515625 -2.28125q-2.140625 -2.296875 -2.140625 -5.859375q0 -3.578125 2.140625 -5.828125q2.15625 -2.265625 5.515625 -2.265625q3.359375 0 5.5 2.265625q2.140625 2.25 2.140625 5.828125q0 3.5625 -2.140625 5.859375q-2.140625 2.28125 -5.5 2.28125zm0 -2.15625q2.234375 0 3.671875 -1.671875q1.4375 -1.6875 1.4375 -4.3125q0 -2.59375 -1.4375 -4.265625q-1.4375 -1.6875 -3.671875 -1.6875q-2.25 0 -3.703125 1.671875q-1.453125 1.65625 -1.453125 4.28125q0 2.65625 1.4375 4.328125q1.4375 1.65625 3.71875 1.65625zm33.184998 1.765625l-4.03125 -12.421875l-4.03125 12.421875l-2.40625 0l-4.921875 -15.453125l2.484375 0l3.78125 12.3125l4.0625 -12.3125l2.046875 0l4.0625 12.3125l3.78125 -12.3125l2.5 0l-4.9375 15.453125l-2.390625 0zm17.081848 0.390625q-3.484375 0 -5.6875 -2.265625q-2.1875 -2.28125 -2.1875 -5.875q0 -3.421875 2.171875 -5.75q2.1875 -2.34375 5.453125 -2.34375q3.328125 0 5.375 2.3125q2.046875 2.296875 2.046875 5.984375l0 0.609375l-12.515625 0q0.125 2.359375 1.703125 3.859375q1.59375 1.484375 3.859375 1.484375q2.828125 0 4.78125 -1.953125l1.140625 1.5625q-2.359375 2.375 -6.140625 2.375zm4.796875 -9.09375q0 -2.140625 -1.40625 -3.640625q-1.40625 -1.515625 -3.671875 -1.515625q-2.15625 0 -3.578125 1.515625q-1.421875 1.5 -1.484375 3.640625l10.140625 0zm15.906616 8.703125l0 -1.765625q-1.953125 2.15625 -5.125 2.15625q-2.328125 0 -3.875 -1.46875q-1.53125 -1.484375 -1.53125 -3.65625q0 -2.234375 1.515625 -3.65625q1.53125 -1.4375 3.890625 -1.4375q3.328125 0 5.125 2.109375l0 -2.78125q0 -1.5625 -1.109375 -2.40625q-1.09375 -0.859375 -2.796875 -0.859375q-2.71875 0 -4.734375 2.15625l-1.125 -1.671875q2.46875 -2.5625 6.1875 -2.5625q2.84375 0 4.40625 1.375q1.578125 1.375 1.578125 3.84375l0 10.625l-2.40625 0zm-4.25 -1.34375q2.84375 0 4.25 -1.921875l0 -2.90625q-1.40625 -1.921875 -4.25 -1.921875q-1.703125 0 -2.765625 0.953125q-1.046875 0.9375 -1.046875 2.4375q0 1.46875 1.046875 2.421875q1.0625 0.9375 2.765625 0.9375zm11.457825 1.34375l0 -15.453125l2.390625 0l0 2.5q2.140625 -2.828125 5.15625 -2.828125l0 2.46875l-0.96875 -0.09375q-1.078125 0 -2.390625 0.78125q-1.3125 0.78125 -1.796875 1.6875l0 10.9375l-2.390625 0zm28.47229 0l0 -1.765625q-1.953125 2.15625 -5.125 2.15625q-2.328125 0 -3.875 -1.46875q-1.53125 -1.484375 -1.53125 -3.65625q0 -2.234375 1.515625 -3.65625q1.53125 -1.4375 3.890625 -1.4375q3.328125 0 5.125 2.109375l0 -2.78125q0 -1.5625 -1.109375 -2.40625q-1.09375 -0.859375 -2.796875 -0.859375q-2.71875 0 -4.734375 2.15625l-1.125 -1.671875q2.46875 -2.5625 6.1875 -2.5625q2.84375 0 4.40625 1.375q1.578125 1.375 1.578125 3.84375l0 10.625l-2.40625 0zm-4.25 -1.34375q2.84375 0 4.25 -1.921875l0 -2.90625q-1.40625 -1.921875 -4.25 -1.921875q-1.703125 0 -2.765625 0.953125q-1.046875 0.9375 -1.046875 2.4375q0 1.46875 1.046875 2.421875q1.0625 0.9375 2.765625 0.9375zm17.660889 7.609375q-1.984375 0 -3.421875 -0.484375q-1.4375 -0.46875 -2.8125 -1.8125l1.203125 -1.796875q0.96875 1.15625 2.15625 1.625q1.203125 0.484375 2.875 0.484375q2.359375 0 3.65625 -1.234375q1.296875 -1.21875 1.296875 -3.40625l0 -2.203125q-0.828125 1.1875 -2.1875 1.96875q-1.359375 0.78125 -2.984375 0.78125q-3.140625 0 -5.015625 -2.203125q-1.875 -2.203125 -1.875 -5.796875q0 -3.703125 1.90625 -5.859375q1.90625 -2.171875 4.984375 -2.171875q3.1875 0 5.171875 2.71875l0 -2.328125l2.40625 0l0 15.0q0 3.265625 -1.921875 4.984375q-1.921875 1.734375 -5.4375 1.734375zm0.34375 -8.1875q1.3125 0 2.609375 -0.703125q1.296875 -0.703125 2.0 -1.828125l0 -6.75q-0.703125 -1.109375 -2.015625 -1.796875q-1.3125 -0.703125 -2.59375 -0.703125q-2.265625 0 -3.609375 1.640625q-1.34375 1.625 -1.34375 4.25q0 2.65625 1.375 4.28125q1.375 1.609375 3.578125 1.609375zm21.477417 1.921875l0 -1.765625q-1.953125 2.15625 -5.125 2.15625q-2.328125 0 -3.875 -1.46875q-1.53125 -1.484375 -1.53125 -3.65625q0 -2.234375 1.515625 -3.65625q1.53125 -1.4375 3.890625 -1.4375q3.328125 0 5.125 2.109375l0 -2.78125q0 -1.5625 -1.109375 -2.40625q-1.09375 -0.859375 -2.796875 -0.859375q-2.71875 0 -4.734375 2.15625l-1.125 -1.671875q2.46875 -2.5625 6.1875 -2.5625q2.84375 0 4.40625 1.375q1.578125 1.375 1.578125 3.84375l0 10.625l-2.40625 0zm-4.25 -1.34375q2.84375 0 4.25 -1.921875l0 -2.90625q-1.40625 -1.921875 -4.25 -1.921875q-1.703125 0 -2.765625 0.953125q-1.046875 0.9375 -1.046875 2.4375q0 1.46875 1.046875 2.421875q1.0625 0.9375 2.765625 0.9375zm12.629639 -16.3125q-0.640625 0 -1.125 -0.46875q-0.46875 -0.46875 -0.46875 -1.140625q0 -0.671875 0.46875 -1.140625q0.484375 -0.484375 1.125 -0.484375q0.671875 0 1.15625 0.484375q0.484375 0.46875 0.484375 1.140625q0 0.671875 -0.484375 1.140625q-0.484375 0.46875 -1.15625 0.46875zm-1.171875 17.65625l0 -15.453125l2.390625 0l0 15.453125l-2.390625 0zm17.621887 0l0 -10.109375q0 -2.046875 -0.953125 -2.8125q-0.9375 -0.78125 -2.5 -0.78125q-1.34375 0 -2.640625 0.734375q-1.296875 0.71875 -1.9375 1.671875l0 11.296875l-2.390625 0l0 -15.453125l2.390625 0l0 2.234375q1.0 -1.15625 2.453125 -1.890625q1.453125 -0.734375 3.046875 -0.734375q4.9375 0 4.9375 5.0l0 10.84375l-2.40625 0zm5.757019 -6.6875l0 -2.109375l7.6875 0l0 2.109375l-7.6875 0z" fill-rule="nonzero"></path><path fill="#ffffff" d="m542.2226 334.22l0 -1.765625q-1.953125 2.15625 -5.125 2.15625q-2.328125 0 -3.875 -1.46875q-1.53125 -1.484375 -1.53125 -3.65625q0 -2.234375 1.515625 -3.65625q1.53125 -1.4375 3.890625 -1.4375q3.328125 0 5.125 2.109375l0 -2.78125q0 -1.5625 -1.109375 -2.40625q-1.09375 -0.859375 -2.796875 -0.859375q-2.71875 0 -4.734375 2.15625l-1.125 -1.671875q2.46875 -2.5625 6.1875 -2.5625q2.84375 0 4.40625 1.375q1.578125 1.375 1.578125 3.84375l0 10.625l-2.40625 0zm-4.25 -1.34375q2.84375 0 4.25 -1.921875l0 -2.90625q-1.40625 -1.921875 -4.25 -1.921875q-1.703125 0 -2.765625 0.953125q-1.046875 0.9375 -1.046875 2.4375q0 1.46875 1.046875 2.421875q1.0625 0.9375 2.765625 0.9375zm21.879639 1.34375l0 -10.109375q0 -2.046875 -0.953125 -2.8125q-0.9375 -0.78125 -2.5 -0.78125q-1.34375 0 -2.640625 0.734375q-1.296875 0.71875 -1.9375 1.671875l0 11.296875l-2.390625 0l0 -15.453125l2.390625 0l0 2.234375q1.0 -1.15625 2.453125 -1.890625q1.453125 -0.734375 3.046875 -0.734375q4.9375 0 4.9375 5.0l0 10.84375l-2.40625 0zm18.397705 0l0 -2.296875q-0.859375 1.171875 -2.21875 1.9375q-1.359375 0.75 -2.984375 0.75q-3.109375 0 -5.0 -2.203125q-1.890625 -2.21875 -1.890625 -5.90625q0 -3.703125 1.90625 -5.90625q1.90625 -2.21875 4.984375 -2.21875q1.5625 0 2.921875 0.71875q1.359375 0.71875 2.28125 2.0l0 -8.21875l2.40625 0l0 21.34375l-2.40625 0zm-4.640625 -1.765625q1.453125 0 2.71875 -0.703125q1.28125 -0.703125 1.921875 -1.71875l0 -7.015625q-0.640625 -1.015625 -1.921875 -1.75q-1.265625 -0.75 -2.71875 -0.75q-2.234375 0 -3.59375 1.640625q-1.359375 1.625 -1.359375 4.34375q0 2.65625 1.34375 4.3125q1.34375 1.640625 3.609375 1.640625zm10.400024 -4.921875l0 -2.109375l7.6875 0l0 2.109375l-7.6875 0zm20.709412 6.6875l0 -1.765625q-1.953125 2.15625 -5.125 2.15625q-2.328125 0 -3.875 -1.46875q-1.53125 -1.484375 -1.53125 -3.65625q0 -2.234375 1.515625 -3.65625q1.53125 -1.4375 3.890625 -1.4375q3.328125 0 5.125 2.109375l0 -2.78125q0 -1.5625 -1.109375 -2.40625q-1.09375 -0.859375 -2.796875 -0.859375q-2.71875 0 -4.734375 2.15625l-1.125 -1.671875q2.46875 -2.5625 6.1875 -2.5625q2.84375 0 4.40625 1.375q1.578125 1.375 1.578125 3.84375l0 10.625l-2.40625 0zm-4.25 -1.34375q2.84375 0 4.25 -1.921875l0 -2.90625q-1.40625 -1.921875 -4.25 -1.921875q-1.703125 0 -2.765625 0.953125q-1.046875 0.9375 -1.046875 2.4375q0 1.46875 1.046875 2.421875q1.0625 0.9375 2.765625 0.9375zm17.660889 7.609375q-1.984375 0 -3.421875 -0.484375q-1.4375 -0.46875 -2.8125 -1.8125l1.203125 -1.796875q0.96875 1.15625 2.15625 1.625q1.203125 0.484375 2.875 0.484375q2.359375 0 3.65625 -1.234375q1.296875 -1.21875 1.296875 -3.40625l0 -2.203125q-0.828125 1.1875 -2.1875 1.96875q-1.359375 0.78125 -2.984375 0.78125q-3.140625 0 -5.015625 -2.203125q-1.875 -2.203125 -1.875 -5.796875q0 -3.703125 1.90625 -5.859375q1.90625 -2.171875 4.984375 -2.171875q3.1875 0 5.171875 2.71875l0 -2.328125l2.40625 0l0 15.0q0 3.265625 -1.921875 4.984375q-1.921875 1.734375 -5.4375 1.734375zm0.34375 -8.1875q1.3125 0 2.609375 -0.703125q1.296875 -0.703125 2.0 -1.828125l0 -6.75q-0.703125 -1.109375 -2.015625 -1.796875q-1.3125 -0.703125 -2.59375 -0.703125q-2.265625 0 -3.609375 1.640625q-1.34375 1.625 -1.34375 4.25q0 2.65625 1.375 4.28125q1.375 1.609375 3.578125 1.609375zm21.477417 1.921875l0 -1.765625q-1.953125 2.15625 -5.125 2.15625q-2.328125 0 -3.875 -1.46875q-1.53125 -1.484375 -1.53125 -3.65625q0 -2.234375 1.515625 -3.65625q1.53125 -1.4375 3.890625 -1.4375q3.328125 0 5.125 2.109375l0 -2.78125q0 -1.5625 -1.109375 -2.40625q-1.09375 -0.859375 -2.796875 -0.859375q-2.71875 0 -4.734375 2.15625l-1.125 -1.671875q2.46875 -2.5625 6.1875 -2.5625q2.84375 0 4.40625 1.375q1.578125 1.375 1.578125 3.84375l0 10.625l-2.40625 0zm-4.25 -1.34375q2.84375 0 4.25 -1.921875l0 -2.90625q-1.40625 -1.921875 -4.25 -1.921875q-1.703125 0 -2.765625 0.953125q-1.046875 0.9375 -1.046875 2.4375q0 1.46875 1.046875 2.421875q1.0625 0.9375 2.765625 0.9375zm12.629639 -16.3125q-0.640625 0 -1.125 -0.46875q-0.46875 -0.46875 -0.46875 -1.140625q0 -0.671875 0.46875 -1.140625q0.484375 -0.484375 1.125 -0.484375q0.671875 0 1.15625 0.484375q0.484375 0.46875 0.484375 1.140625q0 0.671875 -0.484375 1.140625q-0.484375 0.46875 -1.15625 0.46875zm-1.171875 17.65625l0 -15.453125l2.390625 0l0 15.453125l-2.390625 0zm17.621887 0l0 -10.109375q0 -2.046875 -0.953125 -2.8125q-0.9375 -0.78125 -2.5 -0.78125q-1.34375 0 -2.640625 0.734375q-1.296875 0.71875 -1.9375 1.671875l0 11.296875l-2.390625 0l0 -15.453125l2.390625 0l0 2.234375q1.0 -1.15625 2.453125 -1.890625q1.453125 -0.734375 3.046875 -0.734375q4.9375 0 4.9375 5.0l0 10.84375l-2.40625 0z" fill-rule="nonzero"></path></g></g></svg>

