<?xml version="1.0" standalone="yes"?>

<svg version="1.1" viewBox="0.0 0.0 960.0 540.0" fill="none" stroke="none" stroke-linecap="square" stroke-miterlimit="10" xmlns="http://www.w3.org/2000/svg" xmlns:xlink="http://www.w3.org/1999/xlink"><clipPath id="gc6f8badac_0_39.0"><path d="m0 0l960.0 0l0 540.0l-960.0 0l0 -540.0z" clip-rule="nonzero"></path></clipPath><g clip-path="url(#gc6f8badac_0_39.0)"><g id="gc6f8badac_0_39"><path fill="#ffffff" d="m0 0l960.0 0l0 540.0l-960.0 0l0 -540.0z" fill-rule="nonzero"></path><path fill="#ffffff" d="m0 0l960.0 0l0 540.0l-960.0 0z" fill-rule="nonzero"></path><path fill="#000000" fill-opacity="0.0" d="m0 0l960.00024 0l0 540.0001l-960.00024 0z" fill-rule="nonzero"></path><g transform="matrix(0.46875012014794537 0.0 0.0 0.46875337967983394 0.0 0.0)"><clipPath id="gc6f8badac_0_39.1"><path d="m0 0l2048.0 0l0 1151.992l-2048.0 0z" clip-rule="nonzero"></path></clipPath><image clip-path="url(#gc6f8badac_0_39.1)" fill="#000" width="2048.0" height="1362.0" x="0.0" y="0.0" preserveAspectRatio="none" xlink:href="https://lh3.googleusercontent.com/Wa1HAAmZQVQH74dpGIYmDdYguc3o5m4FFm9QYfHfWl-jSr6spHvXKboQLrlFILfHRHsnapjOiUxrbiXTMQfCpU-AIIxbH359tcWa12_5SLF1r0VsHRB5_41FEa0c7aXLmAA"></image></g><path fill="#000000" fill-opacity="0.7808" d="m0 153.77953l960.00006 0l0 232.44093l-960.00006 0z" fill-rule="nonzero"></path><path fill="#000000" fill-opacity="0.0" d="m51.46982 211.22835l268.09448 0l0 117.54332l-268.09448 0z" fill-rule="nonzero"></path><path fill="#ffffff" d="m70.18857 260.4l0 -23.71875l-8.4375 0l0 -2.96875l20.234375 0l0 2.96875l-8.46875 0l0 23.71875l-3.328125 0zm29.159348 0l0 -12.71875q0 -2.15625 -1.015625 -3.28125q-1.015625 -1.125 -3.34375 -1.125q-1.640625 0 -3.1875 0.84375q-1.53125 0.84375 -2.53125 2.15625l0 14.125l-3.0 0l0 -26.6875l3.0 0l0 10.171875q1.28125 -1.484375 3.109375 -2.375q1.84375 -0.90625 3.8125 -0.90625q6.15625 0 6.15625 6.15625l0 13.640625l-3.0 0zm17.720612 0.484375q-4.359375 0 -7.109375 -2.84375q-2.734375 -2.84375 -2.734375 -7.328125q0 -4.265625 2.71875 -7.1875q2.71875 -2.921875 6.8125 -2.921875q4.15625 0 6.71875 2.875q2.5625 2.875 2.5625 7.484375l0 0.75l-15.640625 0q0.15625 2.96875 2.125 4.828125q1.984375 1.859375 4.828125 1.859375q3.515625 0 5.953125 -2.4375l1.453125 1.953125q-2.96875 2.96875 -7.6875 2.96875zm6.0 -11.359375q0 -2.6875 -1.765625 -4.5625q-1.75 -1.875 -4.59375 -1.875q-2.671875 0 -4.453125 1.875q-1.78125 1.875 -1.859375 4.5625l12.671875 0z" fill-rule="nonzero"></path><path fill="#ffffff" d="m70.18857 308.4l0 -23.71875l-8.4375 0l0 -2.96875l20.234375 0l0 2.96875l-8.46875 0l0 23.71875l-3.328125 0zm24.799973 0.484375q-4.359375 0 -7.109375 -2.84375q-2.734375 -2.84375 -2.734375 -7.328125q0 -4.265625 2.71875 -7.1875q2.71875 -2.921875 6.8125 -2.921875q4.15625 0 6.71875 2.875q2.5625 2.875 2.5625 7.484375l0 0.75l-15.640625 0q0.15625 2.96875 2.125 4.828125q1.984375 1.859375 4.828125 1.859375q3.515625 0 5.953125 -2.4375l1.453125 1.953125q-2.96875 2.96875 -7.6875 2.96875zm6.0 -11.359375q0 -2.6875 -1.765625 -4.5625q-1.75 -1.875 -4.59375 -1.875q-2.671875 0 -4.453125 1.875q-1.78125 1.875 -1.859375 4.5625l12.671875 0zm16.316849 11.359375q-4.234375 0 -6.9375 -2.875q-2.703125 -2.890625 -2.703125 -7.296875q0 -4.359375 2.703125 -7.234375q2.703125 -2.875 6.9375 -2.875q4.484375 0 7.078125 3.359375l-2.0 1.84375q-1.828125 -2.53125 -4.90625 -2.53125q-2.96875 0 -4.828125 2.0625q-1.859375 2.0625 -1.859375 5.375q0 3.375 1.84375 5.4375q1.84375 2.046875 4.84375 2.046875q3.03125 0 4.90625 -2.515625l2.0 1.84375q-2.59375 3.359375 -7.078125 3.359375zm24.362488 -0.484375l0 -12.71875q0 -2.15625 -1.015625 -3.28125q-1.015625 -1.125 -3.34375 -1.125q-1.640625 0 -3.1875 0.84375q-1.53125 0.84375 -2.53125 2.15625l0 14.125l-3.0 0l0 -26.6875l3.0 0l0 10.171875q1.28125 -1.484375 3.109375 -2.375q1.84375 -0.90625 3.8125 -0.90625q6.15625 0 6.15625 6.15625l0 13.640625l-3.0 0zm22.048737 0l0 -12.640625q0 -2.5625 -1.1875 -3.515625q-1.171875 -0.96875 -3.140625 -0.96875q-1.671875 0 -3.296875 0.90625q-1.625 0.90625 -2.421875 2.09375l0 14.125l-3.0 0l0 -19.3125l3.0 0l0 2.796875q1.234375 -1.4375 3.046875 -2.359375q1.828125 -0.921875 3.828125 -0.921875q6.171875 0 6.171875 6.234375l0 13.5625l-3.0 0zm17.430603 0.484375q-4.203125 0 -6.890625 -2.859375q-2.671875 -2.859375 -2.671875 -7.3125q0 -4.46875 2.671875 -7.28125q2.6875 -2.828125 6.890625 -2.828125q4.203125 0 6.875 2.828125q2.6875 2.8125 2.6875 7.28125q0 4.453125 -2.6875 7.3125q-2.671875 2.859375 -6.875 2.859375zm0 -2.6875q2.796875 0 4.59375 -2.09375q1.8125 -2.109375 1.8125 -5.390625q0 -3.234375 -1.8125 -5.328125q-1.796875 -2.109375 -4.59375 -2.109375q-2.796875 0 -4.625 2.09375q-1.8125 2.078125 -1.8125 5.34375q0 3.328125 1.796875 5.40625q1.796875 2.078125 4.640625 2.078125zm14.442474 2.203125l0 -26.6875l3.0 0l0 26.6875l-3.0 0zm17.437485 0.484375q-4.203125 0 -6.890625 -2.859375q-2.671875 -2.859375 -2.671875 -7.3125q0 -4.46875 2.671875 -7.28125q2.6875 -2.828125 6.890625 -2.828125q4.203125 0 6.875 2.828125q2.6875 2.8125 2.6875 7.28125q0 4.453125 -2.6875 7.3125q-2.671875 2.859375 -6.875 2.859375zm0 -2.6875q2.796875 0 4.59375 -2.09375q1.8125 -2.109375 1.8125 -5.390625q0 -3.234375 -1.8125 -5.328125q-1.796875 -2.109375 -4.59375 -2.109375q-2.796875 0 -4.625 2.09375q-1.8125 2.078125 -1.8125 5.34375q0 3.328125 1.796875 5.40625q1.796875 2.078125 4.640625 2.078125zm22.2081 10.046875q-2.484375 0 -4.28125 -0.609375q-1.796875 -0.59375 -3.53125 -2.28125l1.53125 -2.234375q1.203125 1.4375 2.703125 2.03125q1.5 0.609375 3.578125 0.609375q2.953125 0 4.5625 -1.546875q1.625 -1.53125 1.625 -4.25l0 -2.765625q-1.03125 1.484375 -2.734375 2.46875q-1.703125 0.96875 -3.734375 0.96875q-3.921875 0 -6.265625 -2.75q-2.34375 -2.765625 -2.34375 -7.25q0 -4.640625 2.375 -7.328125q2.390625 -2.703125 6.234375 -2.703125q4.0 0 6.46875 3.390625l0 -2.90625l3.0 0l0 18.75q0 4.078125 -2.40625 6.234375q-2.390625 2.171875 -6.78125 2.171875zm0.4375 -10.25q1.640625 0 3.25 -0.875q1.625 -0.875 2.5 -2.28125l0 -8.4375q-0.875 -1.40625 -2.515625 -2.265625q-1.640625 -0.859375 -3.234375 -0.859375q-2.84375 0 -4.53125 2.046875q-1.671875 2.03125 -1.671875 5.3125q0 3.328125 1.71875 5.34375q1.71875 2.015625 4.484375 2.015625zm14.163101 7.25q0.640625 0.3125 1.640625 0.3125q1.0 0 1.671875 -0.421875q0.6875 -0.421875 1.203125 -1.609375l1.28125 -2.921875l-8.078125 -19.515625l3.234375 0l6.4375 15.828125l6.40625 -15.828125l3.28125 0l-9.6875 23.234375q-1.59375 3.84375 -5.671875 3.921875q-1.171875 0 -2.203125 -0.28125l0.484375 -2.71875z" fill-rule="nonzero"></path><path fill="#000000" fill-opacity="0.0" d="m347.16797 211.22835l0 117.54332" fill-rule="nonzero"></path><path stroke="#63d297" stroke-width="2.0" stroke-linejoin="round" stroke-linecap="butt" d="m347.16797 211.22835l0 117.54332" fill-rule="nonzero"></path><path fill="#000000" fill-opacity="0.0" d="m374.77167 211.22835l375.33856 0l0 117.54332l-375.33856 0z" fill-rule="nonzero"></path><path fill="#ffffff" d="m408.99042 293.76813q-9.40625 0 -15.6875 -6.296875q-6.265625 -6.3125 -6.265625 -15.84375q0 -9.65625 6.296875 -15.859375q6.3125 -6.21875 15.65625 -6.21875q10.046875 0 16.578125 8.0l-4.234375 2.625q-2.046875 -2.625 -5.28125 -4.25q-3.21875 -1.640625 -7.0625 -1.640625q-7.109375 0 -11.78125 4.9375q-4.671875 4.921875 -4.671875 12.40625q0 7.546875 4.703125 12.484375q4.703125 4.921875 11.75 4.921875q3.203125 0 6.265625 -1.25q3.078125 -1.25 5.1875 -3.359375l0 -8.703125l-14.65625 0l0 -4.734375l19.96875 0l0 15.421875q-6.65625 7.359375 -16.765625 7.359375zm25.397552 -0.828125l0 -42.6875l17.15625 0q6.078125 0 9.71875 3.65625q3.65625 3.640625 3.65625 9.203125q0 5.640625 -3.71875 9.265625q-3.703125 3.609375 -9.65625 3.609375l-11.84375 0l0 16.953125l-5.3125 0zm16.515625 -21.703125q3.84375 0 6.171875 -2.234375q2.34375 -2.234375 2.34375 -5.890625q0 -3.640625 -2.34375 -5.875q-2.328125 -2.25 -6.171875 -2.25l-11.203125 0l0 16.25l11.203125 0zm34.880432 22.46875q-10.296875 0 -16.375 -6.78125l3.125 -4.03125q2.625 2.9375 6.140625 4.515625q3.53125 1.5625 7.3125 1.5625q4.59375 0 7.3125 -2.046875q2.734375 -2.046875 2.734375 -5.3125q0 -5.0625 -7.9375 -7.234375q-9.40625 -2.5 -12.0 -3.96875q-2.59375 -1.46875 -3.96875 -3.671875q-1.375 -2.21875 -1.375 -5.28125q0 -5.125 4.125 -8.484375q4.125 -3.359375 10.53125 -3.359375q9.59375 0 15.15625 5.953125l-3.1875 3.90625q-4.609375 -5.125 -12.359375 -5.125q-3.84375 0 -6.3125 1.859375q-2.453125 1.859375 -2.453125 4.921875q0 2.25 2.046875 3.8125q2.046875 1.5625 5.953125 2.53125q9.09375 2.5 11.75 4.09375q2.65625 1.59375 4.09375 3.9375q1.4375 2.328125 1.4375 5.65625q0 5.890625 -4.296875 9.21875q-4.28125 3.328125 -11.453125 3.328125zm53.000275 -20.671875l0 13.640625l-3.65625 0l0 -13.640625l-12.28125 0l0 -3.328125l12.28125 0l0 -13.25l3.65625 0l0 13.25l12.28125 0l0 3.328125l-12.28125 0zm60.354187 19.90625l-10.890625 -16.953125l-8.515625 0l0 16.953125l-5.3125 0l0 -42.6875l17.15625 0q6.015625 0 9.6875 3.59375q3.6875 3.578125 3.6875 9.265625q0 5.375 -3.109375 8.671875q-3.09375 3.296875 -7.953125 3.75l11.515625 17.40625l-6.265625 0zm-8.203125 -21.625q3.84375 0 6.171875 -2.265625q2.34375 -2.28125 2.34375 -5.9375q0 -3.640625 -2.34375 -5.875q-2.328125 -2.25 -6.171875 -2.25l-11.203125 0l0 16.328125l11.203125 0zm22.396301 21.625l0 -42.6875l27.96875 0l0 4.734375l-22.65625 0l0 13.765625l22.21875 0l0 4.734375l-22.21875 0l0 19.453125l-5.3125 0zm35.19995 0l0 -42.6875l5.3125 0l0 42.6875l-5.3125 0zm15.295959 0l0 -42.6875l14.59375 0q9.734375 0 15.8125 6.046875q6.078125 6.046875 6.078125 15.328125q0 9.34375 -6.109375 15.328125q-6.109375 5.984375 -15.78125 5.984375l-14.59375 0zm14.59375 -4.734375q7.296875 0 11.84375 -4.578125q4.546875 -4.578125 4.546875 -12.0q0 -7.421875 -4.484375 -12.03125q-4.46875 -4.609375 -11.90625 -4.609375l-9.28125 0l0 33.21875l9.28125 0z" fill-rule="nonzero"></path></g></g></svg>

