<?xml version="1.0" standalone="yes"?>

<svg version="1.1" viewBox="0.0 0.0 960.0 540.0" fill="none" stroke="none" stroke-linecap="square" stroke-miterlimit="10" xmlns="http://www.w3.org/2000/svg" xmlns:xlink="http://www.w3.org/1999/xlink"><clipPath id="gc6f8badac_0_5.0"><path d="m0 0l960.0 0l0 540.0l-960.0 0l0 -540.0z" clip-rule="nonzero"></path></clipPath><g clip-path="url(#gc6f8badac_0_5.0)"><g id="gc6f8badac_0_5"><path fill="#ffffff" d="m0 0l960.0 0l0 540.0l-960.0 0l0 -540.0z" fill-rule="nonzero"></path><path fill="#ffffff" d="m0 0l960.0 0l0 540.0l-960.0 0z" fill-rule="nonzero"></path><path fill="#000000" fill-opacity="0.0" d="m51.46982 55.259842l608.6614 0l0 429.48035l-608.6614 0z" fill-rule="nonzero"></path><path fill="#202729" d="m84.92294 178.20563q-9.40625 0 -15.296875 -6.265625q-5.890625 -6.28125 -5.890625 -15.8125q0 -9.59375 5.921875 -15.828125q5.921875 -6.25 15.265625 -6.25q9.40625 0 15.28125 6.28125q5.890625 6.265625 5.890625 15.796875q0 9.59375 -5.921875 15.84375q-5.90625 6.234375 -15.25 6.234375zm0 -4.734375q6.96875 0 11.3125 -4.890625q4.359375 -4.90625 4.359375 -12.453125q0 -7.671875 -4.359375 -12.5q-4.34375 -4.84375 -11.3125 -4.84375q-6.921875 0 -11.3125 4.734375q-4.375 4.734375 -4.375 12.609375q0 7.6875 4.3125 12.515625q4.328125 4.828125 11.375 4.828125zm50.16304 3.96875l0 -4.359375q-1.78125 2.0625 -4.671875 3.59375q-2.875 1.53125 -6.328125 1.53125q-9.859375 0 -9.859375 -9.859375l0 -21.8125l4.796875 0l0 20.34375q0 3.65625 1.65625 5.359375q1.671875 1.6875 5.265625 1.6875q2.8125 0 5.296875 -1.40625q2.5 -1.421875 3.84375 -3.265625l0 -22.71875l4.8125 0l0 30.90625l-4.8125 0zm14.404572 0l0 -30.90625l4.796875 0l0 4.984375q4.296875 -5.625 10.3125 -5.625l0 4.921875l-1.921875 -0.1875q-2.171875 0 -4.796875 1.5625q-2.625 1.5625 -3.59375 3.359375l0 21.890625l-4.796875 0zm74.94444 0l0 -20.984375q0 -6.40625 -5.6875 -6.40625q-2.4375 0 -4.71875 1.4375q-2.265625 1.4375 -3.484375 3.296875l0 22.65625l-4.796875 0l0 -20.984375q0 -6.40625 -5.6875 -6.40625q-2.375 0 -4.625 1.46875q-2.234375 1.46875 -3.515625 3.328125l0 22.59375l-4.796875 0l0 -30.90625l4.796875 0l0 4.46875q1.09375 -1.84375 4.09375 -3.546875q3.015625 -1.703125 5.890625 -1.703125q3.59375 0 5.609375 1.671875q2.015625 1.65625 2.71875 4.09375q1.59375 -2.5 4.53125 -4.125q2.953125 -1.640625 5.828125 -1.640625q8.640625 0 8.640625 9.34375l0 22.34375l-4.796875 0zm16.774414 -35.328125q-1.28125 0 -2.25 -0.921875q-0.953125 -0.9375 -0.953125 -2.28125q0 -1.34375 0.953125 -2.296875q0.96875 -0.96875 2.25 -0.96875q1.34375 0 2.296875 0.96875q0.96875 0.953125 0.96875 2.296875q0 1.34375 -0.96875 2.28125q-0.953125 0.921875 -2.296875 0.921875zm-2.375 35.328125l0 -30.90625l4.796875 0l0 30.90625l-4.796875 0zm24.196838 0.765625q-7.8749847 0 -12.48436 -4.859375l2.5 -3.453125q1.53125 1.78125 4.2499847 3.09375q2.71875 1.3125 5.921875 1.3125q3.59375 0 5.4375 -1.5q1.859375 -1.5 1.859375 -3.8125q0 -2.046875 -2.015625 -3.21875q-2.015625 -1.1875 -7.515625 -2.46875q-4.671875 -0.96875 -7.1406097 -3.046875q-2.46875 -2.078125 -2.46875 -5.59375q0 -3.90625 3.140625 -6.40625q3.1406097 -2.5 8.39061 -2.5q6.96875 0 11.453125 4.484375l-2.234375 3.328125q-1.421875 -1.65625 -3.828125 -2.78125q-2.390625 -1.125 -5.390625 -1.125q-3.203125 0 -5.03125 1.421875q-1.828125 1.40625 -1.828125 3.453125q0 1.84375 2.046875 2.9375q2.0625 1.09375 7.5625 2.234375q4.671875 1.09375 7.09375 3.3125q2.4375 2.203125 2.4375 5.84375q0 4.296875 -3.328125 6.828125q-3.328125 2.515625 -8.828125 2.515625zm29.759949 0q-7.875 0 -12.484375 -4.859375l2.5 -3.453125q1.53125 1.78125 4.25 3.09375q2.71875 1.3125 5.921875 1.3125q3.59375 0 5.4375 -1.5q1.859375 -1.5 1.859375 -3.8125q0 -2.046875 -2.015625 -3.21875q-2.015625 -1.1875 -7.515625 -2.46875q-4.671875 -0.96875 -7.140625 -3.046875q-2.46875 -2.078125 -2.46875 -5.59375q0 -3.90625 3.140625 -6.40625q3.140625 -2.5 8.390625 -2.5q6.96875 0 11.453125 4.484375l-2.234375 3.328125q-1.421875 -1.65625 -3.828125 -2.78125q-2.390625 -1.125 -5.390625 -1.125q-3.203125 0 -5.03125 1.421875q-1.828125 1.40625 -1.828125 3.453125q0 1.84375 2.046875 2.9375q2.0625 1.09375 7.5625 2.234375q4.671875 1.09375 7.09375 3.3125q2.4375 2.203125 2.4375 5.84375q0 4.296875 -3.328125 6.828125q-3.328125 2.515625 -8.828125 2.515625zm22.338104 -36.09375q-1.28125 0 -2.25 -0.921875q-0.953125 -0.9375 -0.953125 -2.28125q0 -1.34375 0.953125 -2.296875q0.96875 -0.96875 2.25 -0.96875q1.34375 0 2.296875 0.96875q0.96875 0.953125 0.96875 2.296875q0 1.34375 -0.96875 2.28125q-0.953125 0.921875 -2.296875 0.921875zm-2.375 35.328125l0 -30.90625l4.796875 0l0 30.90625l-4.796875 0zm27.899963 0.765625q-6.71875 0 -11.0 -4.578125q-4.28125 -4.578125 -4.28125 -11.671875q0 -7.171875 4.28125 -11.6875q4.28125 -4.515625 11.0 -4.515625q6.734375 0 11.015625 4.515625q4.28125 4.515625 4.28125 11.6875q0 7.09375 -4.28125 11.671875q-4.28125 4.578125 -11.015625 4.578125zm0 -4.28125q4.484375 0 7.359375 -3.359375q2.890625 -3.359375 2.890625 -8.609375q0 -5.1875 -2.890625 -8.546875q-2.875 -3.359375 -7.359375 -3.359375q-4.46875 0 -7.390625 3.328125q-2.90625 3.328125 -2.90625 8.578125q0 5.3125 2.875 8.640625q2.890625 3.328125 7.421875 3.328125zm43.967316 3.515625l0 -20.21875q0 -4.09375 -1.890625 -5.625q-1.875 -1.546875 -5.015625 -1.546875q-2.6875 0 -5.28125 1.4375q-2.59375 1.4375 -3.875 3.359375l0 22.59375l-4.796875 0l0 -30.90625l4.796875 0l0 4.46875q1.984375 -2.296875 4.890625 -3.765625q2.921875 -1.484375 6.125 -1.484375q9.859375 0 9.859375 9.984375l0 21.703125l-4.8125 0zm33.291534 -35.328125q-1.28125 0 -2.25 -0.921875q-0.953125 -0.9375 -0.953125 -2.28125q0 -1.34375 0.953125 -2.296875q0.96875 -0.96875 2.25 -0.96875q1.34375 0 2.296875 0.96875q0.96875 0.953125 0.96875 2.296875q0 1.34375 -0.96875 2.28125q-0.953125 0.921875 -2.296875 0.921875zm-2.375 35.328125l0 -30.90625l4.796875 0l0 30.90625l-4.796875 0zm24.196838 0.765625q-7.875 0 -12.484375 -4.859375l2.5 -3.453125q1.53125 1.78125 4.25 3.09375q2.71875 1.3125 5.921875 1.3125q3.59375 0 5.4375 -1.5q1.859375 -1.5 1.859375 -3.8125q0 -2.046875 -2.015625 -3.21875q-2.015625 -1.1875 -7.515625 -2.46875q-4.671875 -0.96875 -7.140625 -3.046875q-2.46875 -2.078125 -2.46875 -5.59375q0 -3.90625 3.140625 -6.40625q3.140625 -2.5 8.390625 -2.5q6.96875 0 11.453125 4.484375l-2.234375 3.328125q-1.421875 -1.65625 -3.828125 -2.78125q-2.390625 -1.125 -5.390625 -1.125q-3.203125 0 -5.03125 1.421875q-1.828125 1.40625 -1.828125 3.453125q0 1.84375 2.046875 2.9375q2.0625 1.09375 7.5625 2.234375q4.671875 1.09375 7.09375 3.3125q2.4375 2.203125 2.4375 5.84375q0 4.296875 -3.328125 6.828125q-3.328125 2.515625 -8.828125 2.515625zm36.475037 -0.765625l0 -42.6875l4.796875 0l0 42.6875l-4.796875 0zm27.899963 0.765625q-6.71875 0 -11.0 -4.578125q-4.28125 -4.578125 -4.28125 -11.671875q0 -7.171875 4.28125 -11.6875q4.28125 -4.515625 11.0 -4.515625q6.734375 0 11.0155945 4.515625q4.28125 4.515625 4.28125 11.6875q0 7.09375 -4.28125 11.671875q-4.2812195 4.578125 -11.0155945 4.578125zm0 -4.28125q4.484375 0 7.359375 -3.359375q2.8905945 -3.359375 2.8905945 -8.609375q0 -5.1875 -2.8905945 -8.546875q-2.875 -3.359375 -7.359375 -3.359375q-4.46875 0 -7.390625 3.328125q-2.90625 3.328125 -2.90625 8.578125q0 5.3125 2.875 8.640625q2.890625 3.328125 7.421875 3.328125zm23.10794 3.515625l0 -30.90625l4.796875 0l0 4.984375q4.296875 -5.625 10.3125 -5.625l0 4.921875l-1.921875 -0.1875q-2.171875 0 -4.796875 1.5625q-2.625 1.5625 -3.59375 3.359375l0 21.890625l-4.796875 0zm35.07306 0.765625q-6.96875 0 -11.359375 -4.53125q-4.375 -4.546875 -4.375 -11.71875q0 -6.859375 4.34375 -11.53125q4.359375 -4.671875 10.875 -4.671875q6.65625 0 10.75 4.609375q4.109375 4.609375 4.109375 11.96875l0 1.21875l-25.03125 0q0.25 4.734375 3.421875 7.71875q3.171875 2.96875 7.71875 2.96875q5.625 0 9.53125 -3.90625l2.3125 3.140625q-4.75 4.734375 -12.296875 4.734375zm9.609375 -18.171875q0 -4.296875 -2.828125 -7.296875q-2.8125 -3.015625 -7.359375 -3.015625q-4.28125 0 -7.140625 3.015625q-2.84375 3.0 -2.96875 7.296875l20.296875 0zm49.78192 17.40625l0 -20.984375q0 -6.40625 -5.6875 -6.40625q-2.4375 0 -4.71875 1.4375q-2.265625 1.4375 -3.484375 3.296875l0 22.65625l-4.796875 0l0 -20.984375q0 -6.40625 -5.6875 -6.40625q-2.375 0 -4.625 1.46875q-2.234375 1.46875 -3.515625 3.328125l0 22.59375l-4.796875 0l0 -30.90625l4.796875 0l0 4.46875q1.09375 -1.84375 4.09375 -3.546875q3.015625 -1.703125 5.890625 -1.703125q3.59375 0 5.609375 1.671875q2.015625 1.65625 2.71875 4.09375q1.59375 -2.5 4.53125 -4.125q2.953125 -1.640625 5.828125 -1.640625q8.640625 0 8.640625 9.34375l0 22.34375l-4.796875 0z" fill-rule="nonzero"></path><path fill="#202729" d="m67.64169 219.11188q-1.28125 0 -2.25 -0.921875q-0.953125 -0.9375 -0.953125 -2.28125q0 -1.34375 0.953125 -2.296875q0.96875 -0.96875 2.25 -0.96875q1.34375 0 2.296875 0.96875q0.96875 0.953125 0.96875 2.296875q0 1.34375 -0.96875 2.28125q-0.953125 0.921875 -2.296875 0.921875zm-2.375 35.328125l0 -30.90625l4.796875 0l0 30.90625l-4.796875 0zm29.634354 0.765625q-6.59375 0 -10.4375 -5.4375l0 16.453125l-4.796875 0l0 -42.6875l4.796875 0l0 4.609375q1.671875 -2.375 4.421875 -3.875q2.75 -1.515625 6.015625 -1.515625q6.203125 0 9.984375 4.359375q3.78125 4.359375 3.78125 11.84375q0 7.421875 -3.75 11.84375q-3.75 4.40625 -10.015625 4.40625zm-1.21875 -4.28125q4.484375 0 7.203125 -3.265625q2.71875 -3.265625 2.71875 -8.703125q0 -5.3125 -2.6875 -8.609375q-2.6875 -3.296875 -7.234375 -3.296875q-2.875 0 -5.40625 1.4375q-2.53125 1.4375 -3.8125 3.484375l0 13.953125q1.28125 2.046875 3.8125 3.53125q2.53125 1.46875 5.40625 1.46875zm32.38919 4.28125q-7.875 0 -12.484375 -4.859375l2.5 -3.453125q1.53125 1.78125 4.25 3.09375q2.71875 1.3125 5.921875 1.3125q3.59375 0 5.4375 -1.5q1.859375 -1.5 1.859375 -3.8125q0 -2.046875 -2.015625 -3.21875q-2.015625 -1.1875 -7.515625 -2.46875q-4.671875 -0.96875 -7.140625 -3.046875q-2.46875 -2.078125 -2.46875 -5.59375q0 -3.90625 3.140625 -6.40625q3.140625 -2.5 8.390625 -2.5q6.96875 0 11.453125 4.484375l-2.234375 3.328125q-1.421875 -1.65625 -3.828125 -2.78125q-2.390625 -1.125 -5.390625 -1.125q-3.203125 0 -5.03125 1.421875q-1.828125 1.40625 -1.828125 3.453125q0 1.84375 2.046875 2.9375q2.0625 1.09375 7.5625 2.234375q4.671875 1.09375 7.09375 3.3125q2.4375 2.203125 2.4375 5.84375q0 4.296875 -3.328125 6.828125q-3.328125 2.515625 -8.828125 2.515625zm40.82245 -0.765625l0 -4.359375q-1.78125 2.0625 -4.671875 3.59375q-2.875 1.53125 -6.328125 1.53125q-9.859375 0 -9.859375 -9.859375l0 -21.8125l4.796875 0l0 20.34375q0 3.65625 1.65625 5.359375q1.671875 1.6875 5.265625 1.6875q2.8125 0 5.296875 -1.40625q2.5 -1.421875 3.84375 -3.265625l0 -22.71875l4.8125 0l0 30.90625l-4.8125 0zm51.71707 0l0 -20.984375q0 -6.40625 -5.6875 -6.40625q-2.4375 0 -4.71875 1.4375q-2.265625 1.4375 -3.484375 3.296875l0 22.65625l-4.796875 0l0 -20.984375q0 -6.40625 -5.6875 -6.40625q-2.375 0 -4.625 1.46875q-2.234375 1.46875 -3.515625 3.328125l0 22.59375l-4.796875 0l0 -30.90625l4.796875 0l0 4.46875q1.09375 -1.84375 4.09375 -3.546875q3.015625 -1.703125 5.890625 -1.703125q3.59375 0 5.609375 1.671875q2.015625 1.65625 2.71875 4.09375q1.59375 -2.5 4.53125 -4.125q2.953125 -1.640625 5.828125 -1.640625q8.640625 0 8.640625 9.34375l0 22.34375l-4.796875 0zm53.317642 0l0 -4.609375q-1.734375 2.375 -4.453125 3.875q-2.71875 1.5 -5.984375 1.5q-6.203125 0 -9.984375 -4.40625q-3.765625 -4.421875 -3.765625 -11.78125q0 -7.421875 3.796875 -11.84375q3.8125 -4.421875 9.953125 -4.421875q3.140625 0 5.859375 1.453125q2.71875 1.4375 4.578125 4.0l0 -16.453125l4.796875 0l0 42.6875l-4.796875 0zm-9.28125 -3.515625q2.875 0 5.4375 -1.40625q2.5625 -1.421875 3.84375 -3.46875l0 -14.015625q-1.28125 -2.046875 -3.84375 -3.515625q-2.5625 -1.46875 -5.4375 -1.46875q-4.484375 0 -7.203125 3.265625q-2.71875 3.265625 -2.71875 8.703125q0 5.3125 2.6875 8.609375q2.6875 3.296875 7.234375 3.296875zm37.174927 4.28125q-6.71875 0 -11.0 -4.578125q-4.28125 -4.578125 -4.28125 -11.671875q0 -7.171875 4.28125 -11.6875q4.28125 -4.515625 11.0 -4.515625q6.734375 0 11.0156555 4.515625q4.28125 4.515625 4.28125 11.6875q0 7.09375 -4.28125 11.671875q-4.2812805 4.578125 -11.0156555 4.578125zm0 -4.28125q4.484375 0 7.359375 -3.359375q2.8906555 -3.359375 2.8906555 -8.609375q0 -5.1875 -2.8906555 -8.546875q-2.875 -3.359375 -7.359375 -3.359375q-4.46875 0 -7.390625 3.328125q-2.90625 3.328125 -2.90625 8.578125q0 5.3125 2.875 8.640625q2.890625 3.328125 7.421875 3.328125zm23.10794 3.515625l0 -42.6875l4.796875 0l0 42.6875l-4.796875 0zm27.899963 0.765625q-6.71875 0 -11.0 -4.578125q-4.28125 -4.578125 -4.28125 -11.671875q0 -7.171875 4.28125 -11.6875q4.28125 -4.515625 11.0 -4.515625q6.734375 0 11.015625 4.515625q4.28125 4.515625 4.28125 11.6875q0 7.09375 -4.28125 11.671875q-4.28125 4.578125 -11.015625 4.578125zm0 -4.28125q4.484375 0 7.359375 -3.359375q2.890625 -3.359375 2.890625 -8.609375q0 -5.1875 -2.890625 -8.546875q-2.875 -3.359375 -7.359375 -3.359375q-4.46875 0 -7.390625 3.328125q-2.90625 3.328125 -2.90625 8.578125q0 5.3125 2.875 8.640625q2.890625 3.328125 7.421875 3.328125zm23.10794 3.515625l0 -30.90625l4.796875 0l0 4.984375q4.296875 -5.625 10.3125 -5.625l0 4.921875l-1.921875 -0.1875q-2.171875 0 -4.796875 1.5625q-2.625 1.5625 -3.59375 3.359375l0 21.890625l-4.796875 0zm47.428802 0.765625q-7.875 0 -12.484375 -4.859375l2.5 -3.453125q1.53125 1.78125 4.25 3.09375q2.71875 1.3125 5.921875 1.3125q3.59375 0 5.4375 -1.5q1.859375 -1.5 1.859375 -3.8125q0 -2.046875 -2.015625 -3.21875q-2.015625 -1.1875 -7.515625 -2.46875q-4.671875 -0.96875 -7.140625 -3.046875q-2.46875 -2.078125 -2.46875 -5.59375q0 -3.90625 3.140625 -6.40625q3.140625 -2.5 8.390625 -2.5q6.96875 0 11.453125 4.484375l-2.234375 3.328125q-1.421875 -1.65625 -3.828125 -2.78125q-2.390625 -1.125 -5.390625 -1.125q-3.203125 0 -5.03125 1.421875q-1.828125 1.40625 -1.828125 3.453125q0 1.84375 2.046875 2.9375q2.0625 1.09375 7.5625 2.234375q4.671875 1.09375 7.09375 3.3125q2.4375 2.203125 2.4375 5.84375q0 4.296875 -3.328125 6.828125q-3.328125 2.515625 -8.828125 2.515625zm22.338074 -36.09375q-1.28125 0 -2.25 -0.921875q-0.953125 -0.9375 -0.953125 -2.28125q0 -1.34375 0.953125 -2.296875q0.96875 -0.96875 2.25 -0.96875q1.34375 0 2.296875 0.96875q0.96875 0.953125 0.96875 2.296875q0 1.34375 -0.96875 2.28125q-0.953125 0.921875 -2.296875 0.921875zm-2.375 35.328125l0 -30.90625l4.796875 0l0 30.90625l-4.796875 0zm22.212463 0.765625q-6.84375 0 -6.84375 -7.234375l0 -20.21875l-5.125 0l0 -4.21875l5.125 0l0 -8.453125l4.796875 0l0 8.453125l6.265625 0l0 4.21875l-6.265625 0l0 19.203125q0 1.71875 0.765625 2.84375q0.765625 1.125 2.375 1.125q1.984375 0 3.25 -1.28125l1.421875 3.578125q-1.984375 1.984375 -5.765625 1.984375zm46.843567 -0.765625l0 -3.515625q-3.90625 4.28125 -10.234375 4.28125q-4.671875 0 -7.75 -2.9375q-3.0625 -2.953125 -3.0625 -7.296875q0 -4.484375 3.03125 -7.328125q3.046875 -2.84375 7.78125 -2.84375q6.65625 0 10.234375 4.21875l0 -5.5625q0 -3.140625 -2.203125 -4.828125q-2.203125 -1.703125 -5.609375 -1.703125q-5.4375 0 -9.46875 4.28125l-2.234375 -3.328125q4.921875 -5.125 12.34375 -5.125q5.703125 0 8.8280945 2.765625q3.140625 2.75 3.140625 7.671875l0 21.25l-4.7968445 0zm-8.515625 -2.6875q5.703125 0 8.515625 -3.84375l0 -5.828125q-2.8125 -3.828125 -8.515625 -3.828125q-3.390625 0 -5.5 1.890625q-2.109375 1.875 -2.109375 4.890625q0 2.9375 2.109375 4.828125q2.109375 1.890625 5.5 1.890625zm60.227936 2.6875l0 -20.984375q0 -6.40625 -5.6875 -6.40625q-2.4375 0 -4.71875 1.4375q-2.265625 1.4375 -3.484375 3.296875l0 22.65625l-4.796875 0l0 -20.984375q0 -6.40625 -5.6875 -6.40625q-2.375 0 -4.625 1.46875q-2.234375 1.46875 -3.515625 3.328125l0 22.59375l-4.796875 0l0 -30.90625l4.796875 0l0 4.46875q1.09375 -1.84375 4.09375 -3.546875q3.015625 -1.703125 5.890625 -1.703125q3.59375 0 5.609375 1.671875q2.015625 1.65625 2.71875 4.09375q1.59375 -2.5 4.53125 -4.125q2.953125 -1.640625 5.828125 -1.640625q8.640564 0 8.640564 9.34375l0 22.34375l-4.796814 0zm28.352478 0.765625q-6.96875 0 -11.359375 -4.53125q-4.375 -4.546875 -4.375 -11.71875q0 -6.859375 4.34375 -11.53125q4.359375 -4.671875 10.875 -4.671875q6.65625 0 10.75 4.609375q4.109375 4.609375 4.109375 11.96875l0 1.21875l-25.03125 0q0.25 4.734375 3.421875 7.71875q3.171875 2.96875 7.71875 2.96875q5.625 0 9.53125 -3.90625l2.3125 3.140625q-4.75 4.734375 -12.296875 4.734375zm9.609375 -18.171875q0 -4.296875 -2.828125 -7.296875q-2.8125 -3.015625 -7.359375 -3.015625q-4.28125 0 -7.140625 3.015625q-2.84375 3.0 -2.96875 7.296875l20.296875 0zm20.281982 18.171875q-6.84375 0 -6.84375 -7.234375l0 -20.21875l-5.125 0l0 -4.21875l5.125 0l0 -8.453125l4.796875 0l0 8.453125l6.265625 0l0 4.21875l-6.265625 0l0 19.203125q0 1.71875 0.765625 2.84375q0.765625 1.125 2.375 1.125q1.984375 0 3.25 -1.28125l1.421875 3.578125q-1.984375 1.984375 -5.765625 1.984375zm17.472229 -2.296875q0 2.9375 -1.515625 5.5q-1.5 2.5625 -3.734375 4.15625l-2.375 -1.984375q1.546875 -1.015625 2.75 -2.6875q1.21875 -1.65625 1.421875 -3.265625l-0.90625 0.125q-1.34375 0 -2.203125 -0.890625q-0.859375 -0.890625 -0.859375 -2.359375q0 -1.421875 0.953125 -2.4375q0.96875 -1.03125 2.4375 -1.03125q1.59375 0 2.8125 1.28125q1.21875 1.28125 1.21875 3.59375z" fill-rule="nonzero"></path><path fill="#202729" d="m78.90732 332.20563q-6.796875 0 -11.109375 -4.609375q-4.3125 -4.609375 -4.3125 -11.640625q0 -6.984375 4.3125 -11.59375q4.3125 -4.609375 11.109375 -4.609375q7.15625 0 11.328125 5.390625l-3.203125 2.9375q-2.953125 -4.03125 -7.875 -4.03125q-4.734375 0 -7.71875 3.296875q-2.96875 3.296875 -2.96875 8.609375q0 5.375 2.9375 8.671875q2.953125 3.296875 7.75 3.296875q4.859375 0 7.875 -4.03125l3.203125 2.9375q-4.171875 5.375 -11.328125 5.375zm31.539322 0q-6.71875 0 -11.0 -4.578125q-4.28125 -4.578125 -4.28125 -11.671875q0 -7.171875 4.28125 -11.6875q4.28125 -4.515625 11.0 -4.515625q6.734375 0 11.015625 4.515625q4.28125 4.515625 4.28125 11.6875q0 7.09375 -4.28125 11.671875q-4.28125 4.578125 -11.015625 4.578125zm0 -4.28125q4.484375 0 7.359375 -3.359375q2.890625 -3.359375 2.890625 -8.609375q0 -5.1875 -2.890625 -8.546875q-2.875 -3.359375 -7.359375 -3.359375q-4.46875 0 -7.390625 3.328125q-2.90625 3.328125 -2.90625 8.578125q0 5.3125 2.875 8.640625q2.890625 3.328125 7.421875 3.328125zm43.967316 3.515625l0 -20.21875q0 -4.09375 -1.890625 -5.625q-1.875 -1.546875 -5.015625 -1.546875q-2.6875 0 -5.28125 1.4375q-2.59375 1.4375 -3.875 3.359375l0 22.59375l-4.796875 0l0 -30.90625l4.796875 0l0 4.46875q1.984375 -2.296875 4.890625 -3.765625q2.921875 -1.484375 6.125 -1.484375q9.859375 0 9.859375 9.984375l0 21.703125l-4.8125 0zm24.201447 0.765625q-7.875 0 -12.484375 -4.859375l2.5 -3.453125q1.53125 1.78125 4.25 3.09375q2.71875 1.3125 5.921875 1.3125q3.59375 0 5.4375 -1.5q1.859375 -1.5 1.859375 -3.8125q0 -2.046875 -2.015625 -3.21875q-2.015625 -1.1875 -7.515625 -2.46875q-4.671875 -0.96875 -7.140625 -3.046875q-2.46875 -2.078125 -2.46875 -5.59375q0 -3.90625 3.140625 -6.40625q3.140625 -2.5 8.390625 -2.5q6.96875 0 11.453125 4.484375l-2.234375 3.328125q-1.421875 -1.65625 -3.828125 -2.78125q-2.390625 -1.125 -5.390625 -1.125q-3.203125 0 -5.03125 1.421875q-1.828125 1.40625 -1.828125 3.453125q0 1.84375 2.046875 2.9375q2.0625 1.09375 7.5625 2.234375q4.671875 1.09375 7.09375 3.3125q2.4375 2.203125 2.4375 5.84375q0 4.296875 -3.328125 6.828125q-3.328125 2.515625 -8.828125 2.515625zm33.9162 0q-6.96875 0 -11.359375 -4.53125q-4.375 -4.546875 -4.375 -11.71875q0 -6.859375 4.34375 -11.53125q4.359375 -4.671875 10.875 -4.671875q6.65625 0 10.75 4.609375q4.109375 4.609375 4.109375 11.96875l0 1.21875l-25.03125 0q0.25 4.734375 3.421875 7.71875q3.171875 2.96875 7.71875 2.96875q5.625 0 9.53125 -3.90625l2.3125 3.140625q-4.75 4.734375 -12.296875 4.734375zm9.609375 -18.171875q0 -4.296875 -2.828125 -7.296875q-2.8125 -3.015625 -7.359375 -3.015625q-4.28125 0 -7.140625 3.015625q-2.84375 3.0 -2.96875 7.296875l20.296875 0zm26.110062 18.171875q-6.796875 0 -11.109375 -4.609375q-4.3125 -4.609375 -4.3125 -11.640625q0 -6.984375 4.3125 -11.59375q4.3125 -4.609375 11.109375 -4.609375q7.15625 0 11.328125 5.390625l-3.203125 2.9375q-2.953125 -4.03125 -7.875 -4.03125q-4.734375 0 -7.71875 3.296875q-2.96875 3.296875 -2.96875 8.609375q0 5.375 2.9375 8.671875q2.953125 3.296875 7.75 3.296875q4.859375 0 7.875 -4.03125l3.203125 2.9375q-4.171875 5.375 -11.328125 5.375zm25.851807 0q-6.84375 0 -6.84375 -7.234375l0 -20.21875l-5.125 0l0 -4.21875l5.125 0l0 -8.453125l4.796875 0l0 8.453125l6.265625 0l0 4.21875l-6.265625 0l0 19.203125q0 1.71875 0.765625 2.84375q0.765625 1.125 2.375 1.125q1.984375 0 3.25 -1.28125l1.421875 3.578125q-1.984375 1.984375 -5.765625 1.984375zm24.956604 0q-6.96875 0 -11.359375 -4.53125q-4.375 -4.546875 -4.375 -11.71875q0 -6.859375 4.34375 -11.53125q4.359375 -4.671875 10.875 -4.671875q6.65625 0 10.75 4.609375q4.109375 4.609375 4.109375 11.96875l0 1.21875l-25.03125 0q0.25 4.734375 3.421875 7.71875q3.171875 2.96875 7.71875 2.96875q5.625 0 9.53125 -3.90625l2.3125 3.140625q-4.75 4.734375 -12.296875 4.734375zm9.609375 -18.171875q0 -4.296875 -2.828125 -7.296875q-2.8125 -3.015625 -7.359375 -3.015625q-4.28125 0 -7.140625 3.015625q-2.84375 3.0 -2.96875 7.296875l20.296875 0zm20.281952 18.171875q-6.84375 0 -6.84375 -7.234375l0 -20.21875l-5.125 0l0 -4.21875l5.125 0l0 -8.453125l4.796875 0l0 8.453125l6.265625 0l0 4.21875l-6.265625 0l0 19.203125q0 1.71875 0.765625 2.84375q0.765625 1.125 2.375 1.125q1.984375 0 3.25 -1.28125l1.421875 3.578125q-1.984375 1.984375 -5.765625 1.984375zm31.862823 -0.765625l0 -4.359375q-1.78125 2.0625 -4.671875 3.59375q-2.875 1.53125 -6.328125 1.53125q-9.859375 0 -9.859375 -9.859375l0 -21.8125l4.796875 0l0 20.34375q0 3.65625 1.65625 5.359375q1.671875 1.6875 5.265625 1.6875q2.8125 0 5.296875 -1.40625q2.5 -1.421875 3.84375 -3.265625l0 -22.71875l4.8125 0l0 30.90625l-4.8125 0zm14.404572 0l0 -30.90625l4.796875 0l0 4.984375q4.296875 -5.625 10.3125 -5.625l0 4.921875l-1.921875 -0.1875q-2.171875 0 -4.796875 1.5625q-2.625 1.5625 -3.59375 3.359375l0 21.890625l-4.796875 0z" fill-rule="nonzero"></path><path fill="#202729" d="m84.59482 408.44l0 -3.515625q-3.90625 4.28125 -10.234375 4.28125q-4.671875 0 -7.75 -2.9375q-3.0625 -2.953125 -3.0625 -7.296875q0 -4.484375 3.03125 -7.328125q3.046875 -2.84375 7.78125 -2.84375q6.65625 0 10.234375 4.21875l0 -5.5625q0 -3.140625 -2.203125 -4.828125q-2.203125 -1.703125 -5.609375 -1.703125q-5.4375 0 -9.46875 4.28125l-2.234375 -3.328125q4.921875 -5.125 12.34375 -5.125q5.703125 0 8.828125 2.765625q3.140625 2.75 3.140625 7.671875l0 21.25l-4.796875 0zm-8.515625 -2.6875q5.703125 0 8.515625 -3.84375l0 -5.828125q-2.8125 -3.828125 -8.515625 -3.828125q-3.390625 0 -5.5 1.890625q-2.109375 1.875 -2.109375 4.890625q0 2.9375 2.109375 4.828125q2.109375 1.890625 5.5 1.890625zm45.321686 2.6875l0 -4.609375q-1.734375 2.375 -4.453125 3.875q-2.71875 1.5 -5.984375 1.5q-6.203125 0 -9.984375 -4.40625q-3.765625 -4.421875 -3.765625 -11.78125q0 -7.421875 3.796875 -11.84375q3.8125 -4.421875 9.953125 -4.421875q3.140625 0 5.859375 1.453125q2.71875 1.4375 4.578125 4.0l0 -16.453125l4.796875 0l0 42.6875l-4.796875 0zm-9.28125 -3.515625q2.875 0 5.4375 -1.40625q2.5625 -1.421875 3.84375 -3.46875l0 -14.015625q-1.28125 -2.046875 -3.84375 -3.515625q-2.5625 -1.46875 -5.4375 -1.46875q-4.484375 0 -7.203125 3.265625q-2.71875 3.265625 -2.71875 8.703125q0 5.3125 2.6875 8.609375q2.6875 3.296875 7.234375 3.296875zm26.049942 -31.8125q-1.28125 0 -2.25 -0.921875q-0.953125 -0.9375 -0.953125 -2.28125q0 -1.34375 0.953125 -2.296875q0.96875 -0.96875 2.25 -0.96875q1.34375 0 2.296875 0.96875q0.96875 0.953125 0.96875 2.296875q0 1.34375 -0.96875 2.28125q-0.953125 0.921875 -2.296875 0.921875zm-2.375 35.328125l0 -30.90625l4.796875 0l0 30.90625l-4.796875 0zm29.634354 0.765625q-6.59375 0 -10.4375 -5.4375l0 16.453125l-4.796875 0l0 -42.6875l4.796875 0l0 4.609375q1.671875 -2.375 4.421875 -3.875q2.75 -1.515625 6.015625 -1.515625q6.203125 0 9.984375 4.359375q3.78125 4.359375 3.78125 11.84375q0 7.421875 -3.75 11.84375q-3.75 4.40625 -10.015625 4.40625zm-1.21875 -4.28125q4.484375 0 7.203125 -3.265625q2.71875 -3.265625 2.71875 -8.703125q0 -5.3125 -2.6875 -8.609375q-2.6875 -3.296875 -7.234375 -3.296875q-2.875 0 -5.40625 1.4375q-2.53125 1.4375 -3.8125 3.484375l0 13.953125q1.28125 2.046875 3.8125 3.53125q2.53125 1.46875 5.40625 1.46875zm24.967316 -31.8125q-1.28125 0 -2.25 -0.921875q-0.953125 -0.9375 -0.953125 -2.28125q0 -1.34375 0.953125 -2.296875q0.96875 -0.96875 2.25 -0.96875q1.34375 0 2.296875 0.96875q0.96875 0.953125 0.96875 2.296875q0 1.34375 -0.96875 2.28125q-0.953125 0.921875 -2.296875 0.921875zm-2.375 35.328125l0 -30.90625l4.796875 0l0 30.90625l-4.796875 0zm24.196854 0.765625q-7.875 0 -12.484375 -4.859375l2.5 -3.453125q1.53125 1.78125 4.25 3.09375q2.71875 1.3125 5.921875 1.3125q3.59375 0 5.4375 -1.5q1.859375 -1.5 1.859375 -3.8125q0 -2.046875 -2.015625 -3.21875q-2.015625 -1.1875 -7.515625 -2.46875q-4.671875 -0.96875 -7.140625 -3.046875q-2.46875 -2.078125 -2.46875 -5.59375q0 -3.90625 3.140625 -6.40625q3.140625 -2.5 8.390625 -2.5q6.96875 0 11.453125 4.484375l-2.234375 3.328125q-1.421875 -1.65625 -3.828125 -2.78125q-2.390625 -1.125 -5.390625 -1.125q-3.203125 0 -5.03125 1.421875q-1.828125 1.40625 -1.828125 3.453125q0 1.84375 2.046875 2.9375q2.0625 1.09375 7.5625 2.234375q4.671875 1.09375 7.09375 3.3125q2.4375 2.203125 2.4375 5.84375q0 4.296875 -3.328125 6.828125q-3.328125 2.515625 -8.828125 2.515625zm33.6037 0q-6.796875 0 -11.109375 -4.609375q-4.3125 -4.609375 -4.3125 -11.640625q0 -6.984375 4.3125 -11.59375q4.3125 -4.609375 11.109375 -4.609375q7.15625 0 11.328125 5.390625l-3.203125 2.9375q-2.953125 -4.03125 -7.875 -4.03125q-4.734375 0 -7.71875 3.296875q-2.96875 3.296875 -2.96875 8.609375q0 5.375 2.9375 8.671875q2.953125 3.296875 7.75 3.296875q4.859375 0 7.875 -4.03125l3.203125 2.9375q-4.171875 5.375 -11.328125 5.375zm20.414322 -36.09375q-1.28125 0 -2.25 -0.921875q-0.953125 -0.9375 -0.953125 -2.28125q0 -1.34375 0.953125 -2.296875q0.96875 -0.96875 2.25 -0.96875q1.34375 0 2.296875 0.96875q0.96875 0.953125 0.96875 2.296875q0 1.34375 -0.96875 2.28125q-0.953125 0.921875 -2.296875 0.921875zm-2.375 35.328125l0 -30.90625l4.796875 0l0 30.90625l-4.796875 0zm35.25934 0l0 -20.21875q0 -4.09375 -1.890625 -5.625q-1.875 -1.546875 -5.015625 -1.546875q-2.6875 0 -5.28125 1.4375q-2.59375 1.4375 -3.875 3.359375l0 22.59375l-4.796875 0l0 -30.90625l4.796875 0l0 4.46875q1.984375 -2.296875 4.890625 -3.765625q2.921875 -1.484375 6.125 -1.484375q9.859375 0 9.859375 9.984375l0 21.703125l-4.8125 0zm26.826477 12.546875q-3.96875 0 -6.859375 -0.96875q-2.875 -0.953125 -5.625 -3.640625l2.4375 -3.578125q1.921875 2.296875 4.3125 3.25q2.40625 0.96875 5.734375 0.96875q4.734375 0 7.328125 -2.46875q2.59375 -2.46875 2.59375 -6.8125l0 -4.421875q-1.671875 2.375 -4.390625 3.953125q-2.71875 1.5625 -5.984375 1.5625q-6.265625 0 -10.015625 -4.421875q-3.734375 -4.421875 -3.734375 -11.578125q0 -7.4375 3.796875 -11.75q3.8125 -4.328125 9.953125 -4.328125q6.40625 0 10.375 5.453125l0 -4.671875l4.796875 0l0 30.015625q0 6.515625 -3.84375 9.96875q-3.84375 3.46875 -10.875 3.46875zm0.703125 -16.390625q2.625 0 5.21875 -1.40625q2.59375 -1.40625 4.0 -3.640625l0 -13.515625q-1.40625 -2.234375 -4.03125 -3.609375q-2.625 -1.375 -5.1875 -1.375q-4.546875 0 -7.234375 3.265625q-2.6875 3.265625 -2.6875 8.515625q0 5.3125 2.75 8.546875q2.75 3.21875 7.171875 3.21875zm54.07599 4.609375q-6.96875 0 -11.359375 -4.53125q-4.375 -4.546875 -4.375 -11.71875q0 -6.859375 4.34375 -11.53125q4.359375 -4.671875 10.875 -4.671875q6.65625 0 10.75 4.609375q4.109375 4.609375 4.109375 11.96875l0 1.21875l-25.03125 0q0.25 4.734375 3.421875 7.71875q3.171875 2.96875 7.71875 2.96875q5.625 0 9.53125 -3.90625l2.3125 3.140625q-4.75 4.734375 -12.296875 4.734375zm9.609375 -18.171875q0 -4.296875 -2.828125 -7.296875q-2.8125 -3.015625 -7.359375 -3.015625q-4.28125 0 -7.140625 3.015625q-2.84375 3.0 -2.96875 7.296875l20.296875 0zm12.469421 17.40625l0 -42.6875l4.796875 0l0 42.6875l-4.796875 0zm16.774963 -35.328125q-1.28125 0 -2.25 -0.921875q-0.953125 -0.9375 -0.953125 -2.28125q0 -1.34375 0.953125 -2.296875q0.96875 -0.96875 2.25 -0.96875q1.34375 0 2.296875 0.96875q0.96875 0.953125 0.96875 2.296875q0 1.34375 -0.96875 2.28125q-0.953125 0.921875 -2.296875 0.921875zm-2.375 35.328125l0 -30.90625l4.796875 0l0 30.90625l-4.796875 0zm22.212463 0.765625q-6.84375 0 -6.84375 -7.234375l0 -20.21875l-5.125 0l0 -4.21875l5.125 0l0 -8.453125l4.796875 0l0 8.453125l6.265625 0l0 4.21875l-6.265625 0l0 19.203125q0 1.71875 0.765625 2.84375q0.765625 1.125 2.375 1.125q1.984375 0 3.25 -1.28125l1.421875 3.578125q-1.984375 1.984375 -5.765625 1.984375zm13.565979 -0.125q-1.46875 0 -2.5 -1.015625q-1.015625 -1.03125 -1.015625 -2.5q0 -1.484375 1.015625 -2.5q1.03125 -1.03125 2.5 -1.03125q1.46875 0 2.484375 1.03125q1.03125 1.015625 1.03125 2.5q0 1.46875 -1.03125 2.5q-1.015625 1.015625 -2.484375 1.015625z" fill-rule="nonzero"></path></g></g></svg>

