<?xml version="1.0" standalone="yes"?>

<svg version="1.1" viewBox="0.0 0.0 960.0 540.0" fill="none" stroke="none" stroke-linecap="square" stroke-miterlimit="10" xmlns="http://www.w3.org/2000/svg" xmlns:xlink="http://www.w3.org/1999/xlink"><clipPath id="gc6f8badac_0_9.0"><path d="m0 0l960.0 0l0 540.0l-960.0 0l0 -540.0z" clip-rule="nonzero"></path></clipPath><g clip-path="url(#gc6f8badac_0_9.0)"><g id="gc6f8badac_0_9"><path fill="#ffffff" d="m0 0l960.0 0l0 540.0l-960.0 0l0 -540.0z" fill-rule="nonzero"></path><path fill="#ffffff" d="m0 0l960.0 0l0 540.0l-960.0 0z" fill-rule="nonzero"></path><path fill="#000000" fill-opacity="0.0" d="m32.72441 58.330708l294.80316 0l0 79.33858l-294.80316 0z" fill-rule="nonzero"></path><path fill="#202729" d="m50.708786 119.509285l0 -21.9375l-7.796875 0l0 -2.734375l18.71875 0l0 2.734375l-7.84375 0l0 21.9375l-3.078125 0zm27.167725 0l0 -11.765625q0 -2.0 -0.953125 -3.03125q-0.9375 -1.046875 -3.078125 -1.046875q-1.515625 0 -2.953125 0.78125q-1.421875 0.78125 -2.34375 2.0l0 13.0625l-2.765625 0l0 -24.671875l2.765625 0l0 9.390625q1.1875 -1.375 2.890625 -2.203125q1.703125 -0.828125 3.515625 -0.828125q5.703125 0 5.703125 5.703125l0 12.609375l-2.78125 0zm16.573944 0.4375q-4.03125 0 -6.578125 -2.625q-2.53125 -2.625 -2.53125 -6.765625q0 -3.953125 2.515625 -6.65625q2.515625 -2.703125 6.296875 -2.703125q3.84375 0 6.203125 2.671875q2.375 2.65625 2.375 6.90625l0 0.703125l-14.46875 0q0.15625 2.734375 1.984375 4.46875q1.828125 1.71875 4.453125 1.71875q3.265625 0 5.515625 -2.265625l1.328125 1.8125q-2.734375 2.734375 -7.09375 2.734375zm5.546875 -10.5q0 -2.484375 -1.625 -4.21875q-1.625 -1.734375 -4.25 -1.734375q-2.484375 0 -4.140625 1.734375q-1.640625 1.734375 -1.71875 4.21875l11.734375 0zm25.834 10.5q-3.8125 0 -6.03125 -3.140625l0 9.515625l-2.765625 0l0 -24.6875l2.765625 0l0 2.671875q0.96875 -1.375 2.546875 -2.234375q1.59375 -0.875 3.484375 -0.875q3.59375 0 5.765625 2.515625q2.1875 2.515625 2.1875 6.84375q0 4.296875 -2.171875 6.84375q-2.15625 2.546875 -5.78125 2.546875zm-0.703125 -2.46875q2.59375 0 4.15625 -1.890625q1.578125 -1.890625 1.578125 -5.03125q0 -3.078125 -1.5625 -4.984375q-1.546875 -1.90625 -4.171875 -1.90625q-1.65625 0 -3.125 0.84375q-1.453125 0.828125 -2.203125 2.015625l0 8.0625q0.75 1.1875 2.203125 2.046875q1.46875 0.84375 3.125 0.84375zm13.258011 2.03125l0 -17.875l2.765625 0l0 2.890625q2.484375 -3.25 5.953125 -3.25l0 2.84375l-1.109375 -0.109375q-1.25 0 -2.765625 0.90625q-1.515625 0.90625 -2.078125 1.9375l0 12.65625l-2.765625 0zm20.115189 0.4375q-3.875 0 -6.359375 -2.640625q-2.484375 -2.640625 -2.484375 -6.75q0 -4.140625 2.484375 -6.75q2.484375 -2.609375 6.359375 -2.609375q3.890625 0 6.359375 2.609375q2.484375 2.609375 2.484375 6.75q0 4.109375 -2.484375 6.75q-2.46875 2.640625 -6.359375 2.640625zm0 -2.46875q2.59375 0 4.25 -1.9375q1.671875 -1.953125 1.671875 -4.984375q0 -3.0 -1.671875 -4.9375q-1.65625 -1.953125 -4.25 -1.953125q-2.59375 0 -4.28125 1.9375q-1.671875 1.921875 -1.671875 4.953125q0 3.0625 1.65625 5.0q1.671875 1.921875 4.296875 1.921875zm16.32051 -2.8125q0.75 1.1875 2.203125 2.0q1.46875 0.8125 3.125 0.8125q2.625 0 4.203125 -1.90625q1.578125 -1.90625 1.578125 -4.984375q0 -3.109375 -1.5625 -5.015625q-1.546875 -1.90625 -4.21875 -1.90625q-1.65625 0 -3.125 0.859375q-1.453125 0.84375 -2.203125 2.03125l0 8.109375zm-2.765625 4.84375l0 -24.671875l2.765625 0l0 9.5q2.296875 -3.140625 6.03125 -3.140625q3.5625 0 5.75 2.59375q2.203125 2.578125 2.203125 6.796875q0 4.296875 -2.203125 6.828125q-2.1875 2.53125 -5.75 2.53125q-1.890625 0 -3.46875 -0.859375q-1.5625 -0.875 -2.5625 -2.234375l0 2.65625l-2.765625 0zm21.463745 0l0 -24.671875l2.765625 0l0 24.671875l-2.765625 0zm16.46135 0.4375q-4.03125 0 -6.578125 -2.625q-2.53125 -2.625 -2.53125 -6.765625q0 -3.953125 2.515625 -6.65625q2.515625 -2.703125 6.296875 -2.703125q3.84375 0 6.203125 2.671875q2.375 2.65625 2.375 6.90625l0 0.703125l-14.46875 0q0.15625 2.734375 1.984375 4.46875q1.828125 1.71875 4.453125 1.71875q3.265625 0 5.515625 -2.265625l1.328125 1.8125q-2.734375 2.734375 -7.09375 2.734375zm5.546875 -10.5q0 -2.484375 -1.625 -4.21875q-1.625 -1.734375 -4.25 -1.734375q-2.484375 0 -4.140625 1.734375q-1.640625 1.734375 -1.71875 4.21875l11.734375 0zm28.968933 10.0625l0 -12.140625q0 -3.703125 -3.296875 -3.703125q-1.40625 0 -2.71875 0.84375q-1.3125 0.828125 -2.015625 1.90625l0 13.09375l-2.765625 0l0 -12.140625q0 -3.703125 -3.296875 -3.703125q-1.375 0 -2.671875 0.859375q-1.28125 0.84375 -2.03125 1.921875l0 13.0625l-2.765625 0l0 -17.875l2.765625 0l0 2.59375q0.625 -1.078125 2.359375 -2.046875q1.75 -0.984375 3.421875 -0.984375q2.0625 0 3.21875 0.96875q1.171875 0.953125 1.578125 2.359375q0.9375 -1.4375 2.640625 -2.375q1.703125 -0.953125 3.359375 -0.953125q5.0 0 5.0 5.40625l0 12.90625l-2.78125 0z" fill-rule="nonzero"></path><path fill="#000000" fill-opacity="0.0" d="m32.72441 145.88977l294.80316 0l0 333.7953l-294.80316 0z" fill-rule="nonzero"></path><path fill="#616161" d="m43.59941 177.92976l0 -16.015625l7.125 0q2.046875 0 3.265625 1.125q1.21875 1.109375 1.21875 2.96875q0 1.40625 -0.78125 2.390625q-0.78125 0.984375 -2.015625 1.28125q1.265625 0.1875 2.1875 1.34375q0.921875 1.140625 0.921875 2.59375q0 1.953125 -1.234375 3.140625q-1.234375 1.171875 -3.390625 1.171875l-7.296875 0zm6.78125 -9.078125q1.375 0 2.0625 -0.71875q0.703125 -0.734375 0.703125 -1.84375q0 -1.078125 -0.703125 -1.828125q-0.6875 -0.765625 -2.0625 -0.765625l-4.796875 0l0 5.15625l4.796875 0zm0.109375 7.296875q1.40625 0 2.1875 -0.71875q0.78125 -0.734375 0.78125 -2.03125q0 -1.234375 -0.8125 -2.0q-0.8125 -0.765625 -2.15625 -0.765625l-4.90625 0l0 5.515625l4.90625 0zm9.017838 -11.46875q-0.484375 0 -0.84375 -0.34375q-0.359375 -0.34375 -0.359375 -0.859375q0 -0.5 0.359375 -0.859375q0.359375 -0.359375 0.84375 -0.359375q0.5 0 0.859375 0.359375q0.359375 0.359375 0.359375 0.859375q0 0.515625 -0.359375 0.859375q-0.359375 0.34375 -0.859375 0.34375zm-0.890625 13.25l0 -11.59375l1.796875 0l0 11.59375l-1.796875 0zm10.056229 4.703125q-1.484375 0 -2.5625 -0.359375q-1.078125 -0.359375 -2.109375 -1.375l0.90625 -1.34375q0.71875 0.875 1.609375 1.234375q0.90625 0.359375 2.15625 0.359375q1.78125 0 2.75 -0.921875q0.96875 -0.921875 0.96875 -2.5625l0 -1.65625q-0.625 0.890625 -1.640625 1.484375q-1.015625 0.578125 -2.25 0.578125q-2.34375 0 -3.75 -1.65625q-1.40625 -1.65625 -1.40625 -4.34375q0 -2.78125 1.421875 -4.390625q1.4375 -1.625 3.734375 -1.625q2.40625 0 3.890625 2.03125l0 -1.75l1.796875 0l0 11.25q0 2.453125 -1.4375 3.75q-1.4375 1.296875 -4.078125 1.296875zm0.265625 -6.140625q0.984375 0 1.953125 -0.53125q0.96875 -0.53125 1.5 -1.375l0 -5.0625q-0.53125 -0.828125 -1.515625 -1.34375q-0.96875 -0.515625 -1.9375 -0.515625q-1.703125 0 -2.71875 1.21875q-1.0 1.21875 -1.0 3.1875q0 2.0 1.03125 3.21875q1.03125 1.203125 2.6875 1.203125zm29.046066 1.4375l0 -7.875q0 -2.390625 -2.140625 -2.390625q-0.90625 0 -1.765625 0.546875q-0.84375 0.53125 -1.3125 1.21875l0 8.5l-1.796875 0l0 -7.875q0 -2.390625 -2.140625 -2.390625q-0.875 0 -1.71875 0.546875q-0.84375 0.546875 -1.328125 1.25l0 8.46875l-1.796875 0l0 -11.59375l1.796875 0l0 1.6875q0.421875 -0.703125 1.546875 -1.328125q1.125 -0.640625 2.203125 -0.640625q1.34375 0 2.09375 0.625q0.765625 0.625 1.03125 1.53125q0.59375 -0.9375 1.6875 -1.546875q1.109375 -0.609375 2.203125 -0.609375q3.234375 0 3.234375 3.5l0 8.375l-1.796875 0zm13.220062 0l0 -1.625q-0.671875 0.765625 -1.75 1.34375q-1.078125 0.5625 -2.375 0.5625q-3.703125 0 -3.703125 -3.6875l0 -8.1875l1.796875 0l0 7.640625q0 1.359375 0.625 2.0q0.625 0.640625 1.96875 0.640625q1.0625 0 2.0 -0.53125q0.9375 -0.53125 1.4375 -1.234375l0 -8.515625l1.796875 0l0 11.59375l-1.796875 0zm9.0677185 0.28125q-2.953125 0 -4.671875 -1.8125l0.9375 -1.296875q0.5625 0.671875 1.578125 1.171875q1.03125 0.484375 2.234375 0.484375q1.34375 0 2.03125 -0.5625q0.703125 -0.5625 0.703125 -1.4375q0 -0.765625 -0.765625 -1.203125q-0.75 -0.453125 -2.8125 -0.921875q-1.75 -0.359375 -2.671875 -1.140625q-0.921875 -0.78125 -0.921875 -2.109375q0 -1.46875 1.171875 -2.390625q1.171875 -0.9375 3.140625 -0.9375q2.625 0 4.296875 1.671875l-0.84375 1.25q-0.515625 -0.625 -1.421875 -1.046875q-0.90625 -0.421875 -2.03125 -0.421875q-1.203125 0 -1.890625 0.53125q-0.671875 0.53125 -0.671875 1.296875q0 0.703125 0.765625 1.109375q0.765625 0.40625 2.828125 0.84375q1.75 0.40625 2.65625 1.234375q0.921875 0.828125 0.921875 2.1875q0 1.609375 -1.25 2.5625q-1.25 0.9375 -3.3125 0.9375zm8.378723 -13.53125q-0.484375 0 -0.84375 -0.34375q-0.359375 -0.34375 -0.359375 -0.859375q0 -0.5 0.359375 -0.859375q0.359375 -0.359375 0.84375 -0.359375q0.5 0 0.859375 0.359375q0.359375 0.359375 0.359375 0.859375q0 0.515625 -0.359375 0.859375q-0.359375 0.34375 -0.859375 0.34375zm-0.890625 13.25l0 -11.59375l1.796875 0l0 11.59375l-1.796875 0zm10.509354 0.28125q-2.53125 0 -4.15625 -1.71875q-1.625 -1.734375 -1.625 -4.375q0 -2.609375 1.625 -4.328125q1.625 -1.734375 4.15625 -1.734375q2.6875 0 4.25 2.015625l-1.203125 1.09375q-1.09375 -1.5 -2.9375 -1.5q-1.78125 0 -2.90625 1.234375q-1.109375 1.234375 -1.109375 3.21875q0 2.015625 1.09375 3.265625q1.109375 1.234375 2.921875 1.234375q1.8125 0 2.9375 -1.515625l1.203125 1.09375q-1.5625 2.015625 -4.25 2.015625zm20.21257 -0.28125l0 -1.3125q-1.46875 1.59375 -3.84375 1.59375q-1.75 0 -2.90625 -1.09375q-1.140625 -1.109375 -1.140625 -2.734375q0 -1.6875 1.140625 -2.75q1.140625 -1.078125 2.90625 -1.078125q2.5 0 3.84375 1.59375l0 -2.09375q0 -1.171875 -0.828125 -1.796875q-0.828125 -0.640625 -2.09375 -0.640625q-2.046875 0 -3.5625 1.59375l-0.828125 -1.234375q1.84375 -1.921875 4.625 -1.921875q2.140625 0 3.3125 1.03125q1.171875 1.03125 1.171875 2.875l0 7.96875l-1.796875 0zm-3.1875 -1.015625q2.125 0 3.1875 -1.4375l0 -2.171875q-1.0625 -1.453125 -3.1875 -1.453125q-1.28125 0 -2.078125 0.71875q-0.78125 0.703125 -0.78125 1.828125q0 1.109375 0.78125 1.8125q0.796875 0.703125 2.078125 0.703125zm13.6948395 1.296875q-2.53125 0 -4.15625 -1.71875q-1.625 -1.734375 -1.625 -4.375q0 -2.609375 1.625 -4.328125q1.625 -1.734375 4.15625 -1.734375q2.6875 0 4.25 2.015625l-1.203125 1.09375q-1.09375 -1.5 -2.9375 -1.5q-1.78125 0 -2.90625 1.234375q-1.109375 1.234375 -1.109375 3.21875q0 2.015625 1.09375 3.265625q1.109375 1.234375 2.921875 1.234375q1.8125 0 2.9375 -1.515625l1.203125 1.09375q-1.5625 2.015625 -4.25 2.015625zm9.708084 0q-2.578125 0 -2.578125 -2.703125l0 -7.59375l-1.921875 0l0 -1.578125l1.921875 0l0 -3.171875l1.796875 0l0 3.171875l2.359375 0l0 1.578125l-2.359375 0l0 7.203125q0 0.65625 0.28125 1.078125q0.296875 0.421875 0.90625 0.421875q0.734375 0 1.21875 -0.484375l0.53125 1.34375q-0.75 0.734375 -2.15625 0.734375zm7.7903595 0q-2.953125 0 -4.671875 -1.8125l0.9375 -1.296875q0.5625 0.671875 1.578125 1.171875q1.03125 0.484375 2.234375 0.484375q1.34375 0 2.03125 -0.5625q0.703125 -0.5625 0.703125 -1.4375q0 -0.765625 -0.765625 -1.203125q-0.75 -0.453125 -2.8125 -0.921875q-1.75 -0.359375 -2.671875 -1.140625q-0.921875 -0.78125 -0.921875 -2.109375q0 -1.46875 1.171875 -2.390625q1.171875 -0.9375 3.140625 -0.9375q2.625 0 4.296875 1.671875l-0.84375 1.25q-0.515625 -0.625 -1.421875 -1.046875q-0.90625 -0.421875 -2.03125 -0.421875q-1.203125 0 -1.890625 0.53125q-0.671875 0.53125 -0.671875 1.296875q0 0.703125 0.765625 1.109375q0.765625 0.40625 2.828125 0.84375q1.75 0.40625 2.65625 1.234375q0.921875 0.828125 0.921875 2.1875q0 1.609375 -1.25 2.5625q-1.25 0.9375 -3.3125 0.9375zm17.35196 0q-2.953125 0 -4.671875 -1.8125l0.9375 -1.296875q0.5625 0.671875 1.578125 1.171875q1.03125 0.484375 2.234375 0.484375q1.34375 0 2.03125 -0.5625q0.703125 -0.5625 0.703125 -1.4375q0 -0.765625 -0.765625 -1.203125q-0.75 -0.453125 -2.8125 -0.921875q-1.75 -0.359375 -2.671875 -1.140625q-0.921875 -0.78125 -0.921875 -2.109375q0 -1.46875 1.171875 -2.390625q1.171875 -0.9375 3.140625 -0.9375q2.625 0 4.296875 1.671875l-0.84375 1.25q-0.515625 -0.625 -1.421875 -1.046875q-0.90625 -0.421875 -2.03125 -0.421875q-1.203125 0 -1.890625 0.53125q-0.671875 0.53125 -0.671875 1.296875q0 0.703125 0.765625 1.109375q0.765625 0.40625 2.828125 0.84375q1.75 0.40625 2.65625 1.234375q0.921875 0.828125 0.921875 2.1875q0 1.609375 -1.25 2.5625q-1.25 0.9375 -3.3125 0.9375zm13.206848 0q-2.46875 0 -3.921875 -2.03125l0 6.171875l-1.796875 0l0 -16.015625l1.796875 0l0 1.734375q0.625 -0.890625 1.65625 -1.453125q1.03125 -0.5625 2.265625 -0.5625q2.328125 0 3.734375 1.640625q1.421875 1.625 1.421875 4.421875q0 2.78125 -1.40625 4.4375q-1.40625 1.65625 -3.75 1.65625zm-0.453125 -1.59375q1.671875 0 2.6875 -1.21875q1.03125 -1.234375 1.03125 -3.28125q0 -1.984375 -1.015625 -3.21875q-1.0 -1.234375 -2.703125 -1.234375q-1.09375 0 -2.046875 0.546875q-0.9375 0.53125 -1.421875 1.296875l0 5.234375q0.484375 0.765625 1.421875 1.328125q0.953125 0.546875 2.046875 0.546875zm13.696716 1.59375q-2.609375 0 -4.265625 -1.703125q-1.640625 -1.703125 -1.640625 -4.390625q0 -2.5625 1.625 -4.3125q1.640625 -1.75 4.09375 -1.75q2.5 0 4.03125 1.734375q1.53125 1.71875 1.53125 4.484375l0 0.453125l-9.375 0q0.09375 1.765625 1.28125 2.890625q1.1875 1.109375 2.890625 1.109375q2.109375 0 3.578125 -1.453125l0.859375 1.171875q-1.78125 1.765625 -4.609375 1.765625zm3.59375 -6.8125q0 -1.609375 -1.0625 -2.734375q-1.046875 -1.125 -2.75 -1.125q-1.609375 0 -2.671875 1.125q-1.0625 1.125 -1.109375 2.734375l7.59375 0zm12.511963 6.53125l0 -7.578125q0 -1.546875 -0.71875 -2.109375q-0.703125 -0.578125 -1.875 -0.578125q-1.0 0 -1.984375 0.546875q-0.96875 0.53125 -1.453125 1.25l0 8.46875l-1.796875 0l0 -11.59375l1.796875 0l0 1.6875q0.75 -0.875 1.84375 -1.421875q1.09375 -0.546875 2.296875 -0.546875q3.6875 0 3.6875 3.734375l0 8.140625l-1.796875 0zm13.802078 0l0 -1.734375q-0.65625 0.890625 -1.671875 1.453125q-1.015625 0.5625 -2.25 0.5625q-2.3281097 0 -3.7499847 -1.65625q-1.40625 -1.65625 -1.40625 -4.40625q0 -2.78125 1.421875 -4.4375q1.4375 -1.65625 3.7343597 -1.65625q1.1875 0 2.203125 0.546875q1.015625 0.53125 1.71875 1.484375l0 -6.171875l1.796875 0l0 16.015625l-1.796875 0zm-3.484375 -1.3125q1.078125 0 2.03125 -0.53125q0.96875 -0.53125 1.453125 -1.296875l0 -5.265625q-0.484375 -0.765625 -1.453125 -1.3125q-0.953125 -0.546875 -2.03125 -0.546875q-1.6718597 0 -2.7031097 1.21875q-1.015625 1.21875 -1.015625 3.265625q0 1.984375 1.0 3.234375q1.015625 1.234375 2.7187347 1.234375z" fill-rule="nonzero"></path><path fill="#616161" d="m57.521286 210.92976l0 -7.875q0 -2.390625 -2.140625 -2.390625q-0.90625 0 -1.765625 0.546875q-0.84375 0.53125 -1.3125 1.21875l0 8.5l-1.796875 0l0 -7.875q0 -2.390625 -2.140625 -2.390625q-0.875 0 -1.71875 0.546875q-0.84375 0.546875 -1.328125 1.25l0 8.46875l-1.796875 0l0 -11.59375l1.796875 0l0 1.6875q0.421875 -0.703125 1.546875 -1.328125q1.125 -0.640625 2.203125 -0.640625q1.34375 0 2.09375 0.625q0.765625 0.625 1.03125 1.53125q0.59375 -0.9375 1.6875 -1.546875q1.109375 -0.609375 2.203125 -0.609375q3.234375 0 3.234375 3.5l0 8.375l-1.796875 0zm6.2825623 -13.25q-0.484375 0 -0.84375 -0.34375q-0.359375 -0.34375 -0.359375 -0.859375q0 -0.5 0.359375 -0.859375q0.359375 -0.359375 0.84375 -0.359375q0.5 0 0.859375 0.359375q0.359375 0.359375 0.359375 0.859375q0 0.515625 -0.359375 0.859375q-0.359375 0.34375 -0.859375 0.34375zm-0.890625 13.25l0 -11.59375l1.796875 0l0 11.59375l-1.796875 0zm5.3999786 0l0 -16.015625l1.796875 0l0 16.015625l-1.796875 0zm5.3999786 0l0 -16.015625l1.796875 0l0 16.015625l-1.796875 0zm6.2906036 -13.25q-0.484375 0 -0.84375 -0.34375q-0.359375 -0.34375 -0.359375 -0.859375q0 -0.5 0.359375 -0.859375q0.359375 -0.359375 0.84375 -0.359375q0.5 0 0.859375 0.359375q0.359375 0.359375 0.359375 0.859375q0 0.515625 -0.359375 0.859375q-0.359375 0.34375 -0.859375 0.34375zm-0.890625 13.25l0 -11.59375l1.796875 0l0 11.59375l-1.796875 0zm10.462479 0.28125q-2.515625 0 -4.125 -1.703125q-1.609375 -1.71875 -1.609375 -4.390625q0 -2.6875 1.609375 -4.375q1.609375 -1.6875 4.125 -1.6875q2.53125 0 4.125 1.6875q1.609375 1.6875 1.609375 4.375q0 2.671875 -1.609375 4.390625q-1.59375 1.703125 -4.125 1.703125zm0 -1.59375q1.6875 0 2.765625 -1.265625q1.078125 -1.265625 1.078125 -3.234375q0 -1.9375 -1.078125 -3.1875q-1.078125 -1.265625 -2.765625 -1.265625q-1.671875 0 -2.765625 1.25q-1.09375 1.234375 -1.09375 3.203125q0 2.0 1.078125 3.25q1.078125 1.25 2.78125 1.25zm16.493591 1.3125l0 -7.578125q0 -1.546875 -0.71875 -2.109375q-0.703125 -0.578125 -1.875 -0.578125q-1.0 0 -1.984375 0.546875q-0.96875 0.53125 -1.453125 1.25l0 8.46875l-1.796875 0l0 -11.59375l1.796875 0l0 1.6875q0.75 -0.875 1.84375 -1.421875q1.09375 -0.546875 2.296875 -0.546875q3.6875 0 3.6875 3.734375l0 8.140625l-1.796875 0zm9.0677185 0.28125q-2.953125 0 -4.671875 -1.8125l0.9375 -1.296875q0.5625 0.671875 1.578125 1.171875q1.03125 0.484375 2.234375 0.484375q1.34375 0 2.03125 -0.5625q0.703125 -0.5625 0.703125 -1.4375q0 -0.765625 -0.765625 -1.203125q-0.75 -0.453125 -2.8125 -0.921875q-1.75 -0.359375 -2.671875 -1.140625q-0.921875 -0.78125 -0.921875 -2.109375q0 -1.46875 1.171875 -2.390625q1.171875 -0.9375 3.140625 -0.9375q2.625 0 4.296875 1.671875l-0.84375 1.25q-0.515625 -0.625 -1.421875 -1.046875q-0.90625 -0.421875 -2.03125 -0.421875q-1.203125 0 -1.890625 0.53125q-0.671875 0.53125 -0.671875 1.296875q0 0.703125 0.765625 1.109375q0.765625 0.40625 2.828125 0.84375q1.75 0.40625 2.65625 1.234375q0.921875 0.828125 0.921875 2.1875q0 1.609375 -1.25 2.5625q-1.25 0.9375 -3.3125 0.9375zm18.742584 0q-2.515625 0 -4.125 -1.703125q-1.609375 -1.71875 -1.609375 -4.390625q0 -2.6875 1.609375 -4.375q1.609375 -1.6875 4.125 -1.6875q2.53125 0 4.125 1.6875q1.609375 1.6875 1.609375 4.375q0 2.671875 -1.609375 4.390625q-1.59375 1.703125 -4.125 1.703125zm0 -1.59375q1.6875 0 2.765625 -1.265625q1.078125 -1.265625 1.078125 -3.234375q0 -1.9375 -1.078125 -3.1875q-1.078125 -1.265625 -2.765625 -1.265625q-1.671875 0 -2.765625 1.25q-1.09375 1.234375 -1.09375 3.203125q0 2.0 1.078125 3.25q1.078125 1.25 2.78125 1.25zm9.165466 1.3125l0 -10.015625l-1.90625 0l0 -1.578125l1.90625 0l0 -0.890625q0 -1.796875 0.90625 -2.78125q0.90625 -0.984375 2.453125 -0.984375q1.46875 0 2.453125 0.890625l-0.734375 1.171875q-0.625 -0.578125 -1.453125 -0.578125q-1.8125 0 -1.8125 2.28125l0 0.890625l2.34375 0l0 1.578125l-2.34375 0l0 10.015625l-1.8125 0zm20.890213 0l0 -1.734375q-0.65625 0.890625 -1.671875 1.453125q-1.015625 0.5625 -2.25 0.5625q-2.328125 0 -3.75 -1.65625q-1.40625 -1.65625 -1.40625 -4.40625q0 -2.78125 1.421875 -4.4375q1.4375 -1.65625 3.734375 -1.65625q1.1875 0 2.203125 0.546875q1.015625 0.53125 1.71875 1.484375l0 -6.171875l1.796875 0l0 16.015625l-1.796875 0zm-3.484375 -1.3125q1.078125 0 2.03125 -0.53125q0.96875 -0.53125 1.453125 -1.296875l0 -5.265625q-0.484375 -0.765625 -1.453125 -1.3125q-0.953125 -0.546875 -2.03125 -0.546875q-1.671875 0 -2.703125 1.21875q-1.015625 1.21875 -1.015625 3.265625q0 1.984375 1.0 3.234375q1.015625 1.234375 2.71875 1.234375zm13.940582 1.59375q-2.515625 0 -4.125 -1.703125q-1.609375 -1.71875 -1.609375 -4.390625q0 -2.6875 1.609375 -4.375q1.609375 -1.6875 4.125 -1.6875q2.53125 0 4.125 1.6875q1.609375 1.6875 1.609375 4.375q0 2.671875 -1.609375 4.390625q-1.59375 1.703125 -4.125 1.703125zm0 -1.59375q1.6875 0 2.765625 -1.265625q1.078125 -1.265625 1.078125 -3.234375q0 -1.9375 -1.078125 -3.1875q-1.078125 -1.265625 -2.765625 -1.265625q-1.671875 0 -2.765625 1.25q-1.09375 1.234375 -1.09375 3.203125q0 2.0 1.078125 3.25q1.078125 1.25 2.78125 1.25zm8.665466 1.3125l0 -16.015625l1.796875 0l0 16.015625l-1.796875 0zm5.3999786 0l0 -16.015625l1.796875 0l0 16.015625l-1.796875 0zm12.649979 0l0 -1.3125q-1.46875 1.59375 -3.84375 1.59375q-1.75 0 -2.90625 -1.09375q-1.140625 -1.109375 -1.140625 -2.734375q0 -1.6875 1.140625 -2.75q1.140625 -1.078125 2.90625 -1.078125q2.5 0 3.84375 1.59375l0 -2.09375q0 -1.171875 -0.828125 -1.796875q-0.828125 -0.640625 -2.09375 -0.640625q-2.046875 0 -3.5625 1.59375l-0.828125 -1.234375q1.84375 -1.921875 4.625 -1.921875q2.140625 0 3.3125 1.03125q1.171875 1.03125 1.171875 2.875l0 7.96875l-1.796875 0zm-3.1875 -1.015625q2.125 0 3.1875 -1.4375l0 -2.171875q-1.0625 -1.453125 -3.1875 -1.453125q-1.28125 0 -2.078125 0.71875q-0.78125 0.703125 -0.78125 1.828125q0 1.109375 0.78125 1.8125q0.796875 0.703125 2.078125 0.703125zm8.5854645 1.015625l0 -11.59375l1.796875 0l0 1.875q1.609375 -2.109375 3.875 -2.109375l0 1.84375l-0.71875 -0.078125q-0.828125 0 -1.8125 0.59375q-0.984375 0.59375 -1.34375 1.265625l0 8.203125l-1.796875 0zm11.591858 0.28125q-2.953125 0 -4.671875 -1.8125l0.9375 -1.296875q0.5625 0.671875 1.578125 1.171875q1.03125 0.484375 2.234375 0.484375q1.34375 0 2.03125 -0.5625q0.703125 -0.5625 0.703125 -1.4375q0 -0.765625 -0.765625 -1.203125q-0.75 -0.453125 -2.8125 -0.921875q-1.75 -0.359375 -2.671875 -1.140625q-0.921875 -0.78125 -0.921875 -2.109375q0 -1.46875 1.171875 -2.390625q1.171875 -0.9375 3.140625 -0.9375q2.625 0 4.296875 1.671875l-0.84375 1.25q-0.515625 -0.625 -1.421875 -1.046875q-0.90625 -0.421875 -2.03125 -0.421875q-1.203125 0 -1.890625 0.53125q-0.671875 0.53125 -0.671875 1.296875q0 0.703125 0.765625 1.109375q0.765625 0.40625 2.828125 0.84375q1.75 0.40625 2.65625 1.234375q0.921875 0.828125 0.921875 2.1875q0 1.609375 -1.25 2.5625q-1.25 0.9375 -3.3125 0.9375zm18.742584 0q-2.515625 0 -4.125 -1.703125q-1.609375 -1.71875 -1.609375 -4.390625q0 -2.6875 1.609375 -4.375q1.609375 -1.6875 4.125 -1.6875q2.53125 0 4.125 1.6875q1.609375 1.6875 1.609375 4.375q0 2.671875 -1.609375 4.390625q-1.59375 1.703125 -4.125 1.703125zm0 -1.59375q1.6875 0 2.765625 -1.265625q1.078125 -1.265625 1.078125 -3.234375q0 -1.9375 -1.078125 -3.1875q-1.078125 -1.265625 -2.765625 -1.265625q-1.671875 0 -2.765625 1.25q-1.09375 1.234375 -1.09375 3.203125q0 2.0 1.078125 3.25q1.078125 1.25 2.78125 1.25zm16.493591 1.3125l0 -7.578125q0 -1.546875 -0.71875 -2.109375q-0.703125 -0.578125 -1.875 -0.578125q-1.0 0 -1.984375 0.546875q-0.96875 0.53125 -1.453125 1.25l0 8.46875l-1.796875 0l0 -11.59375l1.796875 0l0 1.6875q0.75 -0.875 1.84375 -1.421875q1.09375 -0.546875 2.296875 -0.546875q3.6875 0 3.6875 3.734375l0 8.140625l-1.796875 0z" fill-rule="nonzero"></path><path fill="#616161" d="m57.521286 243.92976l0 -7.875q0 -2.390625 -2.140625 -2.390625q-0.90625 0 -1.765625 0.546875q-0.84375 0.53125 -1.3125 1.21875l0 8.5l-1.796875 0l0 -7.875q0 -2.390625 -2.140625 -2.390625q-0.875 0 -1.71875 0.546875q-0.84375 0.546875 -1.328125 1.25l0 8.46875l-1.796875 0l0 -11.59375l1.796875 0l0 1.6875q0.421875 -0.703125 1.546875 -1.328125q1.125 -0.640625 2.203125 -0.640625q1.34375 0 2.09375 0.625q0.765625 0.625 1.03125 1.53125q0.59375 -0.9375 1.6875 -1.546875q1.109375 -0.609375 2.203125 -0.609375q3.234375 0 3.234375 3.5l0 8.375l-1.796875 0zm10.626312 0.28125q-2.609375 0 -4.265625 -1.703125q-1.640625 -1.703125 -1.640625 -4.390625q0 -2.5625 1.625 -4.3125q1.640625 -1.75 4.09375 -1.75q2.5 0 4.03125 1.734375q1.53125 1.71875 1.53125 4.484375l0 0.453125l-9.375 0q0.09375 1.765625 1.28125 2.890625q1.1875 1.109375 2.890625 1.109375q2.109375 0 3.578125 -1.453125l0.859375 1.171875q-1.78125 1.765625 -4.609375 1.765625zm3.59375 -6.8125q0 -1.609375 -1.0625 -2.734375q-1.046875 -1.125 -2.75 -1.125q-1.609375 0 -2.671875 1.125q-1.0625 1.125 -1.109375 2.734375l7.59375 0zm13.090088 6.53125l0 -1.734375q-0.65625 0.890625 -1.671875 1.453125q-1.015625 0.5625 -2.25 0.5625q-2.328125 0 -3.75 -1.65625q-1.40625 -1.65625 -1.40625 -4.40625q0 -2.78125 1.421875 -4.4375q1.4375 -1.65625 3.734375 -1.65625q1.1875 0 2.203125 0.546875q1.015625 0.53125 1.71875 1.484375l0 -6.171875l1.796875 0l0 16.015625l-1.796875 0zm-3.484375 -1.3125q1.078125 0 2.03125 -0.53125q0.96875 -0.53125 1.453125 -1.296875l0 -5.265625q-0.484375 -0.765625 -1.453125 -1.3125q-0.953125 -0.546875 -2.03125 -0.546875q-1.671875 0 -2.703125 1.21875q-1.015625 1.21875 -1.015625 3.265625q0 1.984375 1.0 3.234375q1.015625 1.234375 2.71875 1.234375zm9.768707 -11.9375q-0.484375 0 -0.84375 -0.34375q-0.359375 -0.34375 -0.359375 -0.859375q0 -0.5 0.359375 -0.859375q0.359375 -0.359375 0.84375 -0.359375q0.5 0 0.859375 0.359375q0.359375 0.359375 0.359375 0.859375q0 0.515625 -0.359375 0.859375q-0.359375 0.34375 -0.859375 0.34375zm-0.890625 13.25l0 -11.59375l1.796875 0l0 11.59375l-1.796875 0zm10.462479 0.28125q-2.515625 0 -4.125 -1.703125q-1.609375 -1.71875 -1.609375 -4.390625q0 -2.6875 1.609375 -4.375q1.609375 -1.6875 4.125 -1.6875q2.53125 0 4.125 1.6875q1.609375 1.6875 1.609375 4.375q0 2.671875 -1.609375 4.390625q-1.59375 1.703125 -4.125 1.703125zm0 -1.59375q1.6875 0 2.765625 -1.265625q1.078125 -1.265625 1.078125 -3.234375q0 -1.9375 -1.078125 -3.1875q-1.078125 -1.265625 -2.765625 -1.265625q-1.671875 0 -2.765625 1.25q-1.09375 1.234375 -1.09375 3.203125q0 2.0 1.078125 3.25q1.078125 1.25 2.78125 1.25zm13.774841 1.59375q-2.53125 0 -4.15625 -1.71875q-1.625 -1.734375 -1.625 -4.375q0 -2.609375 1.625 -4.328125q1.625 -1.734375 4.15625 -1.734375q2.6875 0 4.25 2.015625l-1.203125 1.09375q-1.09375 -1.5 -2.9375 -1.5q-1.78125 0 -2.90625 1.234375q-1.109375 1.234375 -1.109375 3.21875q0 2.015625 1.09375 3.265625q1.109375 1.234375 2.921875 1.234375q1.8125 0 2.9375 -1.515625l1.203125 1.09375q-1.5625 2.015625 -4.25 2.015625zm6.770584 -0.28125l0 -11.59375l1.796875 0l0 1.875q1.609375 -2.109375 3.875 -2.109375l0 1.84375l-0.71875 -0.078125q-0.828125 0 -1.8125 0.59375q-0.984375 0.59375 -1.34375 1.265625l0 8.203125l-1.796875 0zm13.154358 0.28125q-2.609375 0 -4.265625 -1.703125q-1.640625 -1.703125 -1.640625 -4.390625q0 -2.5625 1.625 -4.3125q1.640625 -1.75 4.09375 -1.75q2.5 0 4.03125 1.734375q1.53125 1.71875 1.53125 4.484375l0 0.453125l-9.375 0q0.09375 1.765625 1.28125 2.890625q1.1875 1.109375 2.890625 1.109375q2.109375 0 3.578125 -1.453125l0.859375 1.171875q-1.78125 1.765625 -4.609375 1.765625zm3.59375 -6.8125q0 -1.609375 -1.0625 -2.734375q-1.046875 -1.125 -2.75 -1.125q-1.609375 0 -2.671875 1.125q-1.0625 1.125 -1.109375 2.734375l7.59375 0zm13.969574 6.53125l-4.8125 -11.59375l1.9375 0l3.859375 9.5l3.84375 -9.5l1.96875 0l-4.828125 11.59375l-1.96875 0zm9.556839 -13.25q-0.484375 0 -0.84375 -0.34375q-0.359375 -0.34375 -0.359375 -0.859375q0 -0.5 0.359375 -0.859375q0.359375 -0.359375 0.84375 -0.359375q0.5 0 0.859375 0.359375q0.359375 0.359375 0.359375 0.859375q0 0.515625 -0.359375 0.859375q-0.359375 0.34375 -0.859375 0.34375zm-0.890625 13.25l0 -11.59375l1.796875 0l0 11.59375l-1.796875 0zm9.071854 0.28125q-2.953125 0 -4.671875 -1.8125l0.9375 -1.296875q0.5625 0.671875 1.578125 1.171875q1.03125 0.484375 2.234375 0.484375q1.34375 0 2.03125 -0.5625q0.703125 -0.5625 0.703125 -1.4375q0 -0.765625 -0.765625 -1.203125q-0.75 -0.453125 -2.8125 -0.921875q-1.75 -0.359375 -2.671875 -1.140625q-0.921875 -0.78125 -0.921875 -2.109375q0 -1.46875 1.171875 -2.390625q1.171875 -0.9375 3.140625 -0.9375q2.625 0 4.296875 1.671875l-0.84375 1.25q-0.515625 -0.625 -1.421875 -1.046875q-0.90625 -0.421875 -2.03125 -0.421875q-1.203125 0 -1.890625 0.53125q-0.671875 0.53125 -0.671875 1.296875q0 0.703125 0.765625 1.109375q0.765625 0.40625 2.828125 0.84375q1.75 0.40625 2.65625 1.234375q0.921875 0.828125 0.921875 2.1875q0 1.609375 -1.25 2.5625q-1.25 0.9375 -3.3125 0.9375zm15.316223 -0.28125l0 -1.625q-0.671875 0.765625 -1.75 1.34375q-1.078125 0.5625 -2.375 0.5625q-3.703125 0 -3.703125 -3.6875l0 -8.1875l1.796875 0l0 7.640625q0 1.359375 0.625 2.0q0.625 0.640625 1.96875 0.640625q1.0625 0 2.0 -0.53125q0.9375 -0.53125 1.4375 -1.234375l0 -8.515625l1.796875 0l0 11.59375l-1.796875 0zm12.6458435 0l0 -1.3125q-1.46875 1.59375 -3.84375 1.59375q-1.75 0 -2.90625 -1.09375q-1.140625 -1.109375 -1.140625 -2.734375q0 -1.6875 1.140625 -2.75q1.140625 -1.078125 2.90625 -1.078125q2.5 0 3.84375 1.59375l0 -2.09375q0 -1.171875 -0.828125 -1.796875q-0.828125 -0.640625 -2.09375 -0.640625q-2.046875 0 -3.5625 1.59375l-0.828125 -1.234375q1.84375 -1.921875 4.625 -1.921875q2.140625 0 3.3125 1.03125q1.171875 1.03125 1.171875 2.875l0 7.96875l-1.796875 0zm-3.1875 -1.015625q2.125 0 3.1875 -1.4375l0 -2.171875q-1.0625 -1.453125 -3.1875 -1.453125q-1.28125 0 -2.078125 0.71875q-0.78125 0.703125 -0.78125 1.828125q0 1.109375 0.78125 1.8125q0.796875 0.703125 2.078125 0.703125zm8.5854645 1.015625l0 -16.015625l1.796875 0l0 16.015625l-1.796875 0z" fill-rule="nonzero"></path><path fill="#616161" d="m44.41191 263.67975q-0.484375 0 -0.84375 -0.34375q-0.359375 -0.34375 -0.359375 -0.859375q0 -0.5 0.359375 -0.859375q0.359375 -0.359375 0.84375 -0.359375q0.5 0 0.859375 0.359375q0.359375 0.359375 0.359375 0.859375q0 0.515625 -0.359375 0.859375q-0.359375 0.34375 -0.859375 0.34375zm-0.890625 13.25l0 -11.59375l1.796875 0l0 11.59375l-1.796875 0zm13.228104 0l0 -7.578125q0 -1.546875 -0.71875 -2.109375q-0.703125 -0.578125 -1.875 -0.578125q-1.0 0 -1.984375 0.546875q-0.96875 0.53125 -1.453125 1.25l0 8.46875l-1.796875 0l0 -11.59375l1.796875 0l0 1.6875q0.75 -0.875 1.84375 -1.421875q1.09375 -0.546875 2.296875 -0.546875q3.6875 0 3.6875 3.734375l0 8.140625l-1.796875 0zm9.0677185 0.28125q-2.953125 0 -4.671875 -1.8125l0.9375 -1.296875q0.5625 0.671875 1.578125 1.171875q1.03125 0.484375 2.234375 0.484375q1.34375 0 2.03125 -0.5625q0.703125 -0.5625 0.703125 -1.4375q0 -0.765625 -0.765625 -1.203125q-0.75 -0.453125 -2.8125 -0.921875q-1.75 -0.359375 -2.671875 -1.140625q-0.921875 -0.78125 -0.921875 -2.109375q0 -1.46875 1.171875 -2.390625q1.171875 -0.9375 3.140625 -0.9375q2.625 0 4.296875 1.671875l-0.84375 1.25q-0.515625 -0.625 -1.421875 -1.046875q-0.90625 -0.421875 -2.03125 -0.421875q-1.203125 0 -1.890625 0.53125q-0.671875 0.53125 -0.671875 1.296875q0 0.703125 0.765625 1.109375q0.765625 0.40625 2.828125 0.84375q1.75 0.40625 2.65625 1.234375q0.921875 0.828125 0.921875 2.1875q0 1.609375 -1.25 2.5625q-1.25 0.9375 -3.3125 0.9375zm10.425598 0q-2.578125 0 -2.578125 -2.703125l0 -7.59375l-1.921875 0l0 -1.578125l1.921875 0l0 -3.171875l1.796875 0l0 3.171875l2.359375 0l0 1.578125l-2.359375 0l0 7.203125q0 0.65625 0.28125 1.078125q0.296875 0.421875 0.90625 0.421875q0.734375 0 1.21875 -0.484375l0.53125 1.34375q-0.75 0.734375 -2.15625 0.734375zm11.3684845 -0.28125l0 -1.3125q-1.46875 1.59375 -3.84375 1.59375q-1.75 0 -2.90625 -1.09375q-1.140625 -1.109375 -1.140625 -2.734375q0 -1.6875 1.140625 -2.75q1.140625 -1.078125 2.90625 -1.078125q2.5 0 3.84375 1.59375l0 -2.09375q0 -1.171875 -0.828125 -1.796875q-0.828125 -0.640625 -2.09375 -0.640625q-2.046875 0 -3.5625 1.59375l-0.828125 -1.234375q1.84375 -1.921875 4.625 -1.921875q2.140625 0 3.3125 1.03125q1.171875 1.03125 1.171875 2.875l0 7.96875l-1.796875 0zm-3.1875 -1.015625q2.125 0 3.1875 -1.4375l0 -2.171875q-1.0625 -1.453125 -3.1875 -1.453125q-1.28125 0 -2.078125 0.71875q-0.78125 0.703125 -0.78125 1.828125q0 1.109375 0.78125 1.8125q0.796875 0.703125 2.078125 0.703125zm8.5854645 1.015625l0 -16.015625l1.796875 0l0 16.015625l-1.796875 0zm5.3999786 0l0 -16.015625l1.796875 0l0 16.015625l-1.796875 0zm12.649979 0l0 -1.3125q-1.46875 1.59375 -3.84375 1.59375q-1.75 0 -2.90625 -1.09375q-1.140625 -1.109375 -1.140625 -2.734375q0 -1.6875 1.140625 -2.75q1.140625 -1.078125 2.90625 -1.078125q2.5 0 3.84375 1.59375l0 -2.09375q0 -1.171875 -0.828125 -1.796875q-0.828125 -0.640625 -2.09375 -0.640625q-2.046875 0 -3.5625 1.59375l-0.828125 -1.234375q1.84375 -1.921875 4.625 -1.921875q2.140625 0 3.3125 1.03125q1.171875 1.03125 1.171875 2.875l0 7.96875l-1.796875 0zm-3.1875 -1.015625q2.125 0 3.1875 -1.4375l0 -2.171875q-1.0625 -1.453125 -3.1875 -1.453125q-1.28125 0 -2.078125 0.71875q-0.78125 0.703125 -0.78125 1.828125q0 1.109375 0.78125 1.8125q0.796875 0.703125 2.078125 0.703125zm11.5229645 1.296875q-2.578125 0 -2.578125 -2.703125l0 -7.59375l-1.921875 0l0 -1.578125l1.921875 0l0 -3.171875l1.796875 0l0 3.171875l2.359375 0l0 1.578125l-2.359375 0l0 7.203125q0 0.65625 0.28125 1.078125q0.296875 0.421875 0.90625 0.421875q0.734375 0 1.21875 -0.484375l0.53125 1.34375q-0.75 0.734375 -2.15625 0.734375zm5.0091095 -13.53125q-0.484375 0 -0.84375 -0.34375q-0.359375 -0.34375 -0.359375 -0.859375q0 -0.5 0.359375 -0.859375q0.359375 -0.359375 0.84375 -0.359375q0.5 0 0.859375 0.359375q0.359375 0.359375 0.359375 0.859375q0 0.515625 -0.359375 0.859375q-0.359375 0.34375 -0.859375 0.34375zm-0.890625 13.25l0 -11.59375l1.796875 0l0 11.59375l-1.796875 0zm10.462479 0.28125q-2.515625 0 -4.125 -1.703125q-1.609375 -1.71875 -1.609375 -4.390625q0 -2.6875 1.609375 -4.375q1.609375 -1.6875 4.125 -1.6875q2.53125 0 4.125 1.6875q1.609375 1.6875 1.609375 4.375q0 2.671875 -1.609375 4.390625q-1.59375 1.703125 -4.125 1.703125zm0 -1.59375q1.6875 0 2.765625 -1.265625q1.078125 -1.265625 1.078125 -3.234375q0 -1.9375 -1.078125 -3.1875q-1.078125 -1.265625 -2.765625 -1.265625q-1.671875 0 -2.765625 1.25q-1.09375 1.234375 -1.09375 3.203125q0 2.0 1.078125 3.25q1.078125 1.25 2.78125 1.25zm16.493591 1.3125l0 -7.578125q0 -1.546875 -0.71875 -2.109375q-0.703125 -0.578125 -1.875 -0.578125q-1.0 0 -1.984375 0.546875q-0.96875 0.53125 -1.453125 1.25l0 8.46875l-1.796875 0l0 -11.59375l1.796875 0l0 1.6875q0.75 -0.875 1.84375 -1.421875q1.09375 -0.546875 2.296875 -0.546875q3.6875 0 3.6875 3.734375l0 8.140625l-1.796875 0zm9.0677185 0.28125q-2.953125 0 -4.671875 -1.8125l0.9375 -1.296875q0.5625 0.671875 1.578125 1.171875q1.03125 0.484375 2.234375 0.484375q1.34375 0 2.03125 -0.5625q0.703125 -0.5625 0.703125 -1.4375q0 -0.765625 -0.765625 -1.203125q-0.75 -0.453125 -2.8125 -0.921875q-1.75 -0.359375 -2.671875 -1.140625q-0.921875 -0.78125 -0.921875 -2.109375q0 -1.46875 1.171875 -2.390625q1.171875 -0.9375 3.140625 -0.9375q2.625 0 4.296875 1.671875l-0.84375 1.25q-0.515625 -0.625 -1.421875 -1.046875q-0.90625 -0.421875 -2.03125 -0.421875q-1.203125 0 -1.890625 0.53125q-0.671875 0.53125 -0.671875 1.296875q0 0.703125 0.765625 1.109375q0.765625 0.40625 2.828125 0.84375q1.75 0.40625 2.65625 1.234375q0.921875 0.828125 0.921875 2.1875q0 1.609375 -1.25 2.5625q-1.25 0.9375 -3.3125 0.9375zm18.91446 0q-2.609375 0 -4.265625 -1.703125q-1.640625 -1.703125 -1.640625 -4.390625q0 -2.5625 1.625 -4.3125q1.640625 -1.75 4.09375 -1.75q2.5 0 4.03125 1.734375q1.53125 1.71875 1.53125 4.484375l0 0.453125l-9.375 0q0.09375 1.765625 1.28125 2.890625q1.1875 1.109375 2.890625 1.109375q2.109375 0 3.578125 -1.453125l0.859375 1.171875q-1.78125 1.765625 -4.609375 1.765625zm3.59375 -6.8125q0 -1.609375 -1.0625 -2.734375q-1.046875 -1.125 -2.75 -1.125q-1.609375 0 -2.671875 1.125q-1.0625 1.125 -1.109375 2.734375l7.59375 0zm7.777588 6.53125l-4.8125 -11.59375l1.9375 0l3.859375 9.5l3.84375 -9.5l1.96875 0l-4.828125 11.59375l-1.96875 0zm13.900589 0.28125q-2.609375 0 -4.265625 -1.703125q-1.640625 -1.703125 -1.640625 -4.390625q0 -2.5625 1.625 -4.3125q1.640625 -1.75 4.09375 -1.75q2.5 0 4.03125 1.734375q1.53125 1.71875 1.53125 4.484375l0 0.453125l-9.375 0q0.09375 1.765625 1.28125 2.890625q1.1875 1.109375 2.890625 1.109375q2.109375 0 3.578125 -1.453125l0.859375 1.171875q-1.78125 1.765625 -4.609375 1.765625zm3.59375 -6.8125q0 -1.609375 -1.0625 -2.734375q-1.046875 -1.125 -2.75 -1.125q-1.609375 0 -2.671875 1.125q-1.0625 1.125 -1.109375 2.734375l7.59375 0zm4.683838 6.53125l0 -11.59375l1.796875 0l0 1.875q1.609375 -2.109375 3.875 -2.109375l0 1.84375l-0.71875 -0.078125q-0.828125 0 -1.8125 0.59375q-0.984375 0.59375 -1.34375 1.265625l0 8.203125l-1.796875 0zm7.560608 2.90625q0.390625 0.1875 0.984375 0.1875q0.609375 0 1.015625 -0.25q0.40625 -0.25 0.71875 -0.96875l0.765625 -1.75l-4.84375 -11.71875l1.9375 0l3.859375 9.5l3.84375 -9.5l1.96875 0l-5.8125 13.953125q-0.953125 2.296875 -3.40625 2.34375q-0.6875 0 -1.3125 -0.171875l0.28125 -1.625zm17.95195 0q0.390625 0.1875 0.984375 0.1875q0.609375 0 1.015625 -0.25q0.40625 -0.25 0.71875 -0.96875l0.765625 -1.75l-4.84375 -11.71875l1.9375 0l3.859375 9.5l3.84375 -9.5l1.96875 0l-5.8125 13.953125q-0.953125 2.296875 -3.40625 2.34375q-0.6875 0 -1.3125 -0.171875l0.28125 -1.625zm17.353714 -2.625q-2.609375 0 -4.265625 -1.703125q-1.640625 -1.703125 -1.640625 -4.390625q0 -2.5625 1.625 -4.3125q1.640625 -1.75 4.09375 -1.75q2.5 0 4.03125 1.734375q1.53125 1.71875 1.53125 4.484375l0 0.453125l-9.375 0q0.09375 1.765625 1.28125 2.890625q1.1875 1.109375 2.890625 1.109375q2.109375 0 3.578125 -1.453125l0.859375 1.171875q-1.78125 1.765625 -4.609375 1.765625zm3.59375 -6.8125q0 -1.609375 -1.0625 -2.734375q-1.046875 -1.125 -2.75 -1.125q-1.609375 0 -2.671875 1.125q-1.0625 1.125 -1.109375 2.734375l7.59375 0zm11.933838 6.53125l0 -1.3125q-1.46875 1.59375 -3.84375 1.59375q-1.75 0 -2.90625 -1.09375q-1.140625 -1.109375 -1.140625 -2.734375q0 -1.6875 1.140625 -2.75q1.140625 -1.078125 2.90625 -1.078125q2.5 0 3.84375 1.59375l0 -2.09375q0 -1.171875 -0.828125 -1.796875q-0.828125 -0.640625 -2.09375 -0.640625q-2.046875 0 -3.5625 1.59375l-0.828125 -1.234375q1.84375 -1.921875 4.625 -1.921875q2.140625 0 3.3125 1.03125q1.171875 1.03125 1.171875 2.875l0 7.96875l-1.796875 0zm-3.1875 -1.015625q2.125 0 3.1875 -1.4375l0 -2.171875q-1.0625 -1.453125 -3.1875 -1.453125q-1.28125 0 -2.078125 0.71875q-0.78125 0.703125 -0.78125 1.828125q0 1.109375 0.78125 1.8125q0.796875 0.703125 2.078125 0.703125zm8.585449 1.015625l0 -11.59375l1.796875 0l0 1.875q1.609375 -2.109375 3.875 -2.109375l0 1.84375l-0.71875 -0.078125q-0.828125 0 -1.8125 0.59375q-0.984375 0.59375 -1.34375 1.265625l0 8.203125l-1.796875 0z" fill-rule="nonzero"></path><path fill="#616161" d="m47.615036 323.43726q-2.171875 0 -3.5625 -1.28125q-1.375 -1.296875 -1.375 -3.390625q0 -1.765625 0.8125 -3.234375q0.8125 -1.46875 2.203125 -2.296875q1.40625 -0.828125 2.984375 -0.828125q1.609375 0 2.703125 0.6875q1.09375 0.671875 1.65625 1.8125l-1.265625 0.5q-0.90625 -1.8125 -3.171875 -1.8125q-1.171875 0 -2.234375 0.6875q-1.0625 0.671875 -1.671875 1.84375q-0.59375 1.171875 -0.59375 2.578125q0 1.640625 1.0 2.609375q1.0 0.953125 2.59375 0.953125q1.578125 0 2.859375 -1.21875l0.984375 0.734375q-1.5625 1.65625 -3.921875 1.65625zm10.4879 -0.1875l1.109375 -5.078125l0.09375 -0.515625q0 -1.25 -1.59375 -1.25q-1.203125 0 -2.390625 1.234375l-1.25 5.609375l-1.1875 0l2.34375 -10.671875l1.203125 0l-0.90625 4.0625q1.40625 -1.3125 2.75 -1.3125q1.015625 0 1.65625 0.5q0.640625 0.484375 0.640625 1.421875l-0.09375 0.640625l-1.171875 5.359375l-1.203125 0zm7.957016 -7.921875q0.90625 0 1.59375 0.390625q0.703125 0.375 1.09375 1.015625l0.265625 -1.21875l1.203125 0l-1.703125 7.734375l-1.203125 0l0.234375 -1.109375q-1.015625 1.296875 -2.546875 1.296875q-1.34375 0 -2.171875 -0.84375q-0.8125 -0.84375 -0.8125 -2.328125q0 -2.078125 1.140625 -3.5q1.15625 -1.4375 2.90625 -1.4375zm0.15625 1.078125q-1.265625 0 -2.109375 1.09375q-0.828125 1.078125 -0.828125 2.53125q0 1.09375 0.59375 1.71875q0.59375 0.625 1.5625 0.625q0.71875 0 1.34375 -0.375q0.640625 -0.390625 1.015625 -0.9375l0.765625 -3.40625q-0.296875 -0.515625 -0.890625 -0.875q-0.59375 -0.375 -1.453125 -0.375zm4.700012 6.84375l1.703125 -7.734375l1.203125 0l-0.28125 1.1875q0.578125 -0.65625 1.234375 -1.0q0.65625 -0.34375 1.65625 -0.34375l-0.28125 1.234375q-0.15625 -0.0625 -0.609375 -0.0625q-0.671875 0 -1.265625 0.390625q-0.59375 0.375 -0.96875 0.875l-1.203125 5.453125l-1.1875 0zm7.592514 0.1875q-1.765625 0 -1.765625 -1.40625l0.046875 -0.4375l1.125 -5.03125l-1.28125 0l0.25 -1.046875l1.265625 0l0.46875 -2.109375l1.203125 0l-0.46875 2.109375l1.578125 0l-0.25 1.046875l-1.5625 0l-1.0625 4.765625l-0.03125 0.328125q0 0.71875 0.765625 0.71875q0.453125 0 0.75 -0.265625l0.140625 0.96875q-0.46875 0.359375 -1.171875 0.359375zm3.11026 -0.03125q-0.359375 0 -0.59375 -0.21875q-0.234375 -0.234375 -0.234375 -0.578125q0 -0.40625 0.28125 -0.671875q0.296875 -0.28125 0.703125 -0.28125q0.328125 0 0.5625 0.234375q0.234375 0.234375 0.234375 0.578125q0 0.390625 -0.296875 0.671875q-0.28125 0.265625 -0.65625 0.265625zm1.375 -6.234375q-0.34375 0 -0.578125 -0.234375q-0.234375 -0.25 -0.234375 -0.578125q0 -0.40625 0.28125 -0.671875q0.28125 -0.28125 0.6875 -0.28125q0.328125 0 0.5625 0.25q0.234375 0.234375 0.234375 0.546875q0 0.421875 -0.28125 0.703125q-0.28125 0.265625 -0.671875 0.265625zm13.433014 6.078125l-0.421875 -2.375l-5.328125 0l-1.453125 2.375l-1.578125 0l6.640625 -10.671875l1.640625 0l1.953125 10.671875l-1.453125 0zm-1.546875 -9.296875l-3.53125 5.75l4.53125 0l-1.0 -5.75zm6.41864 9.296875l-1.515625 -7.734375l1.265625 0l1.15625 6.34375l3.984375 -6.34375l1.34375 0l-4.921875 7.734375l-1.3125 0zm9.855637 0.1875q-1.734375 0 -2.765625 -0.90625q-1.015625 -0.921875 -1.015625 -2.515625q0 -1.953125 1.265625 -3.3125q1.28125 -1.375 3.078125 -1.375q1.515625 0 2.421875 0.9375q0.90625 0.921875 0.90625 2.4375q0 0.375 -0.125 1.078125l-6.296875 0l-0.015625 0.359375q0 1.0 0.71875 1.65625q0.71875 0.65625 1.90625 0.65625q1.28125 0 2.21875 -0.75l0.40625 0.828125q-0.515625 0.421875 -1.234375 0.671875q-0.71875 0.234375 -1.46875 0.234375zm2.78125 -4.546875l0.03125 -0.296875q0 -0.953125 -0.609375 -1.609375q-0.59375 -0.65625 -1.75 -0.65625q-1.0 0 -1.828125 0.734375q-0.828125 0.71875 -1.03125 1.828125l5.1875 0zm2.1486359 4.359375l1.703125 -7.734375l1.203125 0l-0.28125 1.1875q0.578125 -0.65625 1.234375 -1.0q0.65625 -0.34375 1.65625 -0.34375l-0.28125 1.234375q-0.15625 -0.0625 -0.609375 -0.0625q-0.671875 0 -1.265625 0.390625q-0.59375 0.375 -0.96875 0.875l-1.203125 5.453125l-1.1875 0zm9.623764 -7.921875q0.90625 0 1.59375 0.390625q0.703125 0.375 1.09375 1.015625l0.265625 -1.21875l1.203125 0l-1.703125 7.734375l-1.203125 0l0.234375 -1.109375q-1.015625 1.296875 -2.546875 1.296875q-1.34375 0 -2.171875 -0.84375q-0.8125 -0.84375 -0.8125 -2.328125q0 -2.078125 1.140625 -3.5q1.15625 -1.4375 2.90625 -1.4375zm0.15625 1.078125q-1.265625 0 -2.109375 1.09375q-0.828125 1.078125 -0.828125 2.53125q0 1.09375 0.59375 1.71875q0.59375 0.625 1.5625 0.625q0.71875 0 1.34375 -0.375q0.640625 -0.390625 1.015625 -0.9375l0.765625 -3.40625q-0.296875 -0.515625 -0.890625 -0.875q-0.59375 -0.375 -1.453125 -0.375zm7.746887 9.984375q-1.109375 0 -1.96875 -0.28125q-0.859375 -0.265625 -1.484375 -1.03125l0.765625 -0.8125q0.78125 1.125 2.671875 1.125q1.03125 0 1.6875 -0.625q0.671875 -0.609375 0.90625 -1.734375l0.21875 -1.015625q-1.015625 1.3125 -2.625 1.3125q-1.359375 0 -2.15625 -0.84375q-0.78125 -0.84375 -0.78125 -2.359375q0 -1.984375 1.140625 -3.390625q1.140625 -1.40625 2.890625 -1.40625q0.75 0 1.484375 0.375q0.734375 0.375 1.21875 1.03125l0.265625 -1.21875l1.203125 0l-1.65625 7.515625q-0.359375 1.625 -1.328125 2.484375q-0.953125 0.875 -2.453125 0.875zm0.65625 -4.125q0.671875 0 1.3125 -0.359375q0.640625 -0.375 1.0625 -0.875l0.734375 -3.34375q-0.328125 -0.59375 -0.984375 -0.9375q-0.65625 -0.34375 -1.421875 -0.34375q-1.234375 0 -2.046875 1.046875q-0.8125 1.03125 -0.8125 2.484375q0 1.09375 0.578125 1.71875q0.59375 0.609375 1.578125 0.609375zm9.559021 1.171875q-1.734375 0 -2.765625 -0.90625q-1.015625 -0.921875 -1.015625 -2.515625q0 -1.953125 1.265625 -3.3125q1.28125 -1.375 3.078125 -1.375q1.515625 0 2.421875 0.9375q0.90625 0.921875 0.90625 2.4375q0 0.375 -0.125 1.078125l-6.296875 0l-0.015625 0.359375q0 1.0 0.71875 1.65625q0.71875 0.65625 1.90625 0.65625q1.28125 0 2.21875 -0.75l0.40625 0.828125q-0.515625 0.421875 -1.234375 0.671875q-0.71875 0.234375 -1.46875 0.234375zm2.78125 -4.546875l0.03125 -0.296875q0 -0.953125 -0.609375 -1.609375q-0.59375 -0.65625 -1.75 -0.65625q-1.0 0 -1.828125 0.734375q-0.828125 0.71875 -1.03125 1.828125l5.1875 0zm9.245392 4.546875q-2.1875 0 -3.265625 -1.359375l0.765625 -0.828125q0.40625 0.578125 1.125 0.90625q0.71875 0.3125 1.4375 0.3125q0.828125 0 1.296875 -0.40625q0.484375 -0.421875 0.484375 -0.953125q0 -0.40625 -0.4375 -0.71875q-0.4375 -0.3125 -1.59375 -0.71875q-1.046875 -0.390625 -1.546875 -0.859375q-0.484375 -0.46875 -0.484375 -1.09375q0 -1.046875 0.796875 -1.71875q0.796875 -0.671875 2.125 -0.671875q1.0 0 1.78125 0.375q0.78125 0.359375 1.15625 0.890625l-0.6875 0.78125q-0.25 -0.421875 -0.921875 -0.734375q-0.671875 -0.328125 -1.390625 -0.328125q-0.78125 0 -1.234375 0.34375q-0.4375 0.34375 -0.4375 0.828125q0 0.390625 0.40625 0.671875q0.40625 0.265625 1.625 0.703125q2.046875 0.75 2.046875 2.03125q0 1.125 -0.859375 1.84375q-0.859375 0.703125 -2.1875 0.703125zm8.627518 0q-0.921875 0 -1.625 -0.375q-0.6875 -0.390625 -1.0625 -1.03125l-0.9375 4.15625l-1.1875 0l2.359375 -10.671875l1.203125 0l-0.265625 1.109375q1.0625 -1.296875 2.5625 -1.296875q1.375 0 2.1875 0.890625q0.8125 0.875 0.8125 2.296875q0 2.0625 -1.171875 3.5q-1.15625 1.421875 -2.875 1.421875zm-0.15625 -1.0625q1.25 0 2.09375 -1.09375q0.84375 -1.09375 0.84375 -2.546875q0 -1.078125 -0.609375 -1.703125q-0.59375 -0.625 -1.546875 -0.625q-0.734375 0 -1.359375 0.390625q-0.625 0.390625 -1.015625 0.9375l-0.75 3.390625q0.28125 0.53125 0.875 0.890625q0.609375 0.359375 1.46875 0.359375zm9.230148 1.0625q-1.734375 0 -2.765625 -0.90625q-1.015625 -0.921875 -1.015625 -2.515625q0 -1.953125 1.265625 -3.3125q1.28125 -1.375 3.078125 -1.375q1.515625 0 2.421875 0.9375q0.90625 0.921875 0.90625 2.4375q0 0.375 -0.125 1.078125l-6.296875 0l-0.015625 0.359375q0 1.0 0.71875 1.65625q0.71875 0.65625 1.90625 0.65625q1.28125 0 2.21875 -0.75l0.40625 0.828125q-0.515625 0.421875 -1.234375 0.671875q-0.71875 0.234375 -1.46875 0.234375zm2.78125 -4.546875l0.03125 -0.296875q0 -0.953125 -0.609375 -1.609375q-0.59375 -0.65625 -1.75 -0.65625q-1.0 0 -1.828125 0.734375q-0.828125 0.71875 -1.03125 1.828125l5.1875 0zm7.351761 4.359375l1.1875 -5.328125l0.03125 -0.265625q0 -0.671875 -0.453125 -0.953125q-0.4375 -0.296875 -1.0625 -0.296875q-1.296875 0 -2.46875 1.21875l-1.25 5.625l-1.1875 0l1.703125 -7.734375l1.203125 0l-0.265625 1.125q1.40625 -1.3125 2.75 -1.3125q1.015625 0 1.65625 0.5q0.640625 0.484375 0.640625 1.421875l-0.09375 0.640625l-1.1875 5.359375l-1.203125 0zm7.95665 -7.921875q0.90625 0 1.59375 0.390625q0.703125 0.375 1.09375 1.015625l0.921875 -4.15625l1.203125 0l-2.359375 10.671875l-1.203125 0l0.234375 -1.109375q-1.015625 1.296875 -2.546875 1.296875q-1.34375 0 -2.171875 -0.84375q-0.8125 -0.84375 -0.8125 -2.328125q0 -2.078125 1.140625 -3.5q1.15625 -1.4375 2.90625 -1.4375zm0.15625 1.078125q-1.265625 0 -2.109375 1.09375q-0.828125 1.078125 -0.828125 2.53125q0 1.09375 0.59375 1.71875q0.59375 0.625 1.5625 0.625q0.71875 0 1.34375 -0.375q0.640625 -0.390625 1.015625 -0.9375l0.765625 -3.40625q-0.296875 -0.515625 -0.890625 -0.875q-0.59375 -0.375 -1.453125 -0.375zm12.984268 7.03125q-0.921875 0 -1.625 -0.375q-0.6875 -0.390625 -1.0625 -1.03125l-0.9375 4.15625l-1.1875 0l2.359375 -10.671875l1.203125 0l-0.265625 1.109375q1.0625 -1.296875 2.5625 -1.296875q1.375 0 2.1875 0.890625q0.8125 0.875 0.8125 2.296875q0 2.0625 -1.171875 3.5q-1.15625 1.421875 -2.875 1.421875zm-0.15625 -1.0625q1.25 0 2.09375 -1.09375q0.84375 -1.09375 0.84375 -2.546875q0 -1.078125 -0.609375 -1.703125q-0.59375 -0.625 -1.546875 -0.625q-0.734375 0 -1.359375 0.390625q-0.625 0.390625 -1.015625 0.9375l-0.75 3.390625q0.28125 0.53125 0.875 0.890625q0.609375 0.359375 1.46875 0.359375zm9.230148 1.0625q-1.734375 0 -2.765625 -0.90625q-1.015625 -0.921875 -1.015625 -2.515625q0 -1.953125 1.265625 -3.3125q1.28125 -1.375 3.078125 -1.375q1.515625 0 2.421875 0.9375q0.90625 0.921875 0.90625 2.4375q0 0.375 -0.125 1.078125l-6.296875 0l-0.015625 0.359375q0 1.0 0.71875 1.65625q0.71875 0.65625 1.90625 0.65625q1.28125 0 2.21875 -0.75l0.40625 0.828125q-0.515625 0.421875 -1.234375 0.671875q-0.71875 0.234375 -1.46875 0.234375zm2.78125 -4.546875l0.03125 -0.296875q0 -0.953125 -0.609375 -1.609375q-0.59375 -0.65625 -1.75 -0.65625q-1.0 0 -1.828125 0.734375q-0.828125 0.71875 -1.03125 1.828125l5.1875 0zm2.1486359 4.359375l1.703125 -7.734375l1.203125 0l-0.28125 1.1875q0.578125 -0.65625 1.234375 -1.0q0.65625 -0.34375 1.65625 -0.34375l-0.28125 1.234375q-0.15625 -0.0625 -0.609375 -0.0625q-0.671875 0 -1.265625 0.390625q-0.59375 0.375 -0.96875 0.875l-1.203125 5.453125l-1.1875 0zm8.75177 1.890625q0.28125 0.125 0.75 0.125q0.3125 0 0.578125 -0.15625q0.265625 -0.15625 0.5625 -0.609375l0.796875 -1.203125l-1.484375 -7.78125l1.265625 0l1.15625 6.34375l3.984375 -6.34375l1.34375 0l-5.953125 9.296875q-0.515625 0.828125 -1.078125 1.203125q-0.5625 0.375 -1.34375 0.375q-0.53125 0 -1.0 -0.1875l0.421875 -1.0625zm12.574387 -1.703125q-1.734375 0 -2.765625 -0.90625q-1.015625 -0.921875 -1.015625 -2.515625q0 -1.953125 1.265625 -3.3125q1.28125 -1.375 3.078125 -1.375q1.515625 0 2.421875 0.9375q0.90625 0.921875 0.90625 2.4375q0 0.375 -0.125 1.078125l-6.296875 0l-0.015625 0.359375q0 1.0 0.71875 1.65625q0.71875 0.65625 1.90625 0.65625q1.28125 0 2.21875 -0.75l0.40625 0.828125q-0.515625 0.421875 -1.234375 0.671875q-0.71875 0.234375 -1.46875 0.234375zm2.78125 -4.546875l0.03125 -0.296875q0 -0.953125 -0.609375 -1.609375q-0.59375 -0.65625 -1.75 -0.65625q-1.0 0 -1.828125 0.734375q-0.828125 0.71875 -1.03125 1.828125l5.1875 0zm6.492386 -3.5625q0.90625 0 1.59375 0.390625q0.703125 0.375 1.09375 1.015625l0.265625 -1.21875l1.203125 0l-1.703125 7.734375l-1.203125 0l0.234375 -1.109375q-1.015625 1.296875 -2.546875 1.296875q-1.34375 0 -2.171875 -0.84375q-0.8125 -0.84375 -0.8125 -2.328125q0 -2.078125 1.140625 -3.5q1.15625 -1.4375 2.90625 -1.4375zm0.15625 1.078125q-1.265625 0 -2.109375 1.09375q-0.828125 1.078125 -0.828125 2.53125q0 1.09375 0.59375 1.71875q0.59375 0.625 1.5625 0.625q0.71875 0 1.34375 -0.375q0.640625 -0.390625 1.015625 -0.9375l0.765625 -3.40625q-0.296875 -0.515625 -0.890625 -0.875q-0.59375 -0.375 -1.453125 -0.375zm4.700012 6.84375l1.703125 -7.734375l1.203125 0l-0.28125 1.1875q0.578125 -0.65625 1.234375 -1.0q0.65625 -0.34375 1.65625 -0.34375l-0.28125 1.234375q-0.15625 -0.0625 -0.609375 -0.0625q-0.671875 0 -1.265625 0.390625q-0.59375 0.375 -0.96875 0.875l-1.203125 5.453125l-1.1875 0zm9.06427 0l0.28125 -1.296875q3.625 -2.234375 4.859375 -3.1875q1.234375 -0.96875 1.875 -1.828125q0.640625 -0.859375 0.640625 -1.65625q0 -0.796875 -0.640625 -1.234375q-0.640625 -0.4375 -1.65625 -0.4375q-1.625 0 -2.734375 1.03125l-0.625 -0.9375q0.609375 -0.578125 1.515625 -0.921875q0.921875 -0.359375 1.921875 -0.359375q1.59375 0 2.609375 0.765625q1.03125 0.75 1.03125 2.03125q0 1.421875 -1.53125 3.03125q-1.515625 1.59375 -5.1875 3.8125l5.203125 0l-0.234375 1.1875l-7.328125 0zm13.861145 0.1875q-1.703125 0 -2.609375 -1.109375q-0.90625 -1.125 -0.90625 -3.046875q0 -1.75 0.65625 -3.34375q0.671875 -1.609375 1.828125 -2.5625q1.15625 -0.953125 2.546875 -0.953125q1.640625 0 2.5625 1.09375q0.921875 1.09375 0.921875 3.046875q0 1.734375 -0.65625 3.34375q-0.65625 1.609375 -1.8125 2.578125q-1.140625 0.953125 -2.53125 0.953125zm0.109375 -1.171875q0.96875 0 1.78125 -0.828125q0.8125 -0.828125 1.28125 -2.203125q0.46875 -1.375 0.46875 -2.75q0 -1.421875 -0.578125 -2.140625q-0.578125 -0.734375 -1.671875 -0.734375q-0.984375 0 -1.796875 0.828125q-0.796875 0.8125 -1.28125 2.203125q-0.484375 1.375 -0.484375 2.71875q0 1.40625 0.59375 2.15625q0.59375 0.75 1.6875 0.75zm13.088867 0.984375l-2.4687195 -4.515625l-4.34375 4.515625l-1.71875 0l5.375 -5.546875l-2.78125 -5.125l1.515625 0l2.28125 4.234375l4.0312195 -4.234375l1.71875 0l-5.0625 5.28125l2.953125 5.390625l-1.5 0zm10.432037 0l-2.46875 -4.515625l-4.34375 4.515625l-1.71875 0l5.375 -5.546875l-2.78125 -5.125l1.515625 0l2.28125 4.234375l4.03125 -4.234375l1.71875 0l-5.0625 5.28125l2.953125 5.390625l-1.5 0zm2.9320374 -3.34375l0.21875 -1.0625l3.84375 0l-0.234375 1.0625l-3.828125 0z" fill-rule="nonzero"></path><path fill="#616161" d="m41.72441 345.24976l0.28125 -1.296875q3.625 -2.234375 4.859375 -3.1875q1.234375 -0.96875 1.875 -1.828125q0.640625 -0.859375 0.640625 -1.65625q0 -0.796875 -0.640625 -1.234375q-0.640625 -0.4375 -1.65625 -0.4375q-1.625 0 -2.734375 1.03125l-0.625 -0.9375q0.609375 -0.578125 1.515625 -0.921875q0.921875 -0.359375 1.921875 -0.359375q1.59375 0 2.609375 0.765625q1.03125 0.75 1.03125 2.03125q0 1.421875 -1.53125 3.03125q-1.515625 1.59375 -5.1875 3.8125l5.203125 0l-0.234375 1.1875l-7.328125 0zm13.861145 0.1875q-1.703125 0 -2.609375 -1.109375q-0.90625 -1.125 -0.90625 -3.046875q0 -1.75 0.65625 -3.34375q0.671875 -1.609375 1.828125 -2.5625q1.15625 -0.953125 2.546875 -0.953125q1.640625 0 2.5625 1.09375q0.921875 1.09375 0.921875 3.046875q0 1.734375 -0.65625 3.34375q-0.65625 1.609375 -1.8125 2.578125q-1.140625 0.953125 -2.53125 0.953125zm0.109375 -1.171875q0.96875 0 1.78125 -0.828125q0.8125 -0.828125 1.28125 -2.203125q0.46875 -1.375 0.46875 -2.75q0 -1.421875 -0.578125 -2.140625q-0.578125 -0.734375 -1.671875 -0.734375q-0.984375 0 -1.796875 0.828125q-0.796875 0.8125 -1.28125 2.203125q-0.484375 1.375 -0.484375 2.71875q0 1.40625 0.59375 2.15625q0.59375 0.75 1.6875 0.75zm13.088898 0.984375l-2.46875 -4.515625l-4.34375 4.515625l-1.71875 0l5.375 -5.546875l-2.78125 -5.125l1.515625 0l2.28125 4.234375l4.03125 -4.234375l1.71875 0l-5.0625 5.28125l2.953125 5.390625l-1.5 0zm10.432022 0l-2.46875 -4.515625l-4.34375 4.515625l-1.71875 0l5.375 -5.546875l-2.78125 -5.125l1.515625 0l2.28125 4.234375l4.03125 -4.234375l1.71875 0l-5.0625 5.28125l2.953125 5.390625l-1.5 0z" fill-rule="nonzero"></path><path fill="#000000" fill-opacity="0.0" d="m523.74805 264.7034l137.19684 0l0 55.496063l-137.19684 0z" fill-rule="nonzero"></path><path fill="#202729" d="m539.1387 305.47385q-3.53125 -0.3125 -5.671875 -2.484375l1.84375 -2.59375q1.609375 1.671875 3.828125 2.0625l0 -3.796875q-2.171875 -0.546875 -3.140625 -1.140625q-0.96875 -0.609375 -1.5 -1.5q-0.53125 -0.890625 -0.53125 -2.15625q0 -1.921875 1.4375 -3.25q1.453125 -1.328125 3.734375 -1.578125l0 -2.234375l2.265625 0l0 2.28125q2.890625 0.34375 4.875 2.140625l-1.890625 2.5q-1.25 -1.15625 -2.984375 -1.5625l0 3.375q3.0 0.78125 4.109375 1.953125q1.125 1.15625 1.125 2.90625q0 2.125 -1.375 3.46875q-1.359375 1.328125 -3.859375 1.59375l0 2.1875l-2.265625 0l0 -2.171875zm4.046875 -4.703125q0 -0.59375 -0.5 -0.921875q-0.5 -0.34375 -1.28125 -0.609375l0 3.21875q0.890625 -0.1875 1.328125 -0.65625q0.453125 -0.46875 0.453125 -1.03125zm-5.734375 -7.1875q0 0.875 1.6875 1.359375l0 -2.921875q-1.6875 0.234375 -1.6875 1.5625zm14.907837 11.65625l0 -11.609375l-2.671875 2.703125l-1.9375 -2.03125l5.03125 -5.078125l2.984375 0l0 16.015625l-3.40625 0zm12.426453 0.28125q-3.0625 0 -4.84375 -2.34375q-1.78125 -2.359375 -1.78125 -5.921875q0 -2.328125 0.796875 -4.234375q0.8125 -1.921875 2.296875 -2.96875q1.5 -1.0625 3.53125 -1.0625q3.03125 0 4.828125 2.328125q1.796875 2.3125 1.796875 5.9375q0 3.59375 -1.796875 5.9375q-1.78125 2.328125 -4.828125 2.328125zm0 -3.015625q1.484375 0 2.3125 -1.359375q0.828125 -1.359375 0.828125 -3.890625q0 -2.59375 -0.84375 -3.90625q-0.828125 -1.328125 -2.296875 -1.328125q-1.484375 0 -2.328125 1.328125q-0.84375 1.3125 -0.84375 3.90625q0 2.578125 0.828125 3.921875q0.828125 1.328125 2.34375 1.328125zm22.942444 2.734375l0 -11.203125l-4.515625 11.203125l-1.484375 0l-4.515625 -11.203125l0 11.203125l-3.40625 0l0 -16.015625l4.78125 0l3.890625 9.671875l3.890625 -9.671875l4.796875 0l0 16.015625l-3.4375 0z" fill-rule="nonzero"></path><path fill="#63d297" d="m533.1312 313.57333l127.811035 0l0 226.3937l-127.811035 0z" fill-rule="nonzero"></path><path fill="#000000" fill-opacity="0.0" d="m656.2467 38.032314l137.1969 0l0 55.49606l-137.1969 0z" fill-rule="nonzero"></path><path fill="#202729" d="m671.6373 78.80275q-3.53125 -0.3125 -5.671875 -2.484375l1.84375 -2.59375q1.609375 1.671875 3.828125 2.0625l0 -3.796875q-2.171875 -0.546875 -3.140625 -1.140625q-0.96875 -0.609375 -1.5 -1.5q-0.53125 -0.890625 -0.53125 -2.15625q0 -1.921875 1.4375 -3.2499962q1.453125 -1.328125 3.734375 -1.578125l0 -2.234375l2.265625 0l0 2.28125q2.890625 0.34375 4.875 2.1406212l-1.890625 2.5q-1.25 -1.15625 -2.984375 -1.5625l0 3.375q3.0 0.78125 4.109375 1.953125q1.125 1.15625 1.125 2.90625q0 2.125 -1.375 3.46875q-1.359375 1.328125 -3.859375 1.59375l0 2.1875l-2.265625 0l0 -2.171875zm4.046875 -4.703125q0 -0.59375 -0.5 -0.921875q-0.5 -0.34375 -1.28125 -0.609375l0 3.21875q0.890625 -0.1875 1.328125 -0.65625q0.453125 -0.46875 0.453125 -1.03125zm-5.734375 -7.1875q0 0.875 1.6875 1.359375l0 -2.921875q-1.6875 0.234375 -1.6875 1.5625zm11.157837 11.65625l0 -2.65625q5.671875 -4.234375 7.0625 -5.703125q1.40625 -1.484375 1.40625 -2.78125q0 -0.9375 -0.71875 -1.5q-0.71875 -0.578125 -1.859375 -0.578125q-2.5 0 -4.296875 1.84375l-1.953125 -2.25q1.171875 -1.3749962 2.828125 -1.9999962q1.65625 -0.625 3.34375 -0.625q2.703125 0 4.40625 1.421875q1.71875 1.4062462 1.71875 3.6874962q0 1.828125 -1.453125 3.734375q-1.453125 1.890625 -4.96875 4.40625l6.53125 0l0 3.0l-12.046875 0zm20.712463 0.28125q-3.0625 0 -4.84375 -2.34375q-1.78125 -2.359375 -1.78125 -5.921875q0 -2.328125 0.796875 -4.234375q0.8125 -1.921875 2.296875 -2.9687462q1.5 -1.0625 3.53125 -1.0625q3.03125 0 4.828125 2.3281212q1.796875 2.3125 1.796875 5.9375q0 3.59375 -1.796875 5.9375q-1.78125 2.328125 -4.828125 2.328125zm0 -3.015625q1.484375 0 2.3125 -1.359375q0.828125 -1.359375 0.828125 -3.890625q0 -2.59375 -0.84375 -3.90625q-0.828125 -1.328125 -2.296875 -1.328125q-1.484375 0 -2.328125 1.328125q-0.84375 1.3125 -0.84375 3.90625q0 2.578125 0.828125 3.921875q0.828125 1.328125 2.34375 1.328125zm22.942444 2.734375l0 -11.203125l-4.515625 11.203125l-1.484375 0l-4.515625 -11.203125l0 11.203125l-3.40625 0l0 -16.015621l4.78125 0l3.890625 9.671871l3.890625 -9.671871l4.796875 0l0 16.015621l-3.4375 0z" fill-rule="nonzero"></path><path fill="#63d297" d="m665.77057 87.10761l127.811035 0l0 452.8819l-127.811035 0z" fill-rule="nonzero"></path><path fill="#000000" fill-opacity="0.0" d="m788.35693 107.879265l137.1969 0l0 55.49607l-137.1969 0z" fill-rule="nonzero"></path><path fill="#202729" d="m803.74756 148.6497q-3.53125 -0.3125 -5.671875 -2.484375l1.84375 -2.59375q1.609375 1.671875 3.828125 2.0625l0 -3.796875q-2.171875 -0.546875 -3.140625 -1.140625q-0.96875 -0.609375 -1.5 -1.5q-0.53125 -0.890625 -0.53125 -2.15625q0 -1.921875 1.4375 -3.25q1.453125 -1.328125 3.734375 -1.578125l0 -2.234375l2.265625 0l0 2.28125q2.890625 0.34375 4.875 2.140625l-1.890625 2.5q-1.25 -1.15625 -2.984375 -1.5625l0 3.375q3.0 0.78125 4.109375 1.953125q1.125 1.15625 1.125 2.90625q0 2.125 -1.375 3.46875q-1.359375 1.328125 -3.859375 1.59375l0 2.1875l-2.265625 0l0 -2.171875zm4.046875 -4.703125q0 -0.59375 -0.5 -0.921875q-0.5 -0.34375 -1.28125 -0.609375l0 3.21875q0.890625 -0.1875 1.328125 -0.65625q0.453125 -0.46875 0.453125 -1.03125zm-5.734375 -7.1875q0 0.875 1.6875 1.359375l0 -2.921875q-1.6875 0.234375 -1.6875 1.5625zm14.907837 11.65625l0 -11.609375l-2.671875 2.703125l-1.9375 -2.03125l5.03125 -5.078125l2.984375 0l0 16.015625l-3.40625 0zm7.8952637 0l5.734375 -13.015625l-8.0625 0l0 -3.0l12.015625 0l0 2.390625l-5.953125 13.625l-3.734375 0zm25.673706 0l0 -11.203125l-4.515625 11.203125l-1.484375 0l-4.515625 -11.203125l0 11.203125l-3.40625 0l0 -16.015625l4.78125 0l3.890625 9.671875l3.890625 -9.671875l4.796875 0l0 16.015625l-3.4375 0z" fill-rule="nonzero"></path><path fill="#63d297" d="m798.41003 156.93826l127.811035 0l0 383.05508l-127.811035 0z" fill-rule="nonzero"></path></g></g></svg>

