<?xml version="1.0" standalone="yes"?>

<svg version="1.1" viewBox="0.0 0.0 960.0 540.0" fill="none" stroke="none" stroke-linecap="square" stroke-miterlimit="10" xmlns="http://www.w3.org/2000/svg" xmlns:xlink="http://www.w3.org/1999/xlink"><clipPath id="gc6f8badac_0_178.0"><path d="m0 0l960.0 0l0 540.0l-960.0 0l0 -540.0z" clip-rule="nonzero"></path></clipPath><g clip-path="url(#gc6f8badac_0_178.0)"><g id="gc6f8badac_0_178"><path fill="#ffffff" d="m0 0l960.0 0l0 540.0l-960.0 0l0 -540.0z" fill-rule="nonzero"></path><path fill="#ffffff" d="m0 0l960.0 0l0 540.0l-960.0 0z" fill-rule="nonzero"></path><path fill="#000000" fill-opacity="0.0" d="m32.72441 46.721786l894.55115 0l0 60.125984l-894.55115 0z" fill-rule="nonzero"></path><path fill="#202729" d="m58.896286 91.56178l-6.296875 -9.8125l-4.921875 0l0 9.8125l-3.0625 0l0 -24.671875l9.90625 0q3.484375 0 5.609375 2.078125q2.125 2.0625 2.125 5.359375q0 3.09375 -1.796875 5.0q-1.78125 1.90625 -4.59375 2.171875l6.65625 10.0625l-3.625 0zm-4.734375 -12.5q2.21875 0 3.5625 -1.3125q1.359375 -1.328125 1.359375 -3.421875q0 -2.109375 -1.359375 -3.40625q-1.34375 -1.296875 -3.5625 -1.296875l-6.484375 0l0 9.4375l6.484375 0zm21.101822 12.9375q-4.03125 0 -6.578125 -2.625q-2.53125 -2.625 -2.53125 -6.765625q0 -3.953125 2.515625 -6.65625q2.515625 -2.703125 6.296875 -2.703125q3.84375 0 6.203125 2.671875q2.375 2.65625 2.375 6.90625l0 0.703125l-14.46875 0q0.15625 2.734375 1.984375 4.46875q1.828125 1.71875 4.453125 1.71875q3.265625 0 5.515625 -2.265625l1.328125 1.8125q-2.734375 2.734375 -7.09375 2.734375zm5.546875 -10.5q0 -2.484375 -1.625 -4.21875q-1.625 -1.734375 -4.25 -1.734375q-2.484375 0 -4.140625 1.734375q-1.640625 1.734375 -1.71875 4.21875l11.734375 0zm12.172058 10.0625l-7.4375 -17.875l3.0 0l5.953125 14.65625l5.921875 -14.65625l3.03125 0l-7.4375 17.875l-3.03125 0zm21.587708 0.4375q-4.03125 0 -6.578125 -2.625q-2.53125 -2.625 -2.53125 -6.765625q0 -3.953125 2.515625 -6.65625q2.515625 -2.703125 6.296875 -2.703125q3.84375 0 6.203125 2.671875q2.375 2.65625 2.375 6.90625l0 0.703125l-14.46875 0q0.15625 2.734375 1.984375 4.46875q1.828125 1.71875 4.453125 1.71875q3.265625 0 5.515625 -2.265625l1.328125 1.8125q-2.734375 2.734375 -7.09375 2.734375zm5.546875 -10.5q0 -2.484375 -1.625 -4.21875q-1.625 -1.734375 -4.25 -1.734375q-2.484375 0 -4.140625 1.734375q-1.640625 1.734375 -1.71875 4.21875l11.734375 0zm19.468933 10.0625l0 -11.6875q0 -2.375 -1.09375 -3.265625q-1.09375 -0.890625 -2.90625 -0.890625q-1.5625 0 -3.0625 0.84375q-1.484375 0.828125 -2.234375 1.9375l0 13.0625l-2.765625 0l0 -17.875l2.765625 0l0 2.59375q1.15625 -1.328125 2.828125 -2.171875q1.6875 -0.859375 3.53125 -0.859375q5.703125 0 5.703125 5.765625l0 12.546875l-2.765625 0zm20.567856 0l0 -2.515625q-1.046875 1.1875 -2.71875 2.078125q-1.65625 0.875 -3.65625 0.875q-5.6875 0 -5.6875 -5.6875l0 -12.625l2.765625 0l0 11.765625q0 2.109375 0.953125 3.09375q0.96875 0.984375 3.046875 0.984375q1.625 0 3.0625 -0.8125q1.453125 -0.8125 2.234375 -1.890625l0 -13.140625l2.765625 0l0 17.875l-2.765625 0zm16.567856 0.4375q-4.03125 0 -6.578125 -2.625q-2.53125 -2.625 -2.53125 -6.765625q0 -3.953125 2.515625 -6.65625q2.515625 -2.703125 6.296875 -2.703125q3.84375 0 6.203125 2.671875q2.375 2.65625 2.375 6.90625l0 0.703125l-14.46875 0q0.15625 2.734375 1.984375 4.46875q1.828125 1.71875 4.453125 1.71875q3.265625 0 5.515625 -2.265625l1.328125 1.8125q-2.734375 2.734375 -7.09375 2.734375zm5.546875 -10.5q0 -2.484375 -1.625 -4.21875q-1.625 -1.734375 -4.25 -1.734375q-2.484375 0 -4.140625 1.734375q-1.640625 1.734375 -1.71875 4.21875l11.734375 0zm38.599625 10.0625l0 -12.140625q0 -3.703125 -3.296875 -3.703125q-1.40625 0 -2.71875 0.84375q-1.3125 0.828125 -2.015625 1.90625l0 13.09375l-2.765625 0l0 -12.140625q0 -3.703125 -3.296875 -3.703125q-1.375 0 -2.671875 0.859375q-1.28125 0.84375 -2.03125 1.921875l0 13.0625l-2.765625 0l0 -17.875l2.765625 0l0 2.59375q0.625 -1.078125 2.359375 -2.046875q1.75 -0.984375 3.421875 -0.984375q2.0625 0 3.21875 0.96875q1.171875 0.953125 1.578125 2.359375q0.9375 -1.4375 2.640625 -2.375q1.703125 -0.953125 3.359375 -0.953125q5.0 0 5.0 5.40625l0 12.90625l-2.78125 0zm16.3956 0.4375q-3.875 0 -6.359375 -2.640625q-2.484375 -2.640625 -2.484375 -6.75q0 -4.140625 2.484375 -6.75q2.484375 -2.609375 6.359375 -2.609375q3.890625 0 6.359375 2.609375q2.484375 2.609375 2.484375 6.75q0 4.109375 -2.484375 6.75q-2.46875 2.640625 -6.359375 2.640625zm0 -2.46875q2.59375 0 4.25 -1.9375q1.671875 -1.953125 1.671875 -4.984375q0 -3.0 -1.671875 -4.9375q-1.65625 -1.953125 -4.25 -1.953125q-2.59375 0 -4.28125 1.9375q-1.671875 1.921875 -1.671875 4.953125q0 3.0625 1.65625 5.0q1.671875 1.921875 4.296875 1.921875zm26.492386 2.03125l0 -2.65625q-1.0 1.359375 -2.578125 2.234375q-1.5625 0.859375 -3.453125 0.859375q-3.578125 0 -5.765625 -2.546875q-2.1875 -2.546875 -2.1875 -6.8125q0 -4.28125 2.203125 -6.828125q2.203125 -2.5625 5.75 -2.5625q1.8125 0 3.390625 0.828125q1.578125 0.828125 2.640625 2.3125l0 -9.5l2.78125 0l0 24.671875l-2.78125 0zm-5.359375 -2.03125q1.671875 0 3.140625 -0.8125q1.484375 -0.8125 2.21875 -2.0l0 -8.109375q-0.734375 -1.1875 -2.21875 -2.03125q-1.46875 -0.859375 -3.140625 -0.859375q-2.59375 0 -4.171875 1.890625q-1.5625 1.890625 -1.5625 5.03125q0 3.078125 1.546875 4.984375q1.5625 1.90625 4.1875 1.90625zm21.94812 2.46875q-4.03125 0 -6.578125 -2.625q-2.53125 -2.625 -2.53125 -6.765625q0 -3.953125 2.515625 -6.65625q2.515625 -2.703125 6.296875 -2.703125q3.84375 0 6.203125 2.671875q2.375 2.65625 2.375 6.90625l0 0.703125l-14.46875 0q0.15625 2.734375 1.984375 4.46875q1.828125 1.71875 4.453125 1.71875q3.265625 0 5.515625 -2.265625l1.328125 1.8125q-2.734375 2.734375 -7.09375 2.734375zm5.546875 -10.5q0 -2.484375 -1.625 -4.21875q-1.625 -1.734375 -4.25 -1.734375q-2.484375 0 -4.140625 1.734375q-1.640625 1.734375 -1.71875 4.21875l11.734375 0zm7.406433 10.0625l0 -24.671875l2.765625 0l0 24.671875l-2.765625 0z" fill-rule="nonzero"></path><path fill="#202729" d="m45.34646 136.99475l275.99997 0l0 48.72441l-275.99997 0z" fill-rule="nonzero"></path><path fill="#000000" fill-opacity="0.0" d="m45.349083 136.99475l275.99997 0l0 358.6772l-275.99997 0z" fill-rule="nonzero"></path><path stroke="#202729" stroke-width="1.0" stroke-linejoin="round" stroke-linecap="butt" d="m45.349083 136.99475l275.99997 0l0 358.6772l-275.99997 0z" fill-rule="nonzero"></path><path fill="#000000" fill-opacity="0.0" d="m53.16798 136.99475l261.88977 0l0 48.44095l-261.88977 0z" fill-rule="nonzero"></path><path fill="#ffffff" d="m71.6211 169.316q-3.53125 0 -5.890625 -2.328125q-2.3437462 -2.328125 -2.3437462 -5.9375q0 -3.625 2.3437462 -5.953125q2.359375 -2.328125 5.890625 -2.328125q3.8125 0 6.078125 3.15625l-1.6875 0.9375q-0.6875 -1.0 -1.859375 -1.65625q-1.15625 -0.671875 -2.53125 -0.671875q-2.65625 0 -4.421875 1.859375q-1.75 1.84375 -1.75 4.65625q0 2.828125 1.734375 4.671875q1.75 1.828125 4.4375 1.828125q1.375 0 2.53125 -0.640625q1.171875 -0.65625 1.859375 -1.6875l1.703125 0.9375q-2.328125 3.15625 -6.09375 3.15625zm13.630203 0q-2.515625 0 -4.125 -1.703125q-1.609375 -1.71875 -1.609375 -4.390625q0 -2.6875 1.609375 -4.375q1.609375 -1.6875 4.125 -1.6875q2.53125 0 4.125 1.6875q1.609375 1.6875 1.609375 4.375q0 2.671875 -1.609375 4.390625q-1.59375 1.703125 -4.125 1.703125zm0 -1.59375q1.6875 0 2.765625 -1.265625q1.078125 -1.265625 1.078125 -3.234375q0 -1.9375 -1.078125 -3.1875q-1.078125 -1.265625 -2.765625 -1.265625q-1.671875 0 -2.765625 1.25q-1.09375 1.234375 -1.09375 3.203125q0 2.0 1.078125 3.25q1.078125 1.25 2.78125 1.25zm16.493591 1.3125l0 -7.578125q0 -1.546875 -0.71875 -2.109375q-0.703125 -0.578125 -1.875 -0.578125q-1.0 0 -1.984375 0.546875q-0.96875 0.53125 -1.453125 1.25l0 8.46875l-1.796875 0l0 -11.59375l1.796875 0l0 1.6875q0.75 -0.875 1.84375 -1.421875q1.09375 -0.546875 2.296875 -0.546875q3.6875 0 3.6875 3.734375l0 8.140625l-1.796875 0zm9.0677185 0.28125q-2.953125 0 -4.671875 -1.8125l0.9375 -1.296875q0.5625 0.671875 1.578125 1.171875q1.03125 0.484375 2.234375 0.484375q1.34375 0 2.03125 -0.5625q0.703125 -0.5625 0.703125 -1.4375q0 -0.765625 -0.765625 -1.203125q-0.75 -0.453125 -2.8125 -0.921875q-1.75 -0.359375 -2.671875 -1.140625q-0.921875 -0.78125 -0.921875 -2.109375q0 -1.46875 1.171875 -2.390625q1.171875 -0.9375 3.140625 -0.9375q2.625 0 4.296875 1.671875l-0.84375 1.25q-0.515625 -0.625 -1.421875 -1.046875q-0.90625 -0.421875 -2.03125 -0.421875q-1.203125 0 -1.890625 0.53125q-0.671875 0.53125 -0.671875 1.296875q0 0.703125 0.765625 1.109375q0.765625 0.40625 2.828125 0.84375q1.75 0.40625 2.65625 1.234375q0.921875 0.828125 0.921875 2.1875q0 1.609375 -1.25 2.5625q-1.25 0.9375 -3.3125 0.9375zm15.316223 -0.28125l0 -1.625q-0.671875 0.765625 -1.75 1.34375q-1.078125 0.5625 -2.375 0.5625q-3.703125 0 -3.703125 -3.6875l0 -8.1875l1.796875 0l0 7.640625q0 1.359375 0.625 2.0q0.625 0.640625 1.96875 0.640625q1.0625 0 2.0 -0.53125q0.9375 -0.53125 1.4375 -1.234375l0 -8.515625l1.796875 0l0 11.59375l-1.796875 0zm19.395851 0l0 -7.875q0 -2.390625 -2.140625 -2.390625q-0.90625 0 -1.765625 0.546875q-0.84375 0.53125 -1.3125 1.21875l0 8.5l-1.796875 0l0 -7.875q0 -2.390625 -2.140625 -2.390625q-0.875 0 -1.71875 0.546875q-0.84375 0.546875 -1.328125 1.25l0 8.46875l-1.796875 0l0 -11.59375l1.796875 0l0 1.6875q0.421875 -0.703125 1.546875 -1.328125q1.125 -0.640625 2.203125 -0.640625q1.34375 0 2.09375 0.625q0.765625 0.625 1.03125 1.53125q0.59375 -0.9375 1.6875 -1.546875q1.109375 -0.609375 2.203125 -0.609375q3.234375 0 3.234375 3.5l0 8.375l-1.796875 0zm10.626312 0.28125q-2.609375 0 -4.265625 -1.703125q-1.640625 -1.703125 -1.640625 -4.390625q0 -2.5625 1.625 -4.3125q1.640625 -1.75 4.09375 -1.75q2.5 0 4.03125 1.734375q1.53125 1.71875 1.53125 4.484375l0 0.453125l-9.375 0q0.09375 1.765625 1.28125 2.890625q1.1875 1.109375 2.890625 1.109375q2.109375 0 3.578125 -1.453125l0.859375 1.171875q-1.78125 1.765625 -4.609375 1.765625zm3.59375 -6.8125q0 -1.609375 -1.0625 -2.734375q-1.046875 -1.125 -2.75 -1.125q-1.609375 0 -2.671875 1.125q-1.0625 1.125 -1.109375 2.734375l7.59375 0zm4.683838 6.53125l0 -11.59375l1.796875 0l0 1.875q1.609375 -2.109375 3.875 -2.109375l0 1.84375l-0.71875 -0.078125q-0.828125 0 -1.8125 0.59375q-0.984375 0.59375 -1.34375 1.265625l0 8.203125l-1.796875 0z" fill-rule="nonzero"></path><path fill="#000000" fill-opacity="0.0" d="m53.367455 194.25722l260.22046 0l0 293.4173l-260.22046 0z" fill-rule="nonzero"></path><path fill="#202729" d="m71.53933 226.57848q-3.53125 0 -5.75 -2.34375q-2.203125 -2.359375 -2.203125 -5.921875q0 -3.609375 2.21875 -5.9375q2.21875 -2.34375 5.734375 -2.34375q3.53125 0 5.734375 2.359375q2.203125 2.34375 2.203125 5.921875q0 3.59375 -2.21875 5.9375q-2.21875 2.328125 -5.71875 2.328125zm0 -1.765625q2.609375 0 4.234375 -1.828125q1.640625 -1.84375 1.640625 -4.671875q0 -2.890625 -1.640625 -4.703125q-1.625 -1.8125 -4.234375 -1.8125q-2.59375 0 -4.25 1.78125q-1.640625 1.78125 -1.640625 4.734375q0 2.875 1.625 4.6875q1.625 1.8125 4.265625 1.8125zm18.813065 1.484375l0 -7.578125q0 -1.546875 -0.71875 -2.109375q-0.703125 -0.578125 -1.875 -0.578125q-1.0 0 -1.984375 0.546875q-0.96875 0.53125 -1.453125 1.25l0 8.46875l-1.796875 0l0 -11.59375l1.796875 0l0 1.6875q0.75 -0.875 1.84375 -1.421875q1.09375 -0.546875 2.296875 -0.546875q3.6875 0 3.6875 3.734375l0 8.140625l-1.796875 0zm10.6302185 0.28125q-2.609375 0 -4.265625 -1.703125q-1.640625 -1.703125 -1.640625 -4.390625q0 -2.5625 1.625 -4.3125q1.640625 -1.75 4.09375 -1.75q2.5 0 4.03125 1.734375q1.53125 1.71875 1.53125 4.484375l0 0.453125l-9.375 0q0.09375 1.765625 1.28125 2.890625q1.1875 1.109375 2.890625 1.109375q2.109375 0 3.578125 -1.453125l0.859375 1.171875q-1.78125 1.765625 -4.609375 1.765625zm3.59375 -6.8125q0 -1.609375 -1.0625 -2.734375q-1.046875 -1.125 -2.75 -1.125q-1.609375 0 -2.671875 1.125q-1.0625 1.125 -1.109375 2.734375l7.59375 0zm3.605713 1.515625l0 -1.578125l5.765625 0l0 1.578125l-5.765625 0zm11.215607 5.296875q-2.578125 0 -2.578125 -2.703125l0 -7.59375l-1.921875 0l0 -1.578125l1.921875 0l0 -3.171875l1.796875 0l0 3.171875l2.359375 0l0 1.578125l-2.359375 0l0 7.203125q0 0.65625 0.28125 1.078125q0.296875 0.421875 0.90625 0.421875q0.734375 0 1.21875 -0.484375l0.53125 1.34375q-0.75 0.734375 -2.15625 0.734375zm5.0091095 -13.53125q-0.484375 0 -0.84375 -0.34375q-0.359375 -0.34375 -0.359375 -0.859375q0 -0.5 0.359375 -0.859375q0.359375 -0.359375 0.84375 -0.359375q0.5 0 0.859375 0.359375q0.359375 0.359375 0.359375 0.859375q0 0.515625 -0.359375 0.859375q-0.359375 0.34375 -0.859375 0.34375zm-0.890625 13.25l0 -11.59375l1.796875 0l0 11.59375l-1.796875 0zm19.399971 0l0 -7.875q0 -2.390625 -2.140625 -2.390625q-0.90625 0 -1.765625 0.546875q-0.84375 0.53125 -1.3125 1.21875l0 8.5l-1.796875 0l0 -7.875q0 -2.390625 -2.140625 -2.390625q-0.875 0 -1.71875 0.546875q-0.84375 0.546875 -1.328125 1.25l0 8.46875l-1.796875 0l0 -11.59375l1.796875 0l0 1.6875q0.421875 -0.703125 1.546875 -1.328125q1.125 -0.640625 2.203125 -0.640625q1.34375 0 2.09375 0.625q0.765625 0.625 1.03125 1.53125q0.59375 -0.9375 1.6875 -1.546875q1.109375 -0.609375 2.203125 -0.609375q3.234375 0 3.234375 3.5l0 8.375l-1.796875 0zm10.626312 0.28125q-2.609375 0 -4.265625 -1.703125q-1.640625 -1.703125 -1.640625 -4.390625q0 -2.5625 1.625 -4.3125q1.640625 -1.75 4.09375 -1.75q2.5 0 4.03125 1.734375q1.53125 1.71875 1.53125 4.484375l0 0.453125l-9.375 0q0.09375 1.765625 1.28125 2.890625q1.1875 1.109375 2.890625 1.109375q2.109375 0 3.578125 -1.453125l0.859375 1.171875q-1.78125 1.765625 -4.609375 1.765625zm3.59375 -6.8125q0 -1.609375 -1.0625 -2.734375q-1.046875 -1.125 -2.75 -1.125q-1.609375 0 -2.671875 1.125q-1.0625 1.125 -1.109375 2.734375l7.59375 0z" fill-rule="nonzero"></path><path fill="#616161" d="m85.0756 250.75284q0 1.65625 -0.84375 3.109375q-0.84375 1.453125 -2.28125 2.296875q-1.4375 0.828125 -3.125 0.828125q-2.578125 0 -4.40625 -1.828125q-1.828125 -1.828125 -1.828125 -4.40625q0 -1.640625 0.828125 -3.09375q0.828125 -1.46875 2.28125 -2.296875q1.453125 -0.84375 3.125 -0.84375q1.671875 0 3.125 0.84375q1.453125 0.828125 2.28125 2.296875q0.84375 1.453125 0.84375 3.09375z" fill-rule="nonzero"></path><path fill="#616161" d="m121.94558 256.7372l0 -6.421875l-8.203125 0l0 6.421875l-1.734375 0l0 -14.0l1.734375 0l0 6.015625l8.203125 0l0 -6.015625l1.734375 0l0 14.0l-1.734375 0zm11.529427 0l0 -1.15625q-1.28125 1.40625 -3.359375 1.40625q-1.53125 0 -2.5468674 -0.96875q-1.0 -0.96875 -1.0 -2.390625q0 -1.46875 0.984375 -2.40625q0.9999924 -0.9375 2.5624924 -0.9375q2.171875 0 3.359375 1.390625l0 -1.828125q0 -1.03125 -0.734375 -1.578125q-0.71875 -0.5625 -1.828125 -0.5625q-1.796875 0 -3.1093674 1.40625l-0.734375 -1.09375q1.6093674 -1.671875 4.0468674 -1.671875q1.875 0 2.890625 0.90625q1.03125 0.890625 1.03125 2.515625l0 6.96875l-1.5625 0zm-2.796875 -0.875q1.875 0 2.796875 -1.265625l0 -1.90625q-0.921875 -1.265625 -2.796875 -1.265625q-1.109375 0 -1.8125 0.625q-0.6875 0.609375 -0.6875 1.59375q0 0.96875 0.6875 1.59375q0.703125 0.625 1.8125 0.625zm7.6930847 0.875l0 -10.140625l1.578125 0l0 1.640625q1.40625 -1.859375 3.375 -1.859375l0 1.625l-0.625 -0.0625q-0.71875 0 -1.578125 0.515625q-0.859375 0.515625 -1.171875 1.09375l0 7.1875l-1.578125 0zm14.382065 0l0 -1.515625q-0.5625 0.78125 -1.453125 1.28125q-0.890625 0.484375 -1.96875 0.484375q-2.03125 0 -3.28125 -1.4375q-1.234375 -1.453125 -1.234375 -3.875q0 -2.4375 1.25 -3.875q1.25 -1.453125 3.265625 -1.453125q1.03125 0 1.921875 0.46875q0.890625 0.46875 1.5 1.3125l0 -5.390625l1.578125 0l0 14.0l-1.578125 0zm-3.046875 -1.15625q0.953125 0 1.78125 -0.453125q0.84375 -0.46875 1.265625 -1.140625l0 -4.59375q-0.421875 -0.671875 -1.265625 -1.15625q-0.828125 -0.484375 -1.78125 -0.484375q-1.46875 0 -2.359375 1.078125q-0.890625 1.0625 -0.890625 2.84375q0 1.75 0.875 2.828125q0.890625 1.078125 2.375 1.078125zm16.748093 1.15625l-2.65625 -8.140625l-2.640625 8.140625l-1.578125 0l-3.234375 -10.140625l1.640625 0l2.484375 8.078125l2.65625 -8.078125l1.34375 0l2.671875 8.078125l2.484375 -8.078125l1.625 0l-3.234375 10.140625l-1.5625 0zm13.217407 0l0 -1.15625q-1.28125 1.40625 -3.359375 1.40625q-1.53125 0 -2.546875 -0.96875q-1.0 -0.96875 -1.0 -2.390625q0 -1.46875 0.984375 -2.40625q1.0 -0.9375 2.5625 -0.9375q2.171875 0 3.359375 1.390625l0 -1.828125q0 -1.03125 -0.734375 -1.578125q-0.71875 -0.5625 -1.828125 -0.5625q-1.796875 0 -3.109375 1.40625l-0.734375 -1.09375q1.609375 -1.671875 4.046875 -1.671875q1.875 0 2.890625 0.90625q1.03125 0.890625 1.03125 2.515625l0 6.96875l-1.5625 0zm-2.796875 -0.875q1.875 0 2.796875 -1.265625l0 -1.90625q-0.921875 -1.265625 -2.796875 -1.265625q-1.109375 0 -1.8125 0.625q-0.6875 0.609375 -0.6875 1.59375q0 0.96875 0.6875 1.59375q0.703125 0.625 1.8125 0.625zm7.6930847 0.875l0 -10.140625l1.578125 0l0 1.640625q1.40625 -1.859375 3.375 -1.859375l0 1.625l-0.625 -0.0625q-0.71875 0 -1.578125 0.515625q-0.859375 0.515625 -1.171875 1.09375l0 7.1875l-1.578125 0zm11.61644 0.25q-2.296875 0 -3.734375 -1.484375q-1.4375 -1.5 -1.4375 -3.84375q0 -2.25 1.421875 -3.78125q1.4375 -1.53125 3.578125 -1.53125q2.1875 0 3.53125 1.515625q1.34375 1.5 1.34375 3.921875l0 0.390625l-8.21875 0q0.09375 1.5625 1.125 2.546875q1.046875 0.96875 2.53125 0.96875q1.84375 0 3.125 -1.28125l0.765625 1.03125q-1.5625 1.546875 -4.03125 1.546875zm3.140625 -5.96875q0 -1.40625 -0.921875 -2.390625q-0.921875 -0.984375 -2.40625 -0.984375q-1.40625 0 -2.34375 0.984375q-0.9375 0.984375 -0.984375 2.390625l6.65625 0zm14.791718 5.96875q-2.171875 0 -3.421875 -1.78125l0 5.390625l-1.578125 0l0 -14.0l1.578125 0l0 1.515625q0.546875 -0.78125 1.4375 -1.265625q0.90625 -0.5 1.984375 -0.5q2.03125 0 3.265625 1.4375q1.25 1.421875 1.25 3.875q0 2.4375 -1.234375 3.890625q-1.234375 1.4375 -3.28125 1.4375zm-0.40625 -1.40625q1.46875 0 2.359375 -1.0625q0.890625 -1.078125 0.890625 -2.859375q0 -1.75 -0.875 -2.828125q-0.875 -1.078125 -2.375 -1.078125q-0.9375 0 -1.78125 0.46875q-0.828125 0.46875 -1.234375 1.140625l0 4.578125q0.40625 0.671875 1.234375 1.15625q0.84375 0.484375 1.78125 0.484375zm14.449738 1.15625l0 -1.421875q-0.59375 0.671875 -1.546875 1.171875q-0.9375 0.5 -2.0625 0.5q-3.234375 0 -3.234375 -3.234375l0 -7.15625l1.578125 0l0 6.671875q0 1.203125 0.53125 1.765625q0.546875 0.546875 1.734375 0.546875q0.921875 0 1.734375 -0.453125q0.828125 -0.46875 1.265625 -1.078125l0 -7.453125l1.578125 0l0 10.140625l-1.578125 0zm4.9080963 0l0 -10.140625l1.578125 0l0 1.640625q1.40625 -1.859375 3.375 -1.859375l0 1.625l-0.625 -0.0625q-0.71875 0 -1.578125 0.515625q-0.859375 0.515625 -1.171875 1.09375l0 7.1875l-1.578125 0zm11.507065 0.25q-2.21875 0 -3.640625 -1.5q-1.421875 -1.515625 -1.421875 -3.828125q0 -2.296875 1.421875 -3.796875q1.421875 -1.515625 3.640625 -1.515625q2.359375 0 3.71875 1.765625l-1.046875 0.953125q-0.96875 -1.3125 -2.59375 -1.3125q-1.546875 0 -2.53125 1.078125q-0.96875 1.078125 -0.96875 2.828125q0 1.765625 0.96875 2.84375q0.96875 1.078125 2.53125 1.078125q1.609375 0 2.59375 -1.328125l1.046875 0.96875q-1.359375 1.765625 -3.71875 1.765625zm12.948105 -0.25l0 -6.671875q0 -1.140625 -0.53125 -1.71875q-0.53125 -0.59375 -1.7500153 -0.59375q-0.859375 0 -1.671875 0.4375q-0.8125 0.4375 -1.328125 1.140625l0 7.40625l-1.578125 0l0 -14.0l1.578125 0l0 5.328125q0.671875 -0.78125 1.625 -1.25q0.96875 -0.46875 2.0 -0.46875q3.2343903 0 3.2343903 3.234375l0 7.15625l-1.578125 0zm11.257538 0l0 -1.15625q-1.28125 1.40625 -3.359375 1.40625q-1.53125 0 -2.546875 -0.96875q-1.0 -0.96875 -1.0 -2.390625q0 -1.46875 0.984375 -2.40625q1.0 -0.9375 2.5625 -0.9375q2.171875 0 3.359375 1.390625l0 -1.828125q0 -1.03125 -0.734375 -1.578125q-0.71875 -0.5625 -1.828125 -0.5625q-1.796875 0 -3.109375 1.40625l-0.734375 -1.09375q1.609375 -1.671875 4.046875 -1.671875q1.875 0 2.890625 0.90625q1.03125 0.890625 1.03125 2.515625l0 6.96875l-1.5625 0zm-2.796875 -0.875q1.875 0 2.796875 -1.265625l0 -1.90625q-0.921875 -1.265625 -2.796875 -1.265625q-1.109375 0 -1.8125 0.625q-0.6875 0.609375 -0.6875 1.59375q0 0.96875 0.6875 1.59375q0.703125 0.625 1.8125 0.625zm10.89621 1.125q-2.578125 0 -4.09375 -1.59375l0.828125 -1.140625q0.5 0.59375 1.390625 1.03125q0.890625 0.421875 1.9375 0.421875q1.1875 0 1.796875 -0.484375q0.609375 -0.5 0.609375 -1.25q0 -0.671875 -0.671875 -1.0625q-0.65625 -0.390625 -2.46875 -0.8125q-1.53125 -0.3125 -2.34375 -1.0q-0.796875 -0.6875 -0.796875 -1.828125q0 -1.28125 1.03125 -2.09375q1.03125 -0.828125 2.75 -0.828125q2.28125 0 3.75 1.46875l-0.734375 1.09375q-0.453125 -0.546875 -1.25 -0.90625q-0.78125 -0.375 -1.765625 -0.375q-1.046875 0 -1.65625 0.46875q-0.59375 0.453125 -0.59375 1.125q0 0.609375 0.671875 0.96875q0.671875 0.359375 2.484375 0.734375q1.53125 0.359375 2.328125 1.078125q0.796875 0.71875 0.796875 1.921875q0 1.40625 -1.09375 2.234375q-1.09375 0.828125 -2.90625 0.828125zm11.292633 0q-2.296875 0 -3.734375 -1.484375q-1.4375 -1.5 -1.4375 -3.84375q0 -2.25 1.421875 -3.78125q1.4375 -1.53125 3.578125 -1.53125q2.1875 0 3.53125 1.515625q1.34375 1.5 1.34375 3.921875l0 0.390625l-8.21875 0q0.09375 1.5625 1.125 2.546875q1.046875 0.96875 2.53125 0.96875q1.84375 0 3.125 -1.28125l0.765625 1.03125q-1.5625 1.546875 -4.03125 1.546875zm3.140625 -5.96875q0 -1.40625 -0.921875 -2.390625q-0.921875 -0.984375 -2.40625 -0.984375q-1.40625 0 -2.34375 0.984375q-0.9375 0.984375 -0.984375 2.390625l6.65625 0z" fill-rule="nonzero"></path><path fill="#202729" d="m75.586205 310.2972l0 -7.34375l-9.359375 0l0 7.34375l-1.984375 0l0 -16.015625l1.984375 0l0 6.890625l9.359375 0l0 -6.890625l2.0 0l0 16.015625l-2.0 0zm12.916077 0l0 -1.3125q-1.46875 1.59375 -3.84375 1.59375q-1.75 0 -2.90625 -1.09375q-1.140625 -1.109375 -1.140625 -2.734375q0 -1.6875 1.140625 -2.75q1.140625 -1.078125 2.90625 -1.078125q2.5 0 3.84375 1.59375l0 -2.09375q0 -1.171875 -0.828125 -1.796875q-0.828125 -0.640625 -2.09375 -0.640625q-2.046875 0 -3.5625 1.59375l-0.828125 -1.234375q1.84375 -1.921875 4.625 -1.921875q2.140625 0 3.3125 1.03125q1.171875 1.03125 1.171875 2.875l0 7.96875l-1.796875 0zm-3.1875 -1.015625q2.125 0 3.1875 -1.4375l0 -2.171875q-1.0625 -1.453125 -3.1875 -1.453125q-1.28125 0 -2.078125 0.71875q-0.78125 0.703125 -0.78125 1.828125q0 1.109375 0.78125 1.8125q0.796875 0.703125 2.078125 0.703125zm8.5854645 1.015625l0 -11.59375l1.796875 0l0 1.875q1.609375 -2.109375 3.875 -2.109375l0 1.84375l-0.71875 -0.078125q-0.828125 0 -1.8125 0.59375q-0.984375 0.59375 -1.34375 1.265625l0 8.203125l-1.796875 0zm16.326233 0l0 -1.734375q-0.65625 0.890625 -1.671875 1.453125q-1.015625 0.5625 -2.25 0.5625q-2.328125 0 -3.75 -1.65625q-1.40625 -1.65625 -1.40625 -4.40625q0 -2.78125 1.421875 -4.4375q1.4375 -1.65625 3.734375 -1.65625q1.1875 0 2.203125 0.546875q1.015625 0.53125 1.71875 1.484375l0 -6.171875l1.796875 0l0 16.015625l-1.796875 0zm-3.484375 -1.3125q1.078125 0 2.03125 -0.53125q0.96875 -0.53125 1.453125 -1.296875l0 -5.265625q-0.484375 -0.765625 -1.453125 -1.3125q-0.953125 -0.546875 -2.03125 -0.546875q-1.671875 0 -2.703125 1.21875q-1.015625 1.21875 -1.015625 3.265625q0 1.984375 1.0 3.234375q1.015625 1.234375 2.71875 1.234375zm18.909332 1.3125l-3.015625 -9.3125l-3.03125 9.3125l-1.796875 0l-3.703125 -11.59375l1.875 0l2.828125 9.234375l3.0625 -9.234375l1.53125 0l3.046875 9.234375l2.8281174 -9.234375l1.875 0l-3.7031174 11.59375l-1.796875 0zm14.834694 0l0 -1.3125q-1.46875 1.59375 -3.84375 1.59375q-1.75 0 -2.90625 -1.09375q-1.140625 -1.109375 -1.140625 -2.734375q0 -1.6875 1.140625 -2.75q1.140625 -1.078125 2.90625 -1.078125q2.5 0 3.84375 1.59375l0 -2.09375q0 -1.171875 -0.828125 -1.796875q-0.828125 -0.640625 -2.09375 -0.640625q-2.046875 0 -3.5625 1.59375l-0.828125 -1.234375q1.84375 -1.921875 4.625 -1.921875q2.140625 0 3.3125 1.03125q1.171875 1.03125 1.171875 2.875l0 7.96875l-1.796875 0zm-3.1875 -1.015625q2.125 0 3.1875 -1.4375l0 -2.171875q-1.0625 -1.453125 -3.1875 -1.453125q-1.28125 0 -2.078125 0.71875q-0.78125 0.703125 -0.78125 1.828125q0 1.109375 0.78125 1.8125q0.796875 0.703125 2.078125 0.703125zm8.5854645 1.015625l0 -11.59375l1.796875 0l0 1.875q1.609375 -2.109375 3.875 -2.109375l0 1.84375l-0.71875 -0.078125q-0.828125 0 -1.8125 0.59375q-0.984375 0.59375 -1.34375 1.265625l0 8.203125l-1.796875 0zm13.154358 0.28125q-2.609375 0 -4.265625 -1.703125q-1.640625 -1.703125 -1.640625 -4.390625q0 -2.5625 1.625 -4.3125q1.640625 -1.75 4.09375 -1.75q2.5 0 4.03125 1.734375q1.53125 1.71875 1.53125 4.484375l0 0.453125l-9.375 0q0.09375 1.765625 1.28125 2.890625q1.1875 1.109375 2.890625 1.109375q2.109375 0 3.578125 -1.453125l0.859375 1.171875q-1.78125 1.765625 -4.609375 1.765625zm3.59375 -6.8125q0 -1.609375 -1.0625 -2.734375q-1.046875 -1.125 -2.75 -1.125q-1.609375 0 -2.671875 1.125q-1.0625 1.125 -1.109375 2.734375l7.59375 0zm18.125824 6.53125l0 -1.3125q-1.46875 1.59375 -3.84375 1.59375q-1.75 0 -2.90625 -1.09375q-1.140625 -1.109375 -1.140625 -2.734375q0 -1.6875 1.140625 -2.75q1.140625 -1.078125 2.90625 -1.078125q2.5 0 3.84375 1.59375l0 -2.09375q0 -1.171875 -0.828125 -1.796875q-0.828125 -0.640625 -2.09375 -0.640625q-2.046875 0 -3.5625 1.59375l-0.828125 -1.234375q1.84375 -1.921875 4.625 -1.921875q2.140625 0 3.3125 1.03125q1.171875 1.03125 1.171875 2.875l0 7.96875l-1.796875 0zm-3.1875 -1.015625q2.125 0 3.1875 -1.4375l0 -2.171875q-1.0625 -1.453125 -3.1875 -1.453125q-1.28125 0 -2.078125 0.71875q-0.78125 0.703125 -0.78125 1.828125q0 1.109375 0.78125 1.8125q0.796875 0.703125 2.078125 0.703125zm16.991714 1.015625l0 -1.734375q-0.65625 0.890625 -1.671875 1.453125q-1.015625 0.5625 -2.25 0.5625q-2.328125 0 -3.75 -1.65625q-1.40625 -1.65625 -1.40625 -4.40625q0 -2.78125 1.421875 -4.4375q1.4375 -1.65625 3.734375 -1.65625q1.1875 0 2.203125 0.546875q1.015625 0.53125 1.71875 1.484375l0 -6.171875l1.796875 0l0 16.015625l-1.796875 0zm-3.484375 -1.3125q1.078125 0 2.03125 -0.53125q0.96875 -0.53125 1.453125 -1.296875l0 -5.265625q-0.484375 -0.765625 -1.453125 -1.3125q-0.953125 -0.546875 -2.03125 -0.546875q-1.671875 0 -2.703125 1.21875q-1.015625 1.21875 -1.015625 3.265625q0 1.984375 1.0 3.234375q1.015625 1.234375 2.71875 1.234375zm17.284332 1.3125l0 -1.734375q-0.65625 0.890625 -1.671875 1.453125q-1.015625 0.5625 -2.25 0.5625q-2.328125 0 -3.75 -1.65625q-1.40625 -1.65625 -1.40625 -4.40625q0 -2.78125 1.421875 -4.4375q1.4375 -1.65625 3.734375 -1.65625q1.1875 0 2.203125 0.546875q1.015625 0.53125 1.71875 1.484375l0 -6.171875l1.796875 0l0 16.015625l-1.796875 0zm-3.484375 -1.3125q1.078125 0 2.03125 -0.53125q0.96875 -0.53125 1.453125 -1.296875l0 -5.265625q-0.484375 -0.765625 -1.453125 -1.3125q-0.953125 -0.546875 -2.03125 -0.546875q-1.671875 0 -2.703125 1.21875q-1.015625 1.21875 -1.015625 3.265625q0 1.984375 1.0 3.234375q1.015625 1.234375 2.71875 1.234375zm7.7999573 -3.703125l0 -1.578125l5.765625 0l0 1.578125l-5.765625 0zm13.340607 5.296875q-2.515625 0 -4.125 -1.703125q-1.609375 -1.71875 -1.609375 -4.390625q0 -2.6875 1.609375 -4.375q1.609375 -1.6875 4.125 -1.6875q2.53125 0 4.125 1.6875q1.609375 1.6875 1.609375 4.375q0 2.671875 -1.609375 4.390625q-1.59375 1.703125 -4.125 1.703125zm0 -1.59375q1.6875 0 2.765625 -1.265625q1.078125 -1.265625 1.078125 -3.234375q0 -1.9375 -1.078125 -3.1875q-1.078125 -1.265625 -2.765625 -1.265625q-1.671875 0 -2.765625 1.25q-1.09375 1.234375 -1.09375 3.203125q0 2.0 1.078125 3.25q1.078125 1.25 2.78125 1.25zm16.493591 1.3125l0 -7.578125q0 -1.546875 -0.71875 -2.109375q-0.703125 -0.578125 -1.875 -0.578125q-1.0 0 -1.984375 0.546875q-0.96875 0.53125 -1.453125 1.25l0 8.46875l-1.796875 0l0 -11.59375l1.796875 0l0 1.6875q0.75 -0.875 1.84375 -1.421875q1.09375 -0.546875 2.296875 -0.546875q3.6875 0 3.6875 3.734375l0 8.140625l-1.796875 0zm9.0677185 0.28125q-2.953125 0 -4.671875 -1.8125l0.9375 -1.296875q0.5625 0.671875 1.578125 1.171875q1.03125 0.484375 2.234375 0.484375q1.34375 0 2.03125 -0.5625q0.703125 -0.5625 0.703125 -1.4375q0 -0.765625 -0.765625 -1.203125q-0.75 -0.453125 -2.8125 -0.921875q-1.75 -0.359375 -2.671875 -1.140625q-0.921875 -0.78125 -0.921875 -2.109375q0 -1.46875 1.171875 -2.390625q1.171875 -0.9375 3.140625 -0.9375q2.625 0 4.296875 1.671875l-0.84375 1.25q-0.515625 -0.625 -1.421875 -1.046875q-0.90625 -0.421875 -2.03125 -0.421875q-1.203125 0 -1.890625 0.53125q-0.671875 0.53125 -0.671875 1.296875q0 0.703125 0.765625 1.109375q0.765625 0.40625 2.828125 0.84375q1.75 0.40625 2.65625 1.234375q0.92189026 0.828125 0.92189026 2.1875q0 1.609375 -1.2500153 2.5625q-1.25 0.9375 -3.3125 0.9375z" fill-rule="nonzero"></path><path fill="#616161" d="m85.0756 334.75284q0 1.65625 -0.84375 3.109375q-0.84375 1.453125 -2.28125 2.296875q-1.4375 0.828125 -3.125 0.828125q-2.578125 0 -4.40625 -1.828125q-1.828125 -1.828125 -1.828125 -4.40625q0 -1.640625 0.828125 -3.09375q0.828125 -1.46875 2.28125 -2.296875q1.453125 -0.84375 3.125 -0.84375q1.671875 0 3.125 0.84375q1.453125 0.828125 2.28125 2.296875q0.84375 1.453125 0.84375 3.09375z" fill-rule="nonzero"></path><path fill="#616161" d="m120.117455 340.7372l-3.578125 -5.5625l-2.796875 0l0 5.5625l-1.734375 0l0 -14.0l5.625 0q1.96875 0 3.171875 1.171875q1.21875 1.171875 1.21875 3.046875q0 1.765625 -1.015625 2.84375q-1.015625 1.078125 -2.625 1.21875l3.78125 5.71875l-2.046875 0zm-2.6875 -7.09375q1.25 0 2.015625 -0.75q0.765625 -0.75 0.765625 -1.9375q0 -1.203125 -0.765625 -1.9375q-0.765625 -0.734375 -2.015625 -0.734375l-3.6875 0l0 5.359375l3.6875 0zm12.061302 7.34375q-2.2968674 0 -3.7343674 -1.484375q-1.4375 -1.5 -1.4375 -3.84375q0 -2.25 1.421875 -3.78125q1.4375 -1.53125 3.5781174 -1.53125q2.1875 0 3.53125 1.515625q1.34375 1.5 1.34375 3.921875l0 0.390625l-8.218742 0q0.09375 1.5625 1.125 2.546875q1.0468674 0.96875 2.5312424 0.96875q1.84375 0 3.125 -1.28125l0.765625 1.03125q-1.5625 1.546875 -4.03125 1.546875zm3.140625 -5.96875q0 -1.40625 -0.921875 -2.390625q-0.921875 -0.984375 -2.40625 -0.984375q-1.4062424 0 -2.3437424 0.984375q-0.9375 0.984375 -0.984375 2.390625l6.6562424 0zm8.757782 5.96875q-2.21875 0 -3.640625 -1.5q-1.421875 -1.515625 -1.421875 -3.828125q0 -2.296875 1.421875 -3.796875q1.421875 -1.515625 3.640625 -1.515625q2.359375 0 3.71875 1.765625l-1.046875 0.953125q-0.96875 -1.3125 -2.59375 -1.3125q-1.546875 0 -2.53125 1.078125q-0.96875 1.078125 -0.96875 2.828125q0 1.765625 0.96875 2.84375q0.96875 1.078125 2.53125 1.078125q1.609375 0 2.59375 -1.328125l1.046875 0.96875q-1.359375 1.765625 -3.71875 1.765625zm12.932465 -0.25l0 -1.421875q-0.59375 0.671875 -1.546875 1.171875q-0.9375 0.5 -2.0625 0.5q-3.234375 0 -3.234375 -3.234375l0 -7.15625l1.578125 0l0 6.671875q0 1.203125 0.53125 1.765625q0.546875 0.546875 1.734375 0.546875q0.921875 0 1.734375 -0.453125q0.828125 -0.46875 1.265625 -1.078125l0 -7.453125l1.578125 0l0 10.140625l-1.578125 0zm4.9080963 0l0 -10.140625l1.578125 0l0 1.640625q1.40625 -1.859375 3.375 -1.859375l0 1.625l-0.625 -0.0625q-0.71875 0 -1.578125 0.515625q-0.859375 0.515625 -1.171875 1.09375l0 7.1875l-1.578125 0zm7.038315 0l0 -10.140625l1.578125 0l0 1.640625q1.40625 -1.859375 3.375 -1.859375l0 1.625l-0.625 -0.0625q-0.71875 0 -1.578125 0.515625q-0.859375 0.515625 -1.171875 1.09375l0 7.1875l-1.578125 0zm7.819565 -11.59375q-0.421875 0 -0.75 -0.296875q-0.3125 -0.3125 -0.3125 -0.75q0 -0.4375 0.3125 -0.75q0.328125 -0.328125 0.75 -0.328125q0.4375 0 0.75 0.328125q0.3125 0.3125 0.3125 0.75q0 0.4375 -0.3125 0.75q-0.3125 0.296875 -0.75 0.296875zm-0.78125 11.59375l0 -10.140625l1.578125 0l0 10.140625l-1.578125 0zm11.642593 0l0 -6.640625q0 -1.34375 -0.625 -1.84375q-0.609375 -0.5 -1.640625 -0.5q-0.890625 0 -1.75 0.46875q-0.84375 0.46875 -1.25 1.109375l0 7.40625l-1.578125 0l0 -10.140625l1.578125 0l0 1.46875q0.640625 -0.75 1.59375 -1.234375q0.96875 -0.484375 2.015625 -0.484375q3.234375 0 3.234375 3.265625l0 7.125l-1.578125 0zm8.986221 4.109375q-1.3125 0 -2.265625 -0.3125q-0.9375 -0.3125 -1.84375 -1.1875l0.8125 -1.1875q0.625 0.765625 1.40625 1.078125q0.796875 0.3125 1.890625 0.3125q1.546875 0 2.390625 -0.8125q0.859375 -0.796875 0.859375 -2.234375l0 -1.453125q-0.546875 0.78125 -1.4375 1.296875q-0.890625 0.515625 -1.96875 0.515625q-2.0625 0 -3.296875 -1.4375q-1.21875 -1.453125 -1.21875 -3.8125q0 -2.4375 1.25 -3.84375q1.25 -1.421875 3.265625 -1.421875q2.109375 0 3.40625 1.78125l0 -1.53125l1.578125 0l0 9.84375q0 2.140625 -1.265625 3.265625q-1.265625 1.140625 -3.5625 1.140625zm0.21875 -5.375q0.859375 0 1.703125 -0.453125q0.859375 -0.46875 1.328125 -1.203125l0 -4.421875q-0.46875 -0.734375 -1.328125 -1.1875q-0.859375 -0.453125 -1.703125 -0.453125q-1.484375 0 -2.375 1.078125q-0.875 1.0625 -0.875 2.78125q0 1.75 0.90625 2.8125q0.90625 1.046875 2.34375 1.046875z" fill-rule="nonzero"></path><path fill="#616161" d="m85.0756 363.75284q0 1.65625 -0.84375 3.109375q-0.84375 1.453125 -2.28125 2.296875q-1.4375 0.828125 -3.125 0.828125q-2.578125 0 -4.40625 -1.828125q-1.828125 -1.828125 -1.828125 -4.40625q0 -1.640625 0.828125 -3.09375q0.828125 -1.46875 2.28125 -2.296875q1.453125 -0.84375 3.125 -0.84375q1.671875 0 3.125 0.84375q1.453125 0.828125 2.28125 2.296875q0.84375 1.453125 0.84375 3.09375z" fill-rule="nonzero"></path><path fill="#616161" d="m112.00808 369.7372l0 -14.0l5.625 0q2.0 0 3.1875 1.203125q1.203125 1.1875 1.203125 3.015625q0 1.84375 -1.21875 3.03125q-1.21875 1.1875 -3.171875 1.1875l-3.890625 0l0 5.5625l-1.734375 0zm5.421875 -7.125q1.25 0 2.015625 -0.734375q0.765625 -0.734375 0.765625 -1.921875q0 -1.203125 -0.765625 -1.9375q-0.765625 -0.734375 -2.015625 -0.734375l-3.6875 0l0 5.328125l3.6875 0zm7.0352783 7.125l0 -10.140625l1.578125 0l0 1.640625q1.40625 -1.859375 3.3749924 -1.859375l0 1.625l-0.625 -0.0625q-0.71875 0 -1.5781174 0.515625q-0.859375 0.515625 -1.171875 1.09375l0 7.1875l-1.578125 0zm11.616432 0.25q-2.296875 0 -3.734375 -1.484375q-1.4375 -1.5 -1.4375 -3.84375q0 -2.25 1.421875 -3.78125q1.4375 -1.53125 3.578125 -1.53125q2.1875 0 3.53125 1.515625q1.34375 1.5 1.34375 3.921875l0 0.390625l-8.21875 0q0.09375 1.5625 1.125 2.546875q1.046875 0.96875 2.53125 0.96875q1.84375 0 3.125 -1.28125l0.765625 1.03125q-1.5625 1.546875 -4.03125 1.546875zm3.140625 -5.96875q0 -1.40625 -0.921875 -2.390625q-0.921875 -0.984375 -2.40625 -0.984375q-1.40625 0 -2.34375 0.984375q-0.9375 0.984375 -0.984375 2.390625l6.65625 0zm16.523407 5.71875l0 -6.890625q0 -2.09375 -1.859375 -2.09375q-0.796875 0 -1.546875 0.46875q-0.75 0.46875 -1.140625 1.078125l0 7.4375l-1.578125 0l0 -6.890625q0 -2.09375 -1.875 -2.09375q-0.765625 0 -1.515625 0.484375q-0.734375 0.484375 -1.140625 1.09375l0 7.40625l-1.578125 0l0 -10.140625l1.578125 0l0 1.46875q0.34375 -0.609375 1.328125 -1.15625q1.0 -0.5625 1.9375 -0.5625q1.1875 0 1.84375 0.546875q0.65625 0.546875 0.890625 1.34375q0.53125 -0.828125 1.484375 -1.359375q0.96875 -0.53125 1.921875 -0.53125q2.828125 0 2.828125 3.0625l0 7.328125l-1.578125 0zm5.780075 -11.59375q-0.421875 0 -0.75 -0.296875q-0.3125 -0.3125 -0.3125 -0.75q0 -0.4375 0.3125 -0.75q0.328125 -0.328125 0.75 -0.328125q0.4375 0 0.75 0.328125q0.3125 0.3125 0.3125 0.75q0 0.4375 -0.3125 0.75q-0.3125 0.296875 -0.75 0.296875zm-0.78125 11.59375l0 -10.140625l1.578125 0l0 10.140625l-1.578125 0zm11.642593 0l0 -1.421875q-0.59375 0.671875 -1.546875 1.171875q-0.9375 0.5 -2.0625 0.5q-3.234375 0 -3.234375 -3.234375l0 -7.15625l1.578125 0l0 6.671875q0 1.203125 0.53125 1.765625q0.546875 0.546875 1.734375 0.546875q0.921875 0 1.734375 -0.453125q0.828125 -0.46875 1.265625 -1.078125l0 -7.453125l1.578125 0l0 10.140625l-1.578125 0zm17.142471 0l0 -6.890625q0 -2.09375 -1.859375 -2.09375q-0.796875 0 -1.546875 0.46875q-0.75 0.46875 -1.140625 1.078125l0 7.4375l-1.578125 0l0 -6.890625q0 -2.09375 -1.875 -2.09375q-0.765625 0 -1.515625 0.484375q-0.734375 0.484375 -1.140625 1.09375l0 7.40625l-1.578125 0l0 -10.140625l1.578125 0l0 1.46875q0.34375 -0.609375 1.328125 -1.15625q1.0 -0.5625 1.9375 -0.5625q1.1875 0 1.84375 0.546875q0.65625 0.546875 0.890625 1.34375q0.53125 -0.828125 1.484375 -1.359375q0.96875 -0.53125 1.921875 -0.53125q2.828125 0 2.828125 3.0625l0 7.328125l-1.578125 0z" fill-rule="nonzero"></path><path fill="#616161" d="m115.148705 398.9872q-2.578125 0 -4.09375 -1.59375l0.828125 -1.140625q0.5 0.59375 1.390625 1.03125q0.890625 0.421875 1.9375 0.421875q1.1875 0 1.796875 -0.484375q0.609375 -0.5 0.609375 -1.25q0 -0.671875 -0.671875 -1.0625q-0.65625 -0.390625 -2.46875 -0.8125q-1.53125 -0.3125 -2.34375 -1.0q-0.796875 -0.6875 -0.796875 -1.828125q0 -1.28125 1.03125 -2.09375q1.03125 -0.828125 2.75 -0.828125q2.28125 0 3.75 1.46875l-0.734375 1.09375q-0.453125 -0.546875 -1.25 -0.90625q-0.78125 -0.375 -1.765625 -0.375q-1.046875 0 -1.65625 0.46875q-0.59375 0.453125 -0.59375 1.125q0 0.609375 0.671875 0.96875q0.671875 0.359375 2.484375 0.734375q1.53125 0.359375 2.328125 1.078125q0.796875 0.71875 0.796875 1.921875q0 1.40625 -1.09375 2.234375q-1.09375 0.828125 -2.90625 0.828125zm13.558235 -0.25l0 -1.421875q-0.59375 0.671875 -1.5468674 1.171875q-0.9375 0.5 -2.0625 0.5q-3.234375 0 -3.234375 -3.234375l0 -7.15625l1.578125 0l0 6.671875q0 1.203125 0.53125 1.765625q0.546875 0.546875 1.734375 0.546875q0.921875 0 1.734375 -0.453125q0.8281174 -0.46875 1.2656174 -1.078125l0 -7.453125l1.578125 0l0 10.140625l-1.578125 0zm6.4862213 -2.75q0.40625 0.671875 1.234375 1.140625q0.84375 0.453125 1.78125 0.453125q1.5 0 2.390625 -1.078125q0.890625 -1.078125 0.890625 -2.828125q0 -1.765625 -0.890625 -2.84375q-0.875 -1.078125 -2.390625 -1.078125q-0.9375 0 -1.78125 0.484375q-0.828125 0.484375 -1.234375 1.15625l0 4.59375zm-1.578125 2.75l0 -14.0l1.578125 0l0 5.390625q1.296875 -1.78125 3.421875 -1.78125q2.015625 0 3.265625 1.46875q1.25 1.46875 1.25 3.859375q0 2.4375 -1.25 3.875q-1.25 1.4375 -3.265625 1.4375q-1.078125 0 -1.96875 -0.484375q-0.890625 -0.5 -1.453125 -1.28125l0 1.515625l-1.578125 0zm15.466843 0.25q-2.578125 0 -4.09375 -1.59375l0.828125 -1.140625q0.5 0.59375 1.390625 1.03125q0.890625 0.421875 1.9375 0.421875q1.1875 0 1.796875 -0.484375q0.609375 -0.5 0.609375 -1.25q0 -0.671875 -0.671875 -1.0625q-0.65625 -0.390625 -2.46875 -0.8125q-1.53125 -0.3125 -2.34375 -1.0q-0.796875 -0.6875 -0.796875 -1.828125q0 -1.28125 1.03125 -2.09375q1.03125 -0.828125 2.75 -0.828125q2.28125 0 3.75 1.46875l-0.734375 1.09375q-0.453125 -0.546875 -1.25 -0.90625q-0.78125 -0.375 -1.765625 -0.375q-1.046875 0 -1.65625 0.46875q-0.59375 0.453125 -0.59375 1.125q0 0.609375 0.671875 0.96875q0.671875 0.359375 2.484375 0.734375q1.53125 0.359375 2.328125 1.078125q0.796875 0.71875 0.796875 1.921875q0 1.40625 -1.09375 2.234375q-1.09375 0.828125 -2.90625 0.828125zm11.183243 0q-2.21875 0 -3.640625 -1.5q-1.421875 -1.515625 -1.421875 -3.828125q0 -2.296875 1.421875 -3.796875q1.421875 -1.515625 3.640625 -1.515625q2.359375 0 3.71875 1.765625l-1.046875 0.953125q-0.96875 -1.3125 -2.59375 -1.3125q-1.546875 0 -2.53125 1.078125q-0.96875 1.078125 -0.96875 2.828125q0 1.765625 0.96875 2.84375q0.96875 1.078125 2.53125 1.078125q1.609375 0 2.59375 -1.328125l1.046875 0.96875q-1.359375 1.765625 -3.71875 1.765625zm6.0887146 -0.25l0 -10.140625l1.578125 0l0 1.640625q1.40625 -1.859375 3.375 -1.859375l0 1.625l-0.625 -0.0625q-0.71875 0 -1.578125 0.515625q-0.859375 0.515625 -1.171875 1.09375l0 7.1875l-1.578125 0zm7.819565 -11.59375q-0.421875 0 -0.75 -0.296875q-0.3125 -0.3125 -0.3125 -0.75q0 -0.4375 0.3125 -0.75q0.328125 -0.328125 0.75 -0.328125q0.4375 0 0.75 0.328125q0.3125 0.3125 0.3125 0.75q0 0.4375 -0.3125 0.75q-0.3125 0.296875 -0.75 0.296875zm-0.78125 11.59375l0 -10.140625l1.578125 0l0 10.140625l-1.578125 0zm9.798843 0.25q-2.171875 0 -3.421875 -1.78125l0 5.390625l-1.578125 0l0 -14.0l1.578125 0l0 1.515625q0.546875 -0.78125 1.4375 -1.265625q0.90625 -0.5 1.984375 -0.5q2.03125 0 3.265625 1.4375q1.25 1.421875 1.25 3.875q0 2.4375 -1.234375 3.890625q-1.234375 1.4375 -3.28125 1.4375zm-0.40625 -1.40625q1.46875 0 2.359375 -1.0625q0.890625 -1.078125 0.890625 -2.859375q0 -1.75 -0.875 -2.828125q-0.875 -1.078125 -2.375 -1.078125q-0.9375 0 -1.78125 0.46875q-0.828125 0.46875 -1.234375 1.140625l0 4.578125q0.40625 0.671875 1.234375 1.15625q0.84375 0.484375 1.78125 0.484375zm10.168488 1.40625q-2.25 0 -2.25 -2.375l0 -6.625l-1.6875 0l0 -1.390625l1.6875 0l0 -2.78125l1.578125 0l0 2.78125l2.046875 0l0 1.390625l-2.046875 0l0 6.296875q0 0.5625 0.25 0.9375q0.25 0.359375 0.78125 0.359375q0.640625 0 1.0625 -0.421875l0.46875 1.171875q-0.65625 0.65625 -1.890625 0.65625zm4.4892426 -11.84375q-0.421875 0 -0.75 -0.296875q-0.3125 -0.3125 -0.3125 -0.75q0 -0.4375 0.3125 -0.75q0.328125 -0.328125 0.75 -0.328125q0.4375 0 0.75 0.328125q0.3125 0.3125 0.3125 0.75q0 0.4375 -0.3125 0.75q-0.3125 0.296875 -0.75 0.296875zm-0.78125 11.59375l0 -10.140625l1.578125 0l0 10.140625l-1.578125 0zm9.220718 0.25q-2.203125 0 -3.609375 -1.5q-1.40625 -1.5 -1.40625 -3.828125q0 -2.359375 1.40625 -3.828125q1.40625 -1.484375 3.609375 -1.484375q2.21875 0 3.625 1.484375q1.40625 1.46875 1.40625 3.828125q0 2.328125 -1.40625 3.828125q-1.40625 1.5 -3.625 1.5zm0 -1.40625q1.46875 0 2.40625 -1.09375q0.953125 -1.109375 0.953125 -2.828125q0 -1.703125 -0.953125 -2.796875q-0.9375 -1.109375 -2.40625 -1.109375q-1.46875 0 -2.421875 1.09375q-0.953125 1.09375 -0.953125 2.8125q0 1.734375 0.9375 2.828125q0.953125 1.09375 2.4375 1.09375zm14.621613 1.15625l0 -6.640625q0 -1.34375 -0.625 -1.84375q-0.609375 -0.5 -1.640625 -0.5q-0.890625 0 -1.75 0.46875q-0.84375 0.46875 -1.25 1.109375l0 7.40625l-1.578125 0l0 -10.140625l1.578125 0l0 1.46875q0.640625 -0.75 1.59375 -1.234375q0.96875 -0.484375 2.015625 -0.484375q3.234375 0 3.234375 3.265625l0 7.125l-1.578125 0zm8.111221 0.25q-2.578125 0 -4.09375 -1.59375l0.828125 -1.140625q0.5 0.59375 1.390625 1.03125q0.890625 0.421875 1.9375 0.421875q1.1875 0 1.796875 -0.484375q0.609375 -0.5 0.609375 -1.25q0 -0.671875 -0.671875 -1.0625q-0.65625 -0.390625 -2.46875 -0.8125q-1.53125 -0.3125 -2.34375 -1.0q-0.796875 -0.6875 -0.796875 -1.828125q0 -1.28125 1.03125 -2.09375q1.03125 -0.828125 2.75 -0.828125q2.28125 0 3.75 1.46875l-0.734375 1.09375q-0.453125 -0.546875 -1.25 -0.90625q-0.78125 -0.375 -1.765625 -0.375q-1.046875 0 -1.65625 0.46875q-0.59375 0.453125 -0.59375 1.125q0 0.609375 0.671875 0.96875q0.671875 0.359375 2.484375 0.734375q1.53125 0.359375 2.328125 1.078125q0.796875 0.71875 0.796875 1.921875q0 1.40625 -1.09375 2.234375q-1.09375 0.828125 -2.90625 0.828125z" fill-rule="nonzero"></path><path fill="#202729" d="m348.98163 136.99475l276.0 0l0 48.72441l-276.0 0z" fill-rule="nonzero"></path><path fill="#000000" fill-opacity="0.0" d="m348.60367 136.99475l275.99997 0l0 358.6772l-275.99997 0z" fill-rule="nonzero"></path><path stroke="#202729" stroke-width="1.0" stroke-linejoin="round" stroke-linecap="butt" d="m348.60367 136.99475l275.99997 0l0 358.6772l-275.99997 0z" fill-rule="nonzero"></path><path fill="#000000" fill-opacity="0.0" d="m355.84778 136.99475l261.88977 0l0 48.44095l-261.88977 0z" fill-rule="nonzero"></path><path fill="#ffffff" d="m371.4884 169.03474l-6.421875 -16.015625l2.28125 0l5.390625 13.828125l5.40625 -13.828125l2.28125 0l-6.453125 16.015625l-2.484375 0zm16.182556 0.28125q-2.609375 0 -4.265625 -1.703125q-1.640625 -1.703125 -1.640625 -4.390625q0 -2.5625 1.625 -4.3125q1.640625 -1.75 4.09375 -1.75q2.5 0 4.03125 1.734375q1.53125 1.71875 1.53125 4.484375l0 0.453125l-9.375 0q0.09375 1.765625 1.28125 2.890625q1.1875 1.109375 2.890625 1.109375q2.109375 0 3.578125 -1.453125l0.859375 1.171875q-1.78125 1.765625 -4.609375 1.765625zm3.59375 -6.8125q0 -1.609375 -1.0625 -2.734375q-1.046875 -1.125 -2.75 -1.125q-1.609375 0 -2.671875 1.125q-1.0625 1.125 -1.109375 2.734375l7.59375 0zm12.511963 6.53125l0 -7.578125q0 -1.546875 -0.71875 -2.109375q-0.703125 -0.578125 -1.875 -0.578125q-1.0 0 -1.984375 0.546875q-0.96875 0.53125 -1.453125 1.25l0 8.46875l-1.796875 0l0 -11.59375l1.796875 0l0 1.6875q0.75 -0.875 1.84375 -1.421875q1.09375 -0.546875 2.296875 -0.546875q3.6875 0 3.6875 3.734375l0 8.140625l-1.796875 0zm13.2239685 0l0 -1.625q-0.671875 0.765625 -1.75 1.34375q-1.078125 0.5625 -2.375 0.5625q-3.703125 0 -3.703125 -3.6875l0 -8.1875l1.796875 0l0 7.640625q0 1.359375 0.625 2.0q0.625 0.640625 1.96875 0.640625q1.0625 0 2.0 -0.53125q0.9375 -0.53125 1.4375 -1.234375l0 -8.515625l1.796875 0l0 11.59375l-1.796875 0zm10.6302185 0.28125q-2.609375 0 -4.265625 -1.703125q-1.640625 -1.703125 -1.640625 -4.390625q0 -2.5625 1.625 -4.3125q1.640625 -1.75 4.09375 -1.75q2.5 0 4.03125 1.734375q1.53125 1.71875 1.53125 4.484375l0 0.453125l-9.375 0q0.09375 1.765625 1.28125 2.890625q1.1875 1.109375 2.890625 1.109375q2.109375 0 3.578125 -1.453125l0.859375 1.171875q-1.78125 1.765625 -4.609375 1.765625zm3.59375 -6.8125q0 -1.609375 -1.0625 -2.734375q-1.046875 -1.125 -2.75 -1.125q-1.609375 0 -2.671875 1.125q-1.0625 1.125 -1.109375 2.734375l7.59375 0z" fill-rule="nonzero"></path><path fill="#000000" fill-opacity="0.0" d="m356.6168 194.25722l260.2205 0l0 293.4173l-260.2205 0z" fill-rule="nonzero"></path><path fill="#202729" d="m376.75742 226.29723l-4.078125 -6.359375l-3.203125 0l0 6.359375l-1.984375 0l0 -16.015625l6.421875 0q2.265625 0 3.640625 1.359375q1.375 1.34375 1.375 3.46875q0 2.015625 -1.171875 3.25q-1.15625 1.234375 -2.96875 1.40625l4.3125 6.53125l-2.34375 0zm-3.078125 -8.109375q1.4375 0 2.3125 -0.84375q0.875 -0.859375 0.875 -2.234375q0 -1.359375 -0.875 -2.203125q-0.875 -0.84375 -2.3125 -0.84375l-4.203125 0l0 6.125l4.203125 0zm13.56073 8.390625q-2.609375 0 -4.265625 -1.703125q-1.640625 -1.703125 -1.640625 -4.390625q0 -2.5625 1.625 -4.3125q1.640625 -1.75 4.09375 -1.75q2.5 0 4.03125 1.734375q1.53125 1.71875 1.53125 4.484375l0 0.453125l-9.375 0q0.09375 1.765625 1.28125 2.890625q1.1875 1.109375 2.890625 1.109375q2.109375 0 3.578125 -1.453125l0.859375 1.171875q-1.78125 1.765625 -4.609375 1.765625zm3.59375 -6.8125q0 -1.609375 -1.0625 -2.734375q-1.046875 -1.125 -2.75 -1.125q-1.609375 0 -2.671875 1.125q-1.0625 1.125 -1.109375 2.734375l7.59375 0zm9.793213 6.8125q-2.53125 0 -4.15625 -1.71875q-1.625 -1.734375 -1.625 -4.375q0 -2.609375 1.625 -4.328125q1.625 -1.734375 4.15625 -1.734375q2.6875 0 4.25 2.015625l-1.203125 1.09375q-1.09375 -1.5 -2.9375 -1.5q-1.78125 0 -2.90625 1.234375q-1.109375 1.234375 -1.109375 3.21875q0 2.015625 1.09375 3.265625q1.109375 1.234375 2.921875 1.234375q1.8125 0 2.9375 -1.515625l1.203125 1.09375q-1.5625 2.015625 -4.25 2.015625zm14.598694 -0.28125l0 -1.625q-0.671875 0.765625 -1.75 1.34375q-1.078125 0.5625 -2.375 0.5625q-3.703125 0 -3.703125 -3.6875l0 -8.1875l1.796875 0l0 7.640625q0 1.359375 0.625 2.0q0.625 0.640625 1.96875 0.640625q1.0625 0 2.0 -0.53125q0.9375 -0.53125 1.4375 -1.234375l0 -8.515625l1.796875 0l0 11.59375l-1.796875 0zm5.3958435 0l0 -11.59375l1.796875 0l0 1.875q1.609375 -2.109375 3.875 -2.109375l0 1.84375l-0.71875 -0.078125q-0.828125 0 -1.8125 0.59375q-0.984375 0.59375 -1.34375 1.265625l0 8.203125l-1.796875 0zm7.919983 0l0 -11.59375l1.796875 0l0 1.875q1.609375 -2.109375 3.875 -2.109375l0 1.84375l-0.71875 -0.078125q-0.828125 0 -1.8125 0.59375q-0.984375 0.59375 -1.34375 1.265625l0 8.203125l-1.796875 0zm8.810608 -13.25q-0.484375 0 -0.84375 -0.34375q-0.359375 -0.34375 -0.359375 -0.859375q0 -0.5 0.359375 -0.859375q0.359375 -0.359375 0.84375 -0.359375q0.5 0 0.859375 0.359375q0.359375 0.359375 0.359375 0.859375q0 0.515625 -0.359375 0.859375q-0.359375 0.34375 -0.859375 0.34375zm-0.890625 13.25l0 -11.59375l1.796875 0l0 11.59375l-1.796875 0zm13.228119 0l0 -7.578125q0 -1.546875 -0.71875 -2.109375q-0.703125 -0.578125 -1.875 -0.578125q-1.0 0 -1.984375 0.546875q-0.96875 0.53125 -1.453125 1.25l0 8.46875l-1.796875 0l0 -11.59375l1.796875 0l0 1.6875q0.75 -0.875 1.84375 -1.421875q1.09375 -0.546875 2.296875 -0.546875q3.6875 0 3.6875 3.734375l0 8.140625l-1.796875 0zm10.0520935 4.703125q-1.484375 0 -2.5625 -0.359375q-1.078125 -0.359375 -2.109375 -1.375l0.90625 -1.34375q0.71875 0.875 1.609375 1.234375q0.90625 0.359375 2.15625 0.359375q1.78125 0 2.75 -0.921875q0.96875 -0.921875 0.96875 -2.5625l0 -1.65625q-0.625 0.890625 -1.640625 1.484375q-1.015625 0.578125 -2.25 0.578125q-2.34375 0 -3.75 -1.65625q-1.40625 -1.65625 -1.40625 -4.34375q0 -2.78125 1.421875 -4.390625q1.4375 -1.625 3.734375 -1.625q2.40625 0 3.890625 2.03125l0 -1.75l1.796875 0l0 11.25q0 2.453125 -1.4375 3.75q-1.4375 1.296875 -4.078125 1.296875zm0.265625 -6.140625q0.984375 0 1.953125 -0.53125q0.96875 -0.53125 1.5 -1.375l0 -5.0625q-0.53125 -0.828125 -1.515625 -1.34375q-0.96875 -0.515625 -1.9375 -0.515625q-1.703125 0 -2.71875 1.21875q-1.0 1.21875 -1.0 3.1875q0 2.0 1.03125 3.21875q1.03125 1.203125 2.6875 1.203125z" fill-rule="nonzero"></path><path fill="#616161" d="m388.32495 250.75284q0 1.65625 -0.84375 3.109375q-0.84375 1.453125 -2.28125 2.296875q-1.4375 0.828125 -3.125 0.828125q-2.578125 0 -4.40625 -1.828125q-1.828125 -1.828125 -1.828125 -4.40625q0 -1.640625 0.828125 -3.09375q0.828125 -1.46875 2.28125 -2.296875q1.453125 -0.84375 3.125 -0.84375q1.671875 0 3.125 0.84375q1.453125 0.828125 2.28125 2.296875q0.84375 1.453125 0.84375 3.09375z" fill-rule="nonzero"></path><path fill="#616161" d="m419.78867 256.9872q-3.375 0 -5.375 -2.21875l1.03125 -1.328125q0.859375 0.96875 2.015625 1.484375q1.15625 0.515625 2.390625 0.515625q1.515625 0 2.40625 -0.671875q0.890625 -0.671875 0.890625 -1.75q0 -1.65625 -2.59375 -2.375q-3.09375 -0.8125 -3.953125 -1.296875q-0.84375 -0.484375 -1.296875 -1.203125q-0.453125 -0.734375 -0.453125 -1.734375q0 -1.6875 1.359375 -2.78125q1.359375 -1.109375 3.453125 -1.109375q3.15625 0 4.984375 1.953125l-1.0625 1.28125q-1.5 -1.671875 -4.046875 -1.671875q-1.265625 0 -2.078125 0.609375q-0.796875 0.609375 -0.796875 1.609375q0 0.734375 0.671875 1.25q0.671875 0.515625 1.953125 0.828125q2.984375 0.828125 3.84375 1.359375q0.875 0.515625 1.34375 1.28125q0.484375 0.765625 0.484375 1.859375q0 1.921875 -1.40625 3.015625q-1.40625 1.09375 -3.765625 1.09375zm12.482727 0q-2.296875 0 -3.734375 -1.484375q-1.4375 -1.5 -1.4375 -3.84375q0 -2.25 1.421875 -3.78125q1.4375 -1.53125 3.578125 -1.53125q2.1875 0 3.53125 1.515625q1.34375 1.5 1.34375 3.921875l0 0.390625l-8.21875 0q0.09375 1.5625 1.125 2.546875q1.046875 0.96875 2.53125 0.96875q1.84375 0 3.125 -1.28125l0.765625 1.03125q-1.5625 1.546875 -4.03125 1.546875zm3.140625 -5.96875q0 -1.40625 -0.921875 -2.390625q-0.921875 -0.984375 -2.40625 -0.984375q-1.40625 0 -2.34375 0.984375q-0.9375 0.984375 -0.984375 2.390625l6.65625 0zm4.289032 5.71875l0 -10.140625l1.578125 0l0 1.640625q1.40625 -1.859375 3.375 -1.859375l0 1.625l-0.625 -0.0625q-0.71875 0 -1.578125 0.515625q-0.859375 0.515625 -1.171875 1.09375l0 7.1875l-1.578125 0zm9.741425 0l-4.21875 -10.140625l1.703125 0l3.375 8.3125l3.359375 -8.3125l1.734375 0l-4.234375 10.140625l-1.71875 0zm8.528961 -11.59375q-0.421875 0 -0.75 -0.296875q-0.3125 -0.3125 -0.3125 -0.75q0 -0.4375 0.3125 -0.75q0.328125 -0.328125 0.75 -0.328125q0.4375 0 0.75 0.328125q0.3125 0.3125 0.3125 0.75q0 0.4375 -0.3125 0.75q-0.3125 0.296875 -0.75 0.296875zm-0.78125 11.59375l0 -10.140625l1.578125 0l0 10.140625l-1.578125 0zm9.267578 0.25q-2.21875 0 -3.640625 -1.5q-1.421875 -1.515625 -1.421875 -3.828125q0 -2.296875 1.421875 -3.796875q1.421875 -1.515625 3.640625 -1.515625q2.359375 0 3.71875 1.765625l-1.046875 0.953125q-0.96875 -1.3125 -2.59375 -1.3125q-1.546875 0 -2.53125 1.078125q-0.96875 1.078125 -0.96875 2.828125q0 1.765625 0.96875 2.84375q0.96875 1.078125 2.53125 1.078125q1.609375 0 2.59375 -1.328125l1.046875 0.96875q-1.359375 1.765625 -3.71875 1.765625zm10.66684 0q-2.296875 0 -3.734375 -1.484375q-1.4375 -1.5 -1.4375 -3.84375q0 -2.25 1.421875 -3.78125q1.4375 -1.53125 3.578125 -1.53125q2.1875 0 3.53125 1.515625q1.34375 1.5 1.34375 3.921875l0 0.390625l-8.21875 0q0.09375 1.5625 1.125 2.546875q1.046875 0.96875 2.53125 0.96875q1.84375 0 3.125 -1.28125l0.765625 1.03125q-1.5625 1.546875 -4.03125 1.546875zm3.140625 -5.96875q0 -1.40625 -0.921875 -2.390625q-0.921875 -0.984375 -2.40625 -0.984375q-1.40625 0 -2.34375 0.984375q-0.9375 0.984375 -0.984375 2.390625l6.65625 0zm12.994843 5.96875q-2.578125 0 -4.09375 -1.59375l0.828125 -1.140625q0.5 0.59375 1.390625 1.03125q0.890625 0.421875 1.9375 0.421875q1.1875 0 1.796875 -0.484375q0.609375 -0.5 0.609375 -1.25q0 -0.671875 -0.671875 -1.0625q-0.65625 -0.390625 -2.46875 -0.8125q-1.53125 -0.3125 -2.34375 -1.0q-0.796875 -0.6875 -0.796875 -1.828125q0 -1.28125 1.03125 -2.09375q1.03125 -0.828125 2.75 -0.828125q2.28125 0 3.75 1.46875l-0.734375 1.09375q-0.453125 -0.546875 -1.25 -0.90625q-0.78125 -0.375 -1.765625 -0.375q-1.046875 0 -1.65625 0.46875q-0.59375 0.453125 -0.59375 1.125q0 0.609375 0.671875 0.96875q0.671875 0.359375 2.484375 0.734375q1.53125 0.359375 2.328125 1.078125q0.796875 0.71875 0.796875 1.921875q0 1.40625 -1.09375 2.234375q-1.09375 0.828125 -2.90625 0.828125zm13.558258 -0.25l0 -1.421875q-0.59375 0.671875 -1.546875 1.171875q-0.9375 0.5 -2.0625 0.5q-3.234375 0 -3.234375 -3.234375l0 -7.15625l1.578125 0l0 6.671875q0 1.203125 0.53125 1.765625q0.546875 0.546875 1.734375 0.546875q0.921875 0 1.734375 -0.453125q0.828125 -0.46875 1.265625 -1.078125l0 -7.453125l1.578125 0l0 10.140625l-1.578125 0zm6.4862366 -2.75q0.40625 0.671875 1.234375 1.140625q0.84375 0.453125 1.78125 0.453125q1.5 0 2.390625 -1.078125q0.890625 -1.078125 0.890625 -2.828125q0 -1.765625 -0.890625 -2.84375q-0.875 -1.078125 -2.390625 -1.078125q-0.9375 0 -1.78125 0.484375q-0.828125 0.484375 -1.234375 1.15625l0 4.59375zm-1.5781555 2.75l0 -14.0l1.5781555 0l0 5.390625q1.296875 -1.78125 3.421875 -1.78125q2.015625 0 3.265625 1.46875q1.25 1.46875 1.25 3.859375q0 2.4375 -1.25 3.875q-1.25 1.4375 -3.265625 1.4375q-1.078125 0 -1.96875 -0.484375q-0.890625 -0.5 -1.453125 -1.28125l0 1.515625l-1.5781555 0zm15.466827 0.25q-2.578125 0 -4.09375 -1.59375l0.828125 -1.140625q0.5 0.59375 1.390625 1.03125q0.890625 0.421875 1.9375 0.421875q1.1875 0 1.796875 -0.484375q0.609375 -0.5 0.609375 -1.25q0 -0.671875 -0.671875 -1.0625q-0.65625 -0.390625 -2.46875 -0.8125q-1.53125 -0.3125 -2.34375 -1.0q-0.796875 -0.6875 -0.796875 -1.828125q0 -1.28125 1.03125 -2.09375q1.03125 -0.828125 2.75 -0.828125q2.28125 0 3.75 1.46875l-0.734375 1.09375q-0.453125 -0.546875 -1.25 -0.90625q-0.78125 -0.375 -1.765625 -0.375q-1.046875 0 -1.65625 0.46875q-0.59375 0.453125 -0.59375 1.125q0 0.609375 0.671875 0.96875q0.671875 0.359375 2.484375 0.734375q1.53125 0.359375 2.328125 1.078125q0.796875 0.71875 0.796875 1.921875q0 1.40625 -1.09375 2.234375q-1.09375 0.828125 -2.90625 0.828125zm11.183289 0q-2.21875 0 -3.640625 -1.5q-1.421875 -1.515625 -1.421875 -3.828125q0 -2.296875 1.421875 -3.796875q1.421875 -1.515625 3.640625 -1.515625q2.359375 0 3.71875 1.765625l-1.046875 0.953125q-0.96875 -1.3125 -2.59375 -1.3125q-1.546875 0 -2.53125 1.078125q-0.96875 1.078125 -0.96875 2.828125q0 1.765625 0.96875 2.84375q0.96875 1.078125 2.53125 1.078125q1.609375 0 2.59375 -1.328125l1.046875 0.96875q-1.359375 1.765625 -3.71875 1.765625zm6.088684 -0.25l0 -10.140625l1.578125 0l0 1.640625q1.40625 -1.859375 3.375 -1.859375l0 1.625l-0.625 -0.0625q-0.71875 0 -1.578125 0.515625q-0.859375 0.515625 -1.171875 1.09375l0 7.1875l-1.578125 0zm7.81958 -11.59375q-0.421875 0 -0.75 -0.296875q-0.3125 -0.3125 -0.3125 -0.75q0 -0.4375 0.3125 -0.75q0.328125 -0.328125 0.75 -0.328125q0.4375 0 0.75 0.328125q0.3125 0.3125 0.3125 0.75q0 0.4375 -0.3125 0.75q-0.3125 0.296875 -0.75 0.296875zm-0.78125 11.59375l0 -10.140625l1.578125 0l0 10.140625l-1.578125 0zm9.798828 0.25q-2.171875 0 -3.421875 -1.78125l0 5.390625l-1.578125 0l0 -14.0l1.578125 0l0 1.515625q0.546875 -0.78125 1.4375 -1.265625q0.90625 -0.5 1.984375 -0.5q2.03125 0 3.265625 1.4375q1.25 1.421875 1.25 3.875q0 2.4375 -1.234375 3.890625q-1.234375 1.4375 -3.28125 1.4375zm-0.40625 -1.40625q1.46875 0 2.359375 -1.0625q0.890625 -1.078125 0.890625 -2.859375q0 -1.75 -0.875 -2.828125q-0.875 -1.078125 -2.375 -1.078125q-0.9375 0 -1.78125 0.46875q-0.828125 0.46875 -1.234375 1.140625l0 4.578125q0.40625 0.671875 1.234375 1.15625q0.84375 0.484375 1.78125 0.484375zm10.168518 1.40625q-2.25 0 -2.25 -2.375l0 -6.625l-1.6875 0l0 -1.390625l1.6875 0l0 -2.78125l1.578125 0l0 2.78125l2.046875 0l0 1.390625l-2.046875 0l0 6.296875q0 0.5625 0.25 0.9375q0.25 0.359375 0.78125 0.359375q0.640625 0 1.0625 -0.421875l0.46875 1.171875q-0.65625 0.65625 -1.890625 0.65625zm4.489197 -11.84375q-0.421875 0 -0.75 -0.296875q-0.3125 -0.3125 -0.3125 -0.75q0 -0.4375 0.3125 -0.75q0.328125 -0.328125 0.75 -0.328125q0.4375 0 0.75 0.328125q0.3125 0.3125 0.3125 0.75q0 0.4375 -0.3125 0.75q-0.3125 0.296875 -0.75 0.296875zm-0.78125 11.59375l0 -10.140625l1.578125 0l0 10.140625l-1.578125 0zm9.220764 0.25q-2.203125 0 -3.609375 -1.5q-1.40625 -1.5 -1.40625 -3.828125q0 -2.359375 1.40625 -3.828125q1.40625 -1.484375 3.609375 -1.484375q2.21875 0 3.625 1.484375q1.40625 1.46875 1.40625 3.828125q0 2.328125 -1.40625 3.828125q-1.40625 1.5 -3.625 1.5zm0 -1.40625q1.46875 0 2.40625 -1.09375q0.953125 -1.109375 0.953125 -2.828125q0 -1.703125 -0.953125 -2.796875q-0.9375 -1.109375 -2.40625 -1.109375q-1.46875 0 -2.421875 1.09375q-0.953125 1.09375 -0.953125 2.8125q0 1.734375 0.9375 2.828125q0.953125 1.09375 2.4375 1.09375zm14.621582 1.15625l0 -6.640625q0 -1.34375 -0.625 -1.84375q-0.609375 -0.5 -1.640625 -0.5q-0.890625 0 -1.75 0.46875q-0.84375 0.46875 -1.25 1.109375l0 7.40625l-1.578125 0l0 -10.140625l1.578125 0l0 1.46875q0.640625 -0.75 1.59375 -1.234375q0.96875 -0.484375 2.015625 -0.484375q3.234375 0 3.234375 3.265625l0 7.125l-1.578125 0z" fill-rule="nonzero"></path><path fill="#000000" fill-opacity="0.0" d="m652.53546 136.99475l275.99994 0l0 358.6772l-275.99994 0z" fill-rule="nonzero"></path><path stroke="#202729" stroke-width="1.0" stroke-linejoin="round" stroke-linecap="butt" d="m652.53546 136.99475l275.99994 0l0 358.6772l-275.99994 0z" fill-rule="nonzero"></path><path fill="#202729" d="m652.2362 136.99475l276.378 0l0 48.72441l-276.378 0z" fill-rule="nonzero"></path><path fill="#000000" fill-opacity="0.0" d="m658.5276 136.99475l261.8897 0l0 48.44095l-261.8897 0z" fill-rule="nonzero"></path><path fill="#ffffff" d="m680.82446 169.03474l-1.421875 -3.546875l-7.96875 0l-1.40625 3.546875l-2.28125 0l6.421875 -16.015625l2.484375 0l6.453125 16.015625l-2.28125 0zm-5.40625 -13.9375l-3.40625 8.609375l6.796875 0l-3.390625 -8.609375zm9.698181 13.9375l0 -11.59375l1.796875 0l0 1.875q1.609375 -2.109375 3.875 -2.109375l0 1.84375l-0.71875 -0.078125q-0.828125 0 -1.8125 0.59375q-0.984375 0.59375 -1.34375 1.265625l0 8.203125l-1.796875 0zm10.857483 0.28125q-2.578125 0 -2.578125 -2.703125l0 -7.59375l-1.921875 0l0 -1.578125l1.921875 0l0 -3.171875l1.796875 0l0 3.171875l2.359375 0l0 1.578125l-2.359375 0l0 7.203125q0 0.65625 0.28125 1.078125q0.296875 0.421875 0.90625 0.421875q0.734375 0 1.21875 -0.484375l0.53125 1.34375q-0.75 0.734375 -2.15625 0.734375zm5.009094 -13.53125q-0.484375 0 -0.84375 -0.34375q-0.359375 -0.34375 -0.359375 -0.859375q0 -0.5 0.359375 -0.859375q0.359375 -0.359375 0.84375 -0.359375q0.5 0 0.859375 0.359375q0.359375 0.359375 0.359375 0.859375q0 0.515625 -0.359375 0.859375q-0.359375 0.34375 -0.859375 0.34375zm-0.890625 13.25l0 -11.59375l1.796875 0l0 11.59375l-1.796875 0zm9.071838 0.28125q-2.953125 0 -4.671875 -1.8125l0.9375 -1.296875q0.5625 0.671875 1.578125 1.171875q1.03125 0.484375 2.234375 0.484375q1.34375 0 2.03125 -0.5625q0.703125 -0.5625 0.703125 -1.4375q0 -0.765625 -0.765625 -1.203125q-0.75 -0.453125 -2.8125 -0.921875q-1.75 -0.359375 -2.671875 -1.140625q-0.921875 -0.78125 -0.921875 -2.109375q0 -1.46875 1.171875 -2.390625q1.171875 -0.9375 3.140625 -0.9375q2.625 0 4.296875 1.671875l-0.84375 1.25q-0.515625 -0.625 -1.421875 -1.046875q-0.90625 -0.421875 -2.03125 -0.421875q-1.203125 0 -1.890625 0.53125q-0.671875 0.53125 -0.671875 1.296875q0 0.703125 0.765625 1.109375q0.765625 0.40625 2.828125 0.84375q1.75 0.40625 2.65625 1.234375q0.921875 0.828125 0.921875 2.1875q0 1.609375 -1.25 2.5625q-1.25 0.9375 -3.3125 0.9375zm10.425598 0q-2.578125 0 -2.578125 -2.703125l0 -7.59375l-1.921875 0l0 -1.578125l1.921875 0l0 -3.171875l1.796875 0l0 3.171875l2.359375 0l0 1.578125l-2.359375 0l0 7.203125q0 0.65625 0.28125 1.078125q0.296875 0.421875 0.90625 0.421875q0.734375 0 1.21875 -0.484375l0.53125 1.34375q-0.75 0.734375 -2.15625 0.734375z" fill-rule="nonzero"></path><path fill="#000000" fill-opacity="0.0" d="m659.9895 194.25722l260.22046 0l0 293.4173l-260.22046 0z" fill-rule="nonzero"></path><path fill="#202729" d="m680.1301 226.29723l-4.078125 -6.359375l-3.203125 0l0 6.359375l-1.984375 0l0 -16.015625l6.421875 0q2.265625 0 3.640625 1.359375q1.375 1.34375 1.375 3.46875q0 2.015625 -1.171875 3.25q-1.15625 1.234375 -2.96875 1.40625l4.3125 6.53125l-2.34375 0zm-3.078125 -8.109375q1.4375 0 2.3125 -0.84375q0.875 -0.859375 0.875 -2.234375q0 -1.359375 -0.875 -2.203125q-0.875 -0.84375 -2.3125 -0.84375l-4.203125 0l0 6.125l4.203125 0zm13.56073 8.390625q-2.609375 0 -4.265625 -1.703125q-1.640625 -1.703125 -1.640625 -4.390625q0 -2.5625 1.625 -4.3125q1.640625 -1.75 4.09375 -1.75q2.5 0 4.03125 1.734375q1.53125 1.71875 1.53125 4.484375l0 0.453125l-9.375 0q0.09375 1.765625 1.28125 2.890625q1.1875 1.109375 2.890625 1.109375q2.109375 0 3.578125 -1.453125l0.859375 1.171875q-1.78125 1.765625 -4.609375 1.765625zm3.59375 -6.8125q0 -1.609375 -1.0625 -2.734375q-1.046875 -1.125 -2.75 -1.125q-1.609375 0 -2.671875 1.125q-1.0625 1.125 -1.109375 2.734375l7.59375 0zm9.793213 6.8125q-2.53125 0 -4.15625 -1.71875q-1.625 -1.734375 -1.625 -4.375q0 -2.609375 1.625 -4.328125q1.625 -1.734375 4.15625 -1.734375q2.6875 0 4.25 2.015625l-1.203125 1.09375q-1.09375 -1.5 -2.9375 -1.5q-1.78125 0 -2.90625 1.234375q-1.109375 1.234375 -1.109375 3.21875q0 2.015625 1.09375 3.265625q1.109375 1.234375 2.921875 1.234375q1.8125 0 2.9375 -1.515625l1.203125 1.09375q-1.5625 2.015625 -4.25 2.015625zm14.598694 -0.28125l0 -1.625q-0.671875 0.765625 -1.75 1.34375q-1.078125 0.5625 -2.375 0.5625q-3.703125 0 -3.703125 -3.6875l0 -8.1875l1.796875 0l0 7.640625q0 1.359375 0.625 2.0q0.625 0.640625 1.96875 0.640625q1.0625 0 2.0 -0.53125q0.9375 -0.53125 1.4375 -1.234375l0 -8.515625l1.796875 0l0 11.59375l-1.796875 0zm5.395813 0l0 -11.59375l1.796875 0l0 1.875q1.609375 -2.109375 3.875 -2.109375l0 1.84375l-0.71875 -0.078125q-0.828125 0 -1.8125 0.59375q-0.984375 0.59375 -1.34375 1.265625l0 8.203125l-1.796875 0zm7.919983 0l0 -11.59375l1.796875 0l0 1.875q1.609375 -2.109375 3.875 -2.109375l0 1.84375l-0.71875 -0.078125q-0.828125 0 -1.8125 0.59375q-0.984375 0.59375 -1.34375 1.265625l0 8.203125l-1.796875 0zm8.810608 -13.25q-0.484375 0 -0.84375 -0.34375q-0.359375 -0.34375 -0.359375 -0.859375q0 -0.5 0.359375 -0.859375q0.359375 -0.359375 0.84375 -0.359375q0.5 0 0.859375 0.359375q0.359375 0.359375 0.359375 0.859375q0 0.515625 -0.359375 0.859375q-0.359375 0.34375 -0.859375 0.34375zm-0.890625 13.25l0 -11.59375l1.796875 0l0 11.59375l-1.796875 0zm13.228149 0l0 -7.578125q0 -1.546875 -0.71875 -2.109375q-0.703125 -0.578125 -1.875 -0.578125q-1.0 0 -1.984375 0.546875q-0.96875 0.53125 -1.453125 1.25l0 8.46875l-1.796875 0l0 -11.59375l1.796875 0l0 1.6875q0.75 -0.875 1.84375 -1.421875q1.09375 -0.546875 2.296875 -0.546875q3.6875 0 3.6875 3.734375l0 8.140625l-1.796875 0zm10.052063 4.703125q-1.484375 0 -2.5625 -0.359375q-1.078125 -0.359375 -2.109375 -1.375l0.90625 -1.34375q0.71875 0.875 1.609375 1.234375q0.90625 0.359375 2.15625 0.359375q1.78125 0 2.75 -0.921875q0.96875 -0.921875 0.96875 -2.5625l0 -1.65625q-0.625 0.890625 -1.640625 1.484375q-1.015625 0.578125 -2.25 0.578125q-2.34375 0 -3.75 -1.65625q-1.40625 -1.65625 -1.40625 -4.34375q0 -2.78125 1.421875 -4.390625q1.4375 -1.625 3.734375 -1.625q2.40625 0 3.890625 2.03125l0 -1.75l1.796875 0l0 11.25q0 2.453125 -1.4375 3.75q-1.4375 1.296875 -4.078125 1.296875zm0.265625 -6.140625q0.984375 0 1.953125 -0.53125q0.96875 -0.53125 1.5 -1.375l0 -5.0625q-0.53125 -0.828125 -1.515625 -1.34375q-0.96875 -0.515625 -1.9375 -0.515625q-1.703125 0 -2.71875 1.21875q-1.0 1.21875 -1.0 3.1875q0 2.0 1.03125 3.21875q1.03125 1.203125 2.6875 1.203125z" fill-rule="nonzero"></path><path fill="#616161" d="m691.69763 250.75284q0 1.65625 -0.84375 3.109375q-0.84375 1.453125 -2.28125 2.296875q-1.4375 0.828125 -3.125 0.828125q-2.578125 0 -4.40625 -1.828125q-1.828125 -1.828125 -1.828125 -4.40625q0 -1.640625 0.828125 -3.09375q0.828125 -1.46875 2.28125 -2.296875q1.453125 -0.84375 3.125 -0.84375q1.671875 0 3.125 0.84375q1.453125 0.828125 2.28125 2.296875q0.84375 1.453125 0.84375 3.09375z" fill-rule="nonzero"></path><path fill="#616161" d="m718.6301 256.7372l0 -14.0l5.625 0q2.0 0 3.1875 1.203125q1.203125 1.1875 1.203125 3.015625q0 1.84375 -1.21875 3.03125q-1.21875 1.1875 -3.171875 1.1875l-3.890625 0l0 5.5625l-1.734375 0zm5.421875 -7.125q1.25 0 2.015625 -0.734375q0.765625 -0.734375 0.765625 -1.921875q0 -1.203125 -0.765625 -1.9375q-0.765625 -0.734375 -2.015625 -0.734375l-3.6875 0l0 5.328125l3.6875 0zm7.0352783 7.125l0 -10.140625l1.578125 0l0 1.640625q1.40625 -1.859375 3.375 -1.859375l0 1.625l-0.625 -0.0625q-0.71875 0 -1.578125 0.515625q-0.859375 0.515625 -1.171875 1.09375l0 7.1875l-1.578125 0zm11.616455 0.25q-2.296875 0 -3.734375 -1.484375q-1.4375 -1.5 -1.4375 -3.84375q0 -2.25 1.421875 -3.78125q1.4375 -1.53125 3.578125 -1.53125q2.1875 0 3.53125 1.515625q1.34375 1.5 1.34375 3.921875l0 0.390625l-8.21875 0q0.09375 1.5625 1.125 2.546875q1.046875 0.96875 2.53125 0.96875q1.84375 0 3.125 -1.28125l0.765625 1.03125q-1.5625 1.546875 -4.03125 1.546875zm3.140625 -5.96875q0 -1.40625 -0.921875 -2.390625q-0.921875 -0.984375 -2.40625 -0.984375q-1.40625 0 -2.34375 0.984375q-0.9375 0.984375 -0.984375 2.390625l6.65625 0zm16.523376 5.71875l0 -6.890625q0 -2.09375 -1.859375 -2.09375q-0.796875 0 -1.546875 0.46875q-0.75 0.46875 -1.140625 1.078125l0 7.4375l-1.578125 0l0 -6.890625q0 -2.09375 -1.875 -2.09375q-0.765625 0 -1.515625 0.484375q-0.734375 0.484375 -1.140625 1.09375l0 7.40625l-1.578125 0l0 -10.140625l1.578125 0l0 1.46875q0.34375 -0.609375 1.328125 -1.15625q1.0 -0.5625 1.9375 -0.5625q1.1875 0 1.84375 0.546875q0.65625 0.546875 0.890625 1.34375q0.53125 -0.828125 1.484375 -1.359375q0.96875 -0.53125 1.921875 -0.53125q2.828125 0 2.828125 3.0625l0 7.328125l-1.578125 0zm5.7800903 -11.59375q-0.421875 0 -0.75 -0.296875q-0.3125 -0.3125 -0.3125 -0.75q0 -0.4375 0.3125 -0.75q0.328125 -0.328125 0.75 -0.328125q0.4375 0 0.75 0.328125q0.3125 0.3125 0.3125 0.75q0 0.4375 -0.3125 0.75q-0.3125 0.296875 -0.75 0.296875zm-0.78125 11.59375l0 -10.140625l1.578125 0l0 10.140625l-1.578125 0zm11.642578 0l0 -1.421875q-0.59375 0.671875 -1.546875 1.171875q-0.9375 0.5 -2.0625 0.5q-3.234375 0 -3.234375 -3.234375l0 -7.15625l1.578125 0l0 6.671875q0 1.203125 0.53125 1.765625q0.546875 0.546875 1.734375 0.546875q0.921875 0 1.734375 -0.453125q0.828125 -0.46875 1.265625 -1.078125l0 -7.453125l1.578125 0l0 10.140625l-1.578125 0zm17.142456 0l0 -6.890625q0 -2.09375 -1.859375 -2.09375q-0.796875 0 -1.546875 0.46875q-0.75 0.46875 -1.140625 1.078125l0 7.4375l-1.578125 0l0 -6.890625q0 -2.09375 -1.875 -2.09375q-0.765625 0 -1.515625 0.484375q-0.734375 0.484375 -1.140625 1.09375l0 7.40625l-1.578125 0l0 -10.140625l1.578125 0l0 1.46875q0.34375 -0.609375 1.328125 -1.15625q1.0 -0.5625 1.9375 -0.5625q1.1875 0 1.84375 0.546875q0.65625 0.546875 0.890625 1.34375q0.53125 -0.828125 1.484375 -1.359375q0.96875 -0.53125 1.921875 -0.53125q2.828125 0 2.828125 3.0625l0 7.328125l-1.578125 0zm16.845276 0l0 -1.15625q-1.28125 1.40625 -3.359375 1.40625q-1.53125 0 -2.546875 -0.96875q-1.0 -0.96875 -1.0 -2.390625q0 -1.46875 0.984375 -2.40625q1.0 -0.9375 2.5625 -0.9375q2.171875 0 3.359375 1.390625l0 -1.828125q0 -1.03125 -0.734375 -1.578125q-0.71875 -0.5625 -1.828125 -0.5625q-1.796875 0 -3.109375 1.40625l-0.734375 -1.09375q1.609375 -1.671875 4.046875 -1.671875q1.875 0 2.890625 0.90625q1.03125 0.890625 1.03125 2.515625l0 6.96875l-1.5625 0zm-2.796875 -0.875q1.875 0 2.796875 -1.265625l0 -1.90625q-0.921875 -1.265625 -2.796875 -1.265625q-1.109375 0 -1.8125 0.625q-0.6875 0.609375 -0.6875 1.59375q0 0.96875 0.6875 1.59375q0.703125 0.625 1.8125 0.625zm7.693115 0.875l0 -10.140625l1.578125 0l0 1.640625q1.40625 -1.859375 3.375 -1.859375l0 1.625l-0.625 -0.0625q-0.71875 0 -1.578125 0.515625q-0.859375 0.515625 -1.171875 1.09375l0 7.1875l-1.578125 0zm9.600769 0.25q-2.25 0 -2.25 -2.375l0 -6.625l-1.6875 0l0 -1.390625l1.6875 0l0 -2.78125l1.578125 0l0 2.78125l2.046875 0l0 1.390625l-2.046875 0l0 6.296875q0 0.5625 0.25 0.9375q0.25 0.359375 0.78125 0.359375q0.640625 0 1.0625 -0.421875l0.46875 1.171875q-0.65625 0.65625 -1.890625 0.65625zm4.489258 -11.84375q-0.421875 0 -0.75 -0.296875q-0.3125 -0.3125 -0.3125 -0.75q0 -0.4375 0.3125 -0.75q0.328125 -0.328125 0.75 -0.328125q0.4375 0 0.75 0.328125q0.3125 0.3125 0.3125 0.75q0 0.4375 -0.3125 0.75q-0.3125 0.296875 -0.75 0.296875zm-0.78125 11.59375l0 -10.140625l1.578125 0l0 10.140625l-1.578125 0zm8.001953 0.25q-2.578125 0 -4.09375 -1.59375l0.828125 -1.140625q0.5 0.59375 1.390625 1.03125q0.890625 0.421875 1.9375 0.421875q1.1875 0 1.796875 -0.484375q0.609375 -0.5 0.609375 -1.25q0 -0.671875 -0.671875 -1.0625q-0.65625 -0.390625 -2.46875 -0.8125q-1.53125 -0.3125 -2.34375 -1.0q-0.796875 -0.6875 -0.796875 -1.828125q0 -1.28125 1.03125 -2.09375q1.03125 -0.828125 2.75 -0.828125q2.28125 0 3.75 1.46875l-0.734375 1.09375q-0.453125 -0.546875 -1.25 -0.90625q-0.78125 -0.375 -1.765625 -0.375q-1.046875 0 -1.65625 0.46875q-0.59375 0.453125 -0.59375 1.125q0 0.609375 0.671875 0.96875q0.671875 0.359375 2.484375 0.734375q1.53125 0.359375 2.328125 1.078125q0.796875 0.71875 0.796875 1.921875q0 1.40625 -1.09375 2.234375q-1.09375 0.828125 -2.90625 0.828125zm9.277039 0q-2.25 0 -2.25 -2.375l0 -6.625l-1.6875 0l0 -1.390625l1.6875 0l0 -2.78125l1.578125 0l0 2.78125l2.046875 0l0 1.390625l-2.046875 0l0 6.296875q0 0.5625 0.25 0.9375q0.25 0.359375 0.78125 0.359375q0.640625 0 1.0625 -0.421875l0.46875 1.171875q-0.65625 0.65625 -1.890625 0.65625z" fill-rule="nonzero"></path><path fill="#616161" d="m721.77075 285.9872q-2.578125 0 -4.09375 -1.59375l0.828125 -1.140625q0.5 0.59375 1.390625 1.03125q0.890625 0.421875 1.9375 0.421875q1.1875 0 1.796875 -0.484375q0.609375 -0.5 0.609375 -1.25q0 -0.671875 -0.671875 -1.0625q-0.65625 -0.390625 -2.46875 -0.8125q-1.53125 -0.3125 -2.34375 -1.0q-0.796875 -0.6875 -0.796875 -1.828125q0 -1.28125 1.03125 -2.09375q1.03125 -0.828125 2.75 -0.828125q2.28125 0 3.75 1.46875l-0.734375 1.09375q-0.453125 -0.546875 -1.25 -0.90625q-0.78125 -0.375 -1.765625 -0.375q-1.046875 0 -1.65625 0.46875q-0.59375 0.453125 -0.59375 1.125q0 0.609375 0.671875 0.96875q0.671875 0.359375 2.484375 0.734375q1.53125 0.359375 2.328125 1.078125q0.796875 0.71875 0.796875 1.921875q0 1.40625 -1.09375 2.234375q-1.09375 0.828125 -2.90625 0.828125zm13.558228 -0.25l0 -1.421875q-0.59375 0.671875 -1.546875 1.171875q-0.9375 0.5 -2.0625 0.5q-3.234375 0 -3.234375 -3.234375l0 -7.15625l1.578125 0l0 6.671875q0 1.203125 0.53125 1.765625q0.546875 0.546875 1.734375 0.546875q0.921875 0 1.734375 -0.453125q0.828125 -0.46875 1.265625 -1.078125l0 -7.453125l1.578125 0l0 10.140625l-1.578125 0zm6.486206 -2.75q0.40625 0.671875 1.234375 1.140625q0.84375 0.453125 1.78125 0.453125q1.5 0 2.390625 -1.078125q0.890625 -1.078125 0.890625 -2.828125q0 -1.765625 -0.890625 -2.84375q-0.875 -1.078125 -2.390625 -1.078125q-0.9375 0 -1.78125 0.484375q-0.828125 0.484375 -1.234375 1.15625l0 4.59375zm-1.578125 2.75l0 -14.0l1.578125 0l0 5.390625q1.296875 -1.78125 3.421875 -1.78125q2.015625 0 3.265625 1.46875q1.25 1.46875 1.25 3.859375q0 2.4375 -1.25 3.875q-1.25 1.4375 -3.265625 1.4375q-1.078125 0 -1.96875 -0.484375q-0.890625 -0.5 -1.453125 -1.28125l0 1.515625l-1.578125 0zm15.466858 0.25q-2.578125 0 -4.09375 -1.59375l0.828125 -1.140625q0.5 0.59375 1.390625 1.03125q0.890625 0.421875 1.9375 0.421875q1.1875 0 1.796875 -0.484375q0.609375 -0.5 0.609375 -1.25q0 -0.671875 -0.671875 -1.0625q-0.65625 -0.390625 -2.46875 -0.8125q-1.53125 -0.3125 -2.34375 -1.0q-0.796875 -0.6875 -0.796875 -1.828125q0 -1.28125 1.03125 -2.09375q1.03125 -0.828125 2.75 -0.828125q2.28125 0 3.75 1.46875l-0.734375 1.09375q-0.453125 -0.546875 -1.25 -0.90625q-0.78125 -0.375 -1.765625 -0.375q-1.046875 0 -1.65625 0.46875q-0.59375 0.453125 -0.59375 1.125q0 0.609375 0.671875 0.96875q0.671875 0.359375 2.484375 0.734375q1.53125 0.359375 2.328125 1.078125q0.796875 0.71875 0.796875 1.921875q0 1.40625 -1.09375 2.234375q-1.09375 0.828125 -2.90625 0.828125zm11.183228 0q-2.21875 0 -3.640625 -1.5q-1.421875 -1.515625 -1.421875 -3.828125q0 -2.296875 1.421875 -3.796875q1.421875 -1.515625 3.640625 -1.515625q2.359375 0 3.71875 1.765625l-1.046875 0.953125q-0.96875 -1.3125 -2.59375 -1.3125q-1.546875 0 -2.53125 1.078125q-0.96875 1.078125 -0.96875 2.828125q0 1.765625 0.96875 2.84375q0.96875 1.078125 2.53125 1.078125q1.609375 0 2.59375 -1.328125l1.046875 0.96875q-1.359375 1.765625 -3.71875 1.765625zm6.088745 -0.25l0 -10.140625l1.578125 0l0 1.640625q1.40625 -1.859375 3.375 -1.859375l0 1.625l-0.625 -0.0625q-0.71875 0 -1.578125 0.515625q-0.859375 0.515625 -1.171875 1.09375l0 7.1875l-1.578125 0zm7.81958 -11.59375q-0.421875 0 -0.75 -0.296875q-0.3125 -0.3125 -0.3125 -0.75q0 -0.4375 0.3125 -0.75q0.328125 -0.328125 0.75 -0.328125q0.4375 0 0.75 0.328125q0.3125 0.3125 0.3125 0.75q0 0.4375 -0.3125 0.75q-0.3125 0.296875 -0.75 0.296875zm-0.78125 11.59375l0 -10.140625l1.578125 0l0 10.140625l-1.578125 0zm9.798828 0.25q-2.171875 0 -3.421875 -1.78125l0 5.390625l-1.578125 0l0 -14.0l1.578125 0l0 1.515625q0.546875 -0.78125 1.4375 -1.265625q0.90625 -0.5 1.984375 -0.5q2.03125 0 3.265625 1.4375q1.25 1.421875 1.25 3.875q0 2.4375 -1.234375 3.890625q-1.234375 1.4375 -3.28125 1.4375zm-0.40625 -1.40625q1.46875 0 2.359375 -1.0625q0.890625 -1.078125 0.890625 -2.859375q0 -1.75 -0.875 -2.828125q-0.875 -1.078125 -2.375 -1.078125q-0.9375 0 -1.78125 0.46875q-0.828125 0.46875 -1.234375 1.140625l0 4.578125q0.40625 0.671875 1.234375 1.15625q0.84375 0.484375 1.78125 0.484375zm10.168457 1.40625q-2.25 0 -2.25 -2.375l0 -6.625l-1.6875 0l0 -1.390625l1.6875 0l0 -2.78125l1.578125 0l0 2.78125l2.046875 0l0 1.390625l-2.046875 0l0 6.296875q0 0.5625 0.25 0.9375q0.25 0.359375 0.78125 0.359375q0.640625 0 1.0625 -0.421875l0.46875 1.171875q-0.65625 0.65625 -1.890625 0.65625zm4.489258 -11.84375q-0.421875 0 -0.75 -0.296875q-0.3125 -0.3125 -0.3125 -0.75q0 -0.4375 0.3125 -0.75q0.328125 -0.328125 0.75 -0.328125q0.4375 0 0.75 0.328125q0.3125 0.3125 0.3125 0.75q0 0.4375 -0.3125 0.75q-0.3125 0.296875 -0.75 0.296875zm-0.78125 11.59375l0 -10.140625l1.578125 0l0 10.140625l-1.578125 0zm9.220703 0.25q-2.203125 0 -3.609375 -1.5q-1.40625 -1.5 -1.40625 -3.828125q0 -2.359375 1.40625 -3.828125q1.40625 -1.484375 3.609375 -1.484375q2.21875 0 3.625 1.484375q1.40625 1.46875 1.40625 3.828125q0 2.328125 -1.40625 3.828125q-1.40625 1.5 -3.625 1.5zm0 -1.40625q1.46875 0 2.40625 -1.09375q0.953125 -1.109375 0.953125 -2.828125q0 -1.703125 -0.953125 -2.796875q-0.9375 -1.109375 -2.40625 -1.109375q-1.46875 0 -2.421875 1.09375q-0.953125 1.09375 -0.953125 2.8125q0 1.734375 0.9375 2.828125q0.953125 1.09375 2.4375 1.09375zm14.621643 1.15625l0 -6.640625q0 -1.34375 -0.625 -1.84375q-0.609375 -0.5 -1.640625 -0.5q-0.890625 0 -1.75 0.46875q-0.84375 0.46875 -1.25 1.109375l0 7.40625l-1.578125 0l0 -10.140625l1.578125 0l0 1.46875q0.640625 -0.75 1.59375 -1.234375q0.96875 -0.484375 2.015625 -0.484375q3.234375 0 3.234375 3.265625l0 7.125l-1.578125 0z" fill-rule="nonzero"></path></g></g></svg>

